{"glyphs":{"0":{"ha":937,"x_min":56,"x_max":882,"o":"m 476 741 q 686 694 594 741 q 830 565 779 648 q 882 372 882 481 q 829 172 882 262 q 680 32 776 83 q 461 -20 585 -20 q 252 26 345 -20 q 108 156 160 72 q 56 350 56 240 q 108 549 56 460 q 256 689 161 637 q 476 741 352 741 m 464 715 q 387 672 420 715 q 334 547 353 629 q 315 354 315 465 q 336 156 315 235 q 393 42 357 78 q 473 5 429 5 q 551 49 517 5 q 604 175 585 93 q 623 368 623 257 q 601 565 623 487 q 544 679 580 643 q 464 715 509 715 z "},"1":{"ha":545,"x_min":50,"x_max":497,"o":"m 419 129 q 427 68 419 90 q 451 38 434 47 q 497 29 468 29 l 497 0 q 470 1 492 0 q 306 5 346 5 q 91 1 258 5 q 50 0 60 0 l 50 29 q 140 54 111 29 q 170 143 170 79 l 170 485 q 159 583 170 551 q 124 625 149 614 q 50 635 100 635 l 50 665 q 269 683 184 667 q 419 736 355 699 l 419 129 z "},"2":{"ha":768,"x_min":50,"x_max":714,"o":"m 410 741 q 542 720 486 741 q 628 658 598 699 q 659 562 659 618 q 624 460 659 506 q 541 379 589 414 q 411 298 492 345 q 326 246 357 267 q 269 204 294 226 l 583 204 q 640 209 621 204 q 665 226 658 214 q 676 261 672 237 l 708 261 q 714 -7 708 83 q 507 0 683 0 l 50 0 l 50 29 q 111 85 71 50 q 247 215 191 157 q 343 349 302 273 q 385 507 385 425 q 354 610 385 578 q 261 643 324 643 q 158 620 202 643 q 75 550 113 596 l 52 567 q 191 694 106 648 q 410 741 276 741 z "},"3":{"ha":711,"x_min":33,"x_max":672,"o":"m 359 741 q 495 721 435 741 q 589 665 555 702 q 623 579 623 629 q 585 480 623 527 q 472 399 547 433 q 290 350 397 365 q 340 351 307 351 q 515 326 440 351 q 631 252 590 300 q 672 138 672 203 q 577 -44 672 35 q 335 -166 483 -123 q 33 -210 186 -210 l 33 -180 q 209 -139 121 -177 q 356 -31 298 -102 q 415 136 415 40 q 398 232 415 190 q 348 299 380 275 q 271 328 315 324 q 227 310 242 315 q 195 304 212 304 q 174 309 180 304 q 167 326 167 314 q 181 350 167 342 q 216 358 195 358 q 246 356 216 358 l 265 354 q 372 530 372 425 q 339 621 372 591 q 248 652 307 652 q 147 626 194 652 q 68 553 100 600 l 43 567 q 164 693 91 646 q 359 741 237 741 z "},"4":{"ha":764,"x_min":3,"x_max":726,"o":"m 726 26 q 587 33 711 30 l 587 -196 l 393 -196 l 393 33 l 3 33 l 3 62 l 566 741 l 587 741 l 587 210 l 596 210 q 652 215 634 210 q 678 231 671 220 q 689 267 686 243 l 721 267 q 726 26 721 99 m 393 489 l 163 210 l 393 210 l 393 489 z "},"5":{"ha":679,"x_min":28,"x_max":639,"o":"m 582 762 q 587 509 582 585 q 395 515 557 515 l 136 515 l 110 298 q 210 345 149 328 q 351 363 272 363 q 511 333 446 363 q 607 254 576 304 q 639 140 639 203 q 550 -41 639 37 q 319 -163 460 -120 q 28 -205 178 -205 l 28 -180 q 199 -141 118 -180 q 331 -32 281 -103 q 382 135 382 40 q 344 267 382 221 q 233 313 307 313 q 161 300 193 313 q 100 261 130 287 l 78 277 l 134 725 q 208 720 161 720 l 485 720 q 532 729 516 720 q 550 762 547 739 l 582 762 z "},"6":{"ha":821,"x_min":58,"x_max":786,"o":"m 498 614 q 644 577 578 614 q 748 472 710 540 q 786 314 786 404 q 735 134 786 210 q 600 20 685 59 q 412 -20 514 -20 q 223 27 302 -20 q 101 163 143 74 q 58 376 58 252 q 154 704 58 570 q 389 911 250 839 q 668 1004 528 983 l 673 977 q 514 905 581 947 q 397 773 448 862 q 328 536 347 685 q 498 614 380 614 m 428 8 q 477 39 454 8 q 513 135 499 69 q 526 301 526 201 q 500 508 526 442 q 429 574 473 574 q 371 550 402 574 q 322 480 340 527 q 318 363 318 427 q 334 158 318 237 q 375 43 350 79 q 428 8 400 8 z "},"7":{"ha":677,"x_min":29,"x_max":684,"o":"m 684 690 q 619 570 665 650 q 526 396 563 471 q 463 227 490 321 q 436 31 436 132 q 440 -26 437 16 q 443 -83 443 -68 q 429 -143 443 -115 q 387 -188 416 -171 q 317 -205 359 -205 q 222 -165 254 -205 q 191 -54 191 -125 q 232 100 191 20 q 329 252 273 181 q 475 422 386 323 q 556 515 530 484 l 160 515 q 103 510 122 515 q 78 494 85 505 q 66 458 71 482 l 35 458 q 29 726 35 647 q 236 720 60 720 l 684 720 l 684 690 z "},"8":{"ha":817,"x_min":52,"x_max":770,"o":"m 541 582 q 662 463 617 511 q 738 358 707 415 q 770 240 770 300 q 722 107 770 166 q 590 14 674 47 q 401 -20 506 -20 q 226 8 306 -20 q 99 91 146 37 q 52 221 52 145 q 279 473 52 380 q 184 567 223 524 q 121 662 146 611 q 97 771 97 713 q 141 901 97 849 q 259 978 186 954 q 418 1003 332 1003 q 576 977 507 1003 q 682 907 644 951 q 720 806 720 862 q 670 695 720 743 q 518 602 621 648 l 541 582 m 410 978 q 350 952 370 978 q 330 885 330 927 q 374 759 330 821 q 498 621 417 697 q 518 706 512 655 q 525 799 525 758 q 494 931 525 884 q 410 978 464 978 m 408 5 q 497 41 469 5 q 526 134 526 77 q 498 242 526 191 q 429 335 470 293 q 318 438 388 376 q 301 453 311 446 q 257 249 257 382 q 408 5 257 5 z "},"9":{"ha":808,"x_min":32,"x_max":760,"o":"m 406 741 q 595 694 515 741 q 717 558 675 647 q 760 345 760 469 q 666 53 760 173 q 436 -133 572 -68 q 164 -214 299 -197 l 158 -186 q 306 -126 243 -162 q 417 -16 368 -90 q 486 180 466 58 q 319 107 434 107 q 174 144 239 107 q 70 249 109 181 q 32 407 32 317 q 82 587 32 511 q 218 701 133 662 q 406 741 304 741 m 389 147 q 445 169 415 147 q 494 235 475 191 q 500 358 500 291 q 484 563 500 484 q 443 677 468 642 q 390 713 418 713 q 341 682 363 713 q 306 586 319 652 q 292 419 292 519 q 318 213 292 279 q 389 147 345 147 z "}," ":{"ha":310,"x_min":0,"x_max":0,"o":""},"A":{"ha":961,"x_min":-29,"x_max":971,"o":"m 889 117 q 928 51 907 72 q 971 28 950 29 l 971 0 q 718 4 871 4 q 485 0 559 4 l 485 28 q 560 41 537 30 q 583 79 583 52 q 566 144 583 100 l 483 372 l 203 372 l 179 310 q 134 129 134 193 q 166 51 134 72 q 260 28 197 30 l 260 0 q 78 4 156 4 q -29 0 12 4 l -29 28 q 36 71 5 33 q 98 191 66 108 l 407 983 q 480 981 437 981 q 553 983 524 981 l 889 117 m 347 747 l 214 400 l 473 400 l 347 747 z "},"Á":{"ha":961,"x_min":-29,"x_max":971,"o":"m 0 0 m 889 117 q 928 51 907 72 q 971 28 950 29 l 971 0 q 718 4 871 4 q 485 0 559 4 l 485 28 q 560 41 537 30 q 583 79 583 52 q 566 144 583 100 l 483 372 l 203 372 l 179 310 q 134 129 134 193 q 166 51 134 72 q 260 28 197 30 l 260 0 q 78 4 156 4 q -29 0 12 4 l -29 28 q 36 71 5 33 q 98 191 66 108 l 407 983 q 480 981 437 981 q 553 983 524 981 l 889 117 m 347 747 l 214 400 l 473 400 l 347 747 m 589 1304 q 632 1314 608 1314 q 683 1300 659 1314 q 720 1261 707 1287 q 728 1225 728 1243 q 714 1177 728 1200 q 675 1143 700 1155 q 630 1126 654 1132 q 565 1114 606 1120 q 379 1072 460 1097 l 370 1089 q 503 1226 437 1147 q 549 1277 532 1261 q 589 1304 566 1293 z "},"Ă":{"ha":961,"x_min":-29,"x_max":971,"o":"m 0 0 m 889 117 q 928 51 907 72 q 971 28 950 29 l 971 0 q 718 4 871 4 q 485 0 559 4 l 485 28 q 560 41 537 30 q 583 79 583 52 q 566 144 583 100 l 483 372 l 203 372 l 179 310 q 134 129 134 193 q 166 51 134 72 q 260 28 197 30 l 260 0 q 78 4 156 4 q -29 0 12 4 l -29 28 q 36 71 5 33 q 98 191 66 108 l 407 983 q 480 981 437 981 q 553 983 524 981 l 889 117 m 347 747 l 214 400 l 473 400 l 347 747 m 800 1263 q 737 1166 780 1212 q 625 1090 694 1120 q 468 1060 557 1060 q 311 1090 379 1060 q 199 1166 242 1120 q 136 1263 156 1212 l 153 1278 q 468 1197 279 1197 q 783 1278 656 1197 l 800 1263 z "},"Â":{"ha":961,"x_min":-29,"x_max":971,"o":"m 0 0 m 889 117 q 928 51 907 72 q 971 28 950 29 l 971 0 q 718 4 871 4 q 485 0 559 4 l 485 28 q 560 41 537 30 q 583 79 583 52 q 566 144 583 100 l 483 372 l 203 372 l 179 310 q 134 129 134 193 q 166 51 134 72 q 260 28 197 30 l 260 0 q 78 4 156 4 q -29 0 12 4 l -29 28 q 36 71 5 33 q 98 191 66 108 l 407 983 q 480 981 437 981 q 553 983 524 981 l 889 117 m 347 747 l 214 400 l 473 400 l 347 747 m 495 1328 q 625 1197 545 1261 q 796 1089 706 1132 l 789 1068 q 602 1106 694 1083 q 454 1153 509 1130 q 331 1106 408 1130 q 176 1068 254 1083 l 168 1089 q 337 1195 256 1131 q 470 1328 417 1259 l 495 1328 z "},"Ä":{"ha":961,"x_min":-29,"x_max":971,"o":"m 0 0 m 889 117 q 928 51 907 72 q 971 28 950 29 l 971 0 q 718 4 871 4 q 485 0 559 4 l 485 28 q 560 41 537 30 q 583 79 583 52 q 566 144 583 100 l 483 372 l 203 372 l 179 310 q 134 129 134 193 q 166 51 134 72 q 260 28 197 30 l 260 0 q 78 4 156 4 q -29 0 12 4 l -29 28 q 36 71 5 33 q 98 191 66 108 l 407 983 q 480 981 437 981 q 553 983 524 981 l 889 117 m 347 747 l 214 400 l 473 400 l 347 747 m 303 1300 q 362 1283 334 1300 q 407 1238 390 1266 q 424 1179 424 1211 q 407 1119 424 1147 q 362 1075 391 1091 q 303 1059 334 1059 q 243 1075 271 1059 q 199 1119 215 1091 q 182 1179 182 1146 q 199 1239 182 1211 q 243 1283 215 1267 q 303 1300 271 1300 m 661 1300 q 720 1283 692 1300 q 765 1238 748 1266 q 782 1179 782 1211 q 765 1119 782 1147 q 721 1075 749 1091 q 661 1059 692 1059 q 601 1075 629 1059 q 557 1119 573 1091 q 541 1179 541 1146 q 557 1239 541 1211 q 601 1283 573 1267 q 661 1300 629 1300 z "},"À":{"ha":961,"x_min":-29,"x_max":971,"o":"m 0 0 m 889 117 q 928 51 907 72 q 971 28 950 29 l 971 0 q 718 4 871 4 q 485 0 559 4 l 485 28 q 560 41 537 30 q 583 79 583 52 q 566 144 583 100 l 483 372 l 203 372 l 179 310 q 134 129 134 193 q 166 51 134 72 q 260 28 197 30 l 260 0 q 78 4 156 4 q -29 0 12 4 l -29 28 q 36 71 5 33 q 98 191 66 108 l 407 983 q 480 981 437 981 q 553 983 524 981 l 889 117 m 347 747 l 214 400 l 473 400 l 347 747 m 356 1304 q 396 1277 379 1293 q 441 1226 414 1260 q 575 1089 507 1147 l 566 1072 q 380 1114 482 1098 q 315 1126 339 1120 q 270 1143 292 1132 q 231 1178 245 1156 q 217 1225 217 1200 q 225 1261 217 1243 q 262 1300 238 1287 q 313 1314 286 1314 q 356 1304 336 1314 z "},"Ā":{"ha":961,"x_min":-29,"x_max":971,"o":"m 0 0 m 889 117 q 928 51 907 72 q 971 28 950 29 l 971 0 q 718 4 871 4 q 485 0 559 4 l 485 28 q 560 41 537 30 q 583 79 583 52 q 566 144 583 100 l 483 372 l 203 372 l 179 310 q 134 129 134 193 q 166 51 134 72 q 260 28 197 30 l 260 0 q 78 4 156 4 q -29 0 12 4 l -29 28 q 36 71 5 33 q 98 191 66 108 l 407 983 q 480 981 437 981 q 553 983 524 981 l 889 117 m 347 747 l 214 400 l 473 400 l 347 747 m 182 1137 l 182 1173 l 782 1173 l 782 1137 l 182 1137 z "},"Ą":{"ha":961,"x_min":-29,"x_max":971,"o":"m 945 1 q 833 -60 869 -26 q 798 -125 798 -94 q 811 -165 798 -153 q 853 -178 825 -178 q 903 -169 876 -178 q 945 -146 929 -159 l 963 -167 q 872 -239 922 -217 q 750 -261 823 -261 q 648 -236 683 -261 q 613 -163 613 -210 q 686 -62 613 -104 q 892 2 758 -20 q 718 4 811 4 q 485 0 559 4 l 485 28 q 560 41 537 30 q 583 79 583 52 q 566 144 583 100 l 483 372 l 203 372 l 179 310 q 134 129 134 193 q 166 51 134 72 q 260 28 197 30 l 260 0 q 78 4 156 4 q -29 0 12 4 l -29 28 q 36 71 5 33 q 98 191 66 108 l 407 983 q 480 980 444 980 q 553 983 515 980 l 889 117 q 928 51 907 72 q 971 28 950 29 l 971 0 l 945 1 m 347 747 l 214 400 l 473 400 l 347 747 z "},"Å":{"ha":961,"x_min":-29,"x_max":971,"o":"m 0 0 m 889 117 q 928 51 907 72 q 971 28 950 29 l 971 0 q 718 4 871 4 q 485 0 559 4 l 485 28 q 560 41 537 30 q 583 79 583 52 q 566 144 583 100 l 483 372 l 203 372 l 179 310 q 134 129 134 193 q 166 51 134 72 q 260 28 197 30 l 260 0 q 78 4 156 4 q -29 0 12 4 l -29 28 q 36 71 5 33 q 98 191 66 108 l 407 983 q 480 981 437 981 q 553 983 524 981 l 889 117 m 347 747 l 214 400 l 473 400 l 347 747 m 482 1312 q 563 1295 526 1312 q 623 1246 600 1278 q 645 1173 645 1214 q 623 1098 645 1130 q 563 1048 600 1065 q 482 1031 526 1031 q 402 1048 439 1031 q 343 1098 366 1065 q 321 1173 321 1130 q 343 1246 321 1214 q 402 1295 366 1278 q 482 1312 439 1312 m 482 1283 q 424 1270 452 1283 q 378 1231 395 1256 q 360 1171 360 1205 q 378 1110 360 1135 q 424 1073 395 1085 q 482 1060 452 1060 q 542 1073 513 1060 q 588 1110 570 1085 q 606 1171 606 1135 q 588 1231 606 1205 q 542 1270 570 1256 q 482 1283 513 1283 z "},"Ã":{"ha":961,"x_min":-29,"x_max":971,"o":"m 0 0 m 889 117 q 928 51 907 72 q 971 28 950 29 l 971 0 q 718 4 871 4 q 485 0 559 4 l 485 28 q 560 41 537 30 q 583 79 583 52 q 566 144 583 100 l 483 372 l 203 372 l 179 310 q 134 129 134 193 q 166 51 134 72 q 260 28 197 30 l 260 0 q 78 4 156 4 q -29 0 12 4 l -29 28 q 36 71 5 33 q 98 191 66 108 l 407 983 q 480 981 437 981 q 553 983 524 981 l 889 117 m 347 747 l 214 400 l 473 400 l 347 747 m 353 1303 q 443 1290 406 1303 q 524 1253 480 1278 q 593 1222 564 1232 q 661 1211 623 1211 q 795 1284 739 1211 l 814 1275 q 733 1115 788 1167 q 609 1063 678 1063 q 519 1076 556 1063 q 436 1113 482 1088 q 368 1145 397 1135 q 300 1156 338 1156 q 165 1080 223 1156 l 146 1090 q 228 1251 173 1198 q 353 1303 283 1303 z "},"Æ":{"ha":1267,"x_min":-24,"x_max":1207,"o":"m 1197 205 q 1207 0 1197 81 q 889 4 1112 4 q 444 0 593 4 l 444 28 q 509 39 489 30 q 536 71 529 47 q 543 147 543 95 l 543 481 l 318 481 l 125 144 q 100 77 100 100 q 123 41 100 52 q 196 28 146 30 l 196 0 q 69 4 154 4 q -24 0 9 4 l -24 28 q 22 49 -1 29 q 72 117 44 68 l 534 917 q 506 946 526 938 q 444 956 486 954 l 444 983 q 571 981 484 982 l 624 1072 l 657 1072 l 604 981 q 889 979 716 979 q 1179 983 1093 979 q 1169 778 1169 861 q 1174 677 1169 711 l 1141 677 q 1067 887 1121 823 q 942 951 1014 951 l 924 951 q 860 943 880 951 q 833 912 840 935 q 825 836 825 888 l 825 509 l 880 509 q 951 536 924 509 q 990 595 978 563 q 1014 677 1002 628 l 1046 677 q 1041 556 1041 614 l 1042 494 q 1050 311 1042 429 l 1018 311 q 995 397 1009 361 q 953 457 981 433 q 880 481 925 481 l 825 481 l 825 147 q 833 72 825 95 q 860 40 840 48 q 924 32 880 32 l 970 32 q 1050 62 1008 32 q 1125 159 1092 92 q 1169 334 1158 227 l 1202 334 q 1197 205 1197 286 m 543 836 q 543 872 543 861 l 334 509 l 543 509 l 543 836 z "},"B":{"ha":978,"x_min":39,"x_max":950,"o":"m 557 515 q 781 472 692 509 q 910 383 869 436 q 950 269 950 330 q 841 67 950 134 q 533 0 732 0 l 465 1 q 281 4 372 4 q 39 0 118 4 l 39 28 q 103 39 83 30 q 131 71 123 47 q 138 147 138 95 l 138 836 q 130 912 138 888 q 103 945 123 936 q 39 956 83 954 l 39 983 q 278 979 118 979 q 437 981 305 979 l 501 982 q 709 955 625 982 q 836 878 793 927 q 878 764 878 829 q 842 661 878 712 q 734 570 806 609 q 557 518 661 531 l 557 515 m 494 956 q 447 946 463 956 q 425 911 431 936 q 419 836 419 886 l 419 522 l 457 522 q 562 584 532 522 q 591 749 591 645 q 569 905 591 854 q 494 956 547 956 m 510 32 q 659 275 659 32 q 606 441 659 385 q 439 498 553 498 l 419 498 l 419 147 q 426 73 419 97 q 452 41 433 50 q 510 32 471 32 z "},"C":{"ha":996,"x_min":50,"x_max":925,"o":"m 575 1003 q 716 979 658 1003 q 831 913 775 956 q 858 901 846 901 q 893 983 886 901 l 925 983 q 920 636 920 885 l 888 636 q 868 760 881 710 q 830 849 856 810 q 760 918 804 889 q 631 960 696 960 q 473 889 531 960 q 392 714 415 819 q 370 489 370 609 q 392 264 370 369 q 473 89 415 159 q 631 18 531 18 q 760 60 696 18 q 830 128 804 87 q 868 223 856 169 q 888 361 881 278 l 920 361 q 925 0 920 102 l 893 0 q 882 63 890 43 q 859 82 874 82 q 831 71 848 82 q 754 23 789 41 q 675 -8 720 4 q 574 -20 630 -20 q 298 40 416 -20 q 115 213 180 100 q 50 484 50 327 q 117 755 50 637 q 303 938 184 873 q 575 1003 422 1003 z "},"Ć":{"ha":996,"x_min":50,"x_max":925,"o":"m 50 0 m 575 1003 q 716 979 658 1003 q 831 913 775 956 q 858 901 846 901 q 893 983 886 901 l 925 983 q 920 636 920 885 l 888 636 q 868 760 881 710 q 830 849 856 810 q 760 918 804 889 q 631 960 696 960 q 473 889 531 960 q 392 714 415 819 q 370 489 370 609 q 392 264 370 369 q 473 89 415 159 q 631 18 531 18 q 760 60 696 18 q 830 128 804 87 q 868 223 856 169 q 888 361 881 278 l 920 361 q 925 0 920 102 l 893 0 q 882 63 890 43 q 859 82 874 82 q 831 71 848 82 q 754 23 789 41 q 675 -8 720 4 q 574 -20 630 -20 q 298 40 416 -20 q 115 213 180 100 q 50 484 50 327 q 117 755 50 637 q 303 938 184 873 q 575 1003 422 1003 m 648 1304 q 690 1314 667 1314 q 741 1300 718 1314 q 778 1261 765 1287 q 786 1225 786 1243 q 772 1177 786 1200 q 734 1143 758 1155 q 688 1126 712 1132 q 623 1114 665 1120 q 437 1072 519 1097 l 428 1089 q 562 1226 496 1147 q 608 1277 591 1261 q 648 1304 625 1293 z "},"Č":{"ha":996,"x_min":50,"x_max":925,"o":"m 50 0 m 575 1003 q 716 979 658 1003 q 831 913 775 956 q 858 901 846 901 q 893 983 886 901 l 925 983 q 920 636 920 885 l 888 636 q 868 760 881 710 q 830 849 856 810 q 760 918 804 889 q 631 960 696 960 q 473 889 531 960 q 392 714 415 819 q 370 489 370 609 q 392 264 370 369 q 473 89 415 159 q 631 18 531 18 q 760 60 696 18 q 830 128 804 87 q 868 223 856 169 q 888 361 881 278 l 920 361 q 925 0 920 102 l 893 0 q 882 63 890 43 q 859 82 874 82 q 831 71 848 82 q 754 23 789 41 q 675 -8 720 4 q 574 -20 630 -20 q 298 40 416 -20 q 115 213 180 100 q 50 484 50 327 q 117 755 50 637 q 303 938 184 873 q 575 1003 422 1003 m 850 1293 q 682 1187 762 1251 q 549 1054 602 1122 l 524 1054 q 393 1186 473 1121 q 222 1293 313 1251 l 230 1314 q 417 1276 325 1299 q 564 1229 510 1253 q 688 1276 610 1253 q 844 1314 765 1299 l 850 1293 z "},"Ç":{"ha":996,"x_min":50,"x_max":925,"o":"m 920 361 q 925 0 920 102 l 893 0 q 882 63 890 43 q 859 82 874 82 q 831 71 848 82 q 759 25 791 43 q 684 -5 726 7 q 591 -20 642 -18 l 572 -83 q 696 -62 627 -62 q 783 -85 753 -62 q 812 -143 812 -107 q 741 -231 812 -201 q 551 -261 670 -261 q 412 -243 466 -261 l 421 -218 q 502 -225 458 -225 q 591 -212 553 -225 q 629 -172 629 -198 q 563 -138 629 -138 q 517 -147 534 -138 l 554 -20 q 289 45 402 -16 q 113 218 175 106 q 50 484 50 330 q 117 755 50 637 q 303 938 184 873 q 575 1003 422 1003 q 716 979 658 1003 q 831 913 775 956 q 858 901 846 901 q 893 983 886 901 l 925 983 q 920 636 920 885 l 888 636 q 868 760 881 710 q 830 849 856 810 q 760 918 804 889 q 631 960 696 960 q 473 889 531 960 q 392 714 415 819 q 370 489 370 609 q 392 264 370 369 q 473 89 415 159 q 631 18 531 18 q 760 60 696 18 q 830 128 804 87 q 868 223 856 169 q 888 361 881 278 l 920 361 z "},"Ĉ":{"ha":996,"x_min":50,"x_max":925,"o":"m 50 0 m 575 1003 q 716 979 658 1003 q 831 913 775 956 q 858 901 846 901 q 893 983 886 901 l 925 983 q 920 636 920 885 l 888 636 q 868 760 881 710 q 830 849 856 810 q 760 918 804 889 q 631 960 696 960 q 473 889 531 960 q 392 714 415 819 q 370 489 370 609 q 392 264 370 369 q 473 89 415 159 q 631 18 531 18 q 760 60 696 18 q 830 128 804 87 q 868 223 856 169 q 888 361 881 278 l 920 361 q 925 0 920 102 l 893 0 q 882 63 890 43 q 859 82 874 82 q 831 71 848 82 q 754 23 789 41 q 675 -8 720 4 q 574 -20 630 -20 q 298 40 416 -20 q 115 213 180 100 q 50 484 50 327 q 117 755 50 637 q 303 938 184 873 q 575 1003 422 1003 m 553 1328 q 684 1197 603 1261 q 854 1089 764 1132 l 848 1068 q 660 1106 753 1083 q 513 1153 568 1130 q 389 1106 467 1130 q 234 1068 312 1083 l 227 1089 q 395 1195 315 1131 q 528 1328 475 1259 l 553 1328 z "},"Ċ":{"ha":996,"x_min":50,"x_max":925,"o":"m 50 0 m 575 1003 q 716 979 658 1003 q 831 913 775 956 q 858 901 846 901 q 893 983 886 901 l 925 983 q 920 636 920 885 l 888 636 q 868 760 881 710 q 830 849 856 810 q 760 918 804 889 q 631 960 696 960 q 473 889 531 960 q 392 714 415 819 q 370 489 370 609 q 392 264 370 369 q 473 89 415 159 q 631 18 531 18 q 760 60 696 18 q 830 128 804 87 q 868 223 856 169 q 888 361 881 278 l 920 361 q 925 0 920 102 l 893 0 q 882 63 890 43 q 859 82 874 82 q 831 71 848 82 q 754 23 789 41 q 675 -8 720 4 q 574 -20 630 -20 q 298 40 416 -20 q 115 213 180 100 q 50 484 50 327 q 117 755 50 637 q 303 938 184 873 q 575 1003 422 1003 m 542 1295 q 644 1264 608 1295 q 679 1175 679 1234 q 644 1086 679 1116 q 542 1055 608 1055 q 439 1086 475 1055 q 404 1175 404 1116 q 439 1264 404 1234 q 542 1295 475 1295 z "},"D":{"ha":1126,"x_min":39,"x_max":1075,"o":"m 501 983 q 932 861 789 983 q 1075 503 1075 738 q 1005 238 1075 351 q 803 62 935 124 q 489 0 671 0 q 402 2 454 0 q 281 4 278 4 q 39 0 118 4 l 39 28 q 103 39 83 30 q 131 71 123 47 q 138 147 138 95 l 138 836 q 130 912 138 888 q 103 945 123 936 q 39 956 83 954 l 39 983 q 229 979 140 979 l 278 979 l 339 981 q 501 983 453 983 m 522 958 q 457 948 479 958 q 427 913 435 939 q 419 839 419 888 l 419 144 q 427 70 419 94 q 457 35 435 45 q 524 25 479 25 q 722 144 661 25 q 783 497 783 262 q 720 845 783 732 q 522 958 657 958 z "},"Ð":{"ha":1126,"x_min":39,"x_max":1075,"o":"m 501 983 q 932 861 789 983 q 1075 503 1075 738 q 1005 238 1075 351 q 803 62 935 124 q 489 0 671 0 q 402 2 454 0 q 281 4 278 4 q 39 0 118 4 l 39 28 q 103 39 83 30 q 131 71 123 47 q 138 147 138 95 l 138 481 l 39 481 l 39 509 l 138 509 l 138 836 q 130 912 138 888 q 103 945 123 936 q 39 956 83 954 l 39 983 q 229 979 140 979 l 278 979 l 339 981 q 501 983 453 983 m 524 25 q 722 144 661 25 q 783 497 783 262 q 720 845 783 732 q 522 958 657 958 q 457 948 479 958 q 427 913 435 939 q 419 839 419 888 l 419 509 l 578 509 l 578 481 l 419 481 l 419 144 q 427 70 419 94 q 457 35 435 45 q 524 25 479 25 z "},"Ď":{"ha":1126,"x_min":39,"x_max":1075,"o":"m 39 0 m 501 983 q 932 861 789 983 q 1075 503 1075 738 q 1005 238 1075 351 q 803 62 935 124 q 489 0 671 0 q 402 2 454 0 q 281 4 278 4 q 39 0 118 4 l 39 28 q 103 39 83 30 q 131 71 123 47 q 138 147 138 95 l 138 836 q 130 912 138 888 q 103 945 123 936 q 39 956 83 954 l 39 983 q 229 979 140 979 l 278 979 l 339 981 q 501 983 453 983 m 522 958 q 457 948 479 958 q 427 913 435 939 q 419 839 419 888 l 419 144 q 427 70 419 94 q 457 35 435 45 q 524 25 479 25 q 722 144 661 25 q 783 497 783 262 q 720 845 783 732 q 522 958 657 958 m 811 1293 q 642 1187 722 1251 q 510 1054 562 1122 l 485 1054 q 354 1186 434 1121 q 183 1293 273 1251 l 191 1314 q 378 1276 286 1299 q 525 1229 471 1253 q 648 1276 571 1253 q 804 1314 726 1299 l 811 1293 z "},"Đ":{"ha":1126,"x_min":39,"x_max":1075,"o":"m 501 983 q 932 861 789 983 q 1075 503 1075 738 q 1005 238 1075 351 q 803 62 935 124 q 489 0 671 0 q 402 2 454 0 q 281 4 278 4 q 39 0 118 4 l 39 28 q 103 39 83 30 q 131 71 123 47 q 138 147 138 95 l 138 481 l 39 481 l 39 509 l 138 509 l 138 836 q 130 912 138 888 q 103 945 123 936 q 39 956 83 954 l 39 983 q 229 979 140 979 l 278 979 l 339 981 q 501 983 453 983 m 524 25 q 722 144 661 25 q 783 497 783 262 q 720 845 783 732 q 522 958 657 958 q 457 948 479 958 q 427 913 435 939 q 419 839 419 888 l 419 509 l 578 509 l 578 481 l 419 481 l 419 144 q 427 70 419 94 q 457 35 435 45 q 524 25 479 25 z "},"E":{"ha":903,"x_min":39,"x_max":843,"o":"m 833 233 q 843 0 833 92 q 525 4 749 4 q 39 0 200 4 l 39 28 q 103 39 83 30 q 131 71 123 47 q 138 147 138 95 l 138 836 q 130 912 138 888 q 103 945 123 936 q 39 956 83 954 l 39 983 q 525 979 200 979 q 815 983 729 979 q 806 750 806 853 q 810 650 806 686 l 778 650 q 685 881 753 811 q 522 951 617 951 l 504 951 q 449 945 466 951 q 426 921 432 939 q 419 864 419 903 l 419 509 l 433 509 q 523 536 483 509 q 588 606 562 564 q 623 692 614 648 l 654 692 q 649 557 649 610 l 650 494 q 659 297 650 435 l 627 297 q 592 391 618 349 q 525 457 566 433 q 433 481 484 481 l 419 481 l 419 119 q 426 62 419 79 q 449 38 432 44 q 504 32 466 32 l 550 32 q 651 64 600 32 q 743 169 701 96 q 806 361 785 243 l 838 361 q 833 233 833 311 z "},"É":{"ha":903,"x_min":39,"x_max":843,"o":"m 39 0 m 833 233 q 843 0 833 92 q 525 4 749 4 q 39 0 200 4 l 39 28 q 103 39 83 30 q 131 71 123 47 q 138 147 138 95 l 138 836 q 130 912 138 888 q 103 945 123 936 q 39 956 83 954 l 39 983 q 525 979 200 979 q 815 983 729 979 q 806 750 806 853 q 810 650 806 686 l 778 650 q 685 881 753 811 q 522 951 617 951 l 504 951 q 449 945 466 951 q 426 921 432 939 q 419 864 419 903 l 419 509 l 433 509 q 523 536 483 509 q 588 606 562 564 q 623 692 614 648 l 654 692 q 649 557 649 610 l 650 494 q 659 297 650 435 l 627 297 q 592 391 618 349 q 525 457 566 433 q 433 481 484 481 l 419 481 l 419 119 q 426 62 419 79 q 449 38 432 44 q 504 32 466 32 l 550 32 q 651 64 600 32 q 743 169 701 96 q 806 361 785 243 l 838 361 q 833 233 833 311 m 551 1304 q 594 1314 570 1314 q 645 1300 621 1314 q 682 1261 669 1287 q 690 1225 690 1243 q 676 1177 690 1200 q 637 1143 662 1155 q 592 1126 616 1132 q 527 1114 568 1120 q 341 1072 422 1097 l 332 1089 q 465 1226 399 1147 q 511 1277 494 1261 q 551 1304 528 1293 z "},"Ĕ":{"ha":903,"x_min":39,"x_max":843,"o":"m 39 0 m 833 233 q 843 0 833 92 q 525 4 749 4 q 39 0 200 4 l 39 28 q 103 39 83 30 q 131 71 123 47 q 138 147 138 95 l 138 836 q 130 912 138 888 q 103 945 123 936 q 39 956 83 954 l 39 983 q 525 979 200 979 q 815 983 729 979 q 806 750 806 853 q 810 650 806 686 l 778 650 q 685 881 753 811 q 522 951 617 951 l 504 951 q 449 945 466 951 q 426 921 432 939 q 419 864 419 903 l 419 509 l 433 509 q 523 536 483 509 q 588 606 562 564 q 623 692 614 648 l 654 692 q 649 557 649 610 l 650 494 q 659 297 650 435 l 627 297 q 592 391 618 349 q 525 457 566 433 q 433 481 484 481 l 419 481 l 419 119 q 426 62 419 79 q 449 38 432 44 q 504 32 466 32 l 550 32 q 651 64 600 32 q 743 169 701 96 q 806 361 785 243 l 838 361 q 833 233 833 311 m 762 1263 q 699 1166 742 1212 q 587 1090 656 1120 q 430 1060 519 1060 q 273 1090 341 1060 q 161 1166 204 1120 q 98 1263 118 1212 l 115 1278 q 430 1197 241 1197 q 745 1278 618 1197 l 762 1263 z "},"Ě":{"ha":903,"x_min":39,"x_max":843,"o":"m 39 0 m 833 233 q 843 0 833 92 q 525 4 749 4 q 39 0 200 4 l 39 28 q 103 39 83 30 q 131 71 123 47 q 138 147 138 95 l 138 836 q 130 912 138 888 q 103 945 123 936 q 39 956 83 954 l 39 983 q 525 979 200 979 q 815 983 729 979 q 806 750 806 853 q 810 650 806 686 l 778 650 q 685 881 753 811 q 522 951 617 951 l 504 951 q 449 945 466 951 q 426 921 432 939 q 419 864 419 903 l 419 509 l 433 509 q 523 536 483 509 q 588 606 562 564 q 623 692 614 648 l 654 692 q 649 557 649 610 l 650 494 q 659 297 650 435 l 627 297 q 592 391 618 349 q 525 457 566 433 q 433 481 484 481 l 419 481 l 419 119 q 426 62 419 79 q 449 38 432 44 q 504 32 466 32 l 550 32 q 651 64 600 32 q 743 169 701 96 q 806 361 785 243 l 838 361 q 833 233 833 311 m 754 1293 q 585 1187 665 1251 q 453 1054 505 1122 l 428 1054 q 297 1186 377 1121 q 126 1293 216 1251 l 134 1314 q 321 1276 229 1299 q 468 1229 414 1253 q 591 1276 514 1253 q 747 1314 669 1299 l 754 1293 z "},"Ê":{"ha":903,"x_min":39,"x_max":843,"o":"m 39 0 m 833 233 q 843 0 833 92 q 525 4 749 4 q 39 0 200 4 l 39 28 q 103 39 83 30 q 131 71 123 47 q 138 147 138 95 l 138 836 q 130 912 138 888 q 103 945 123 936 q 39 956 83 954 l 39 983 q 525 979 200 979 q 815 983 729 979 q 806 750 806 853 q 810 650 806 686 l 778 650 q 685 881 753 811 q 522 951 617 951 l 504 951 q 449 945 466 951 q 426 921 432 939 q 419 864 419 903 l 419 509 l 433 509 q 523 536 483 509 q 588 606 562 564 q 623 692 614 648 l 654 692 q 649 557 649 610 l 650 494 q 659 297 650 435 l 627 297 q 592 391 618 349 q 525 457 566 433 q 433 481 484 481 l 419 481 l 419 119 q 426 62 419 79 q 449 38 432 44 q 504 32 466 32 l 550 32 q 651 64 600 32 q 743 169 701 96 q 806 361 785 243 l 838 361 q 833 233 833 311 m 457 1328 q 587 1197 507 1261 q 758 1089 668 1132 l 751 1068 q 564 1106 656 1083 q 416 1153 471 1130 q 293 1106 370 1130 q 138 1068 216 1083 l 130 1089 q 299 1195 218 1131 q 432 1328 379 1259 l 457 1328 z "},"Ë":{"ha":903,"x_min":39,"x_max":843,"o":"m 39 0 m 833 233 q 843 0 833 92 q 525 4 749 4 q 39 0 200 4 l 39 28 q 103 39 83 30 q 131 71 123 47 q 138 147 138 95 l 138 836 q 130 912 138 888 q 103 945 123 936 q 39 956 83 954 l 39 983 q 525 979 200 979 q 815 983 729 979 q 806 750 806 853 q 810 650 806 686 l 778 650 q 685 881 753 811 q 522 951 617 951 l 504 951 q 449 945 466 951 q 426 921 432 939 q 419 864 419 903 l 419 509 l 433 509 q 523 536 483 509 q 588 606 562 564 q 623 692 614 648 l 654 692 q 649 557 649 610 l 650 494 q 659 297 650 435 l 627 297 q 592 391 618 349 q 525 457 566 433 q 433 481 484 481 l 419 481 l 419 119 q 426 62 419 79 q 449 38 432 44 q 504 32 466 32 l 550 32 q 651 64 600 32 q 743 169 701 96 q 806 361 785 243 l 838 361 q 833 233 833 311 m 265 1300 q 324 1283 296 1300 q 369 1238 352 1266 q 386 1179 386 1211 q 369 1119 386 1147 q 325 1075 353 1091 q 265 1059 296 1059 q 205 1075 233 1059 q 161 1119 177 1091 q 144 1179 144 1146 q 161 1239 144 1211 q 205 1283 177 1267 q 265 1300 233 1300 m 623 1300 q 682 1283 654 1300 q 727 1238 710 1266 q 744 1179 744 1211 q 727 1119 744 1147 q 683 1075 711 1091 q 623 1059 654 1059 q 563 1075 591 1059 q 519 1119 535 1091 q 503 1179 503 1146 q 519 1239 503 1211 q 563 1283 535 1267 q 623 1300 591 1300 z "},"Ė":{"ha":903,"x_min":39,"x_max":843,"o":"m 39 0 m 833 233 q 843 0 833 92 q 525 4 749 4 q 39 0 200 4 l 39 28 q 103 39 83 30 q 131 71 123 47 q 138 147 138 95 l 138 836 q 130 912 138 888 q 103 945 123 936 q 39 956 83 954 l 39 983 q 525 979 200 979 q 815 983 729 979 q 806 750 806 853 q 810 650 806 686 l 778 650 q 685 881 753 811 q 522 951 617 951 l 504 951 q 449 945 466 951 q 426 921 432 939 q 419 864 419 903 l 419 509 l 433 509 q 523 536 483 509 q 588 606 562 564 q 623 692 614 648 l 654 692 q 649 557 649 610 l 650 494 q 659 297 650 435 l 627 297 q 592 391 618 349 q 525 457 566 433 q 433 481 484 481 l 419 481 l 419 119 q 426 62 419 79 q 449 38 432 44 q 504 32 466 32 l 550 32 q 651 64 600 32 q 743 169 701 96 q 806 361 785 243 l 838 361 q 833 233 833 311 m 446 1295 q 547 1264 512 1295 q 583 1175 583 1234 q 547 1086 583 1116 q 446 1055 512 1055 q 343 1086 378 1055 q 308 1175 308 1116 q 343 1264 308 1234 q 446 1295 378 1295 z "},"È":{"ha":903,"x_min":39,"x_max":843,"o":"m 39 0 m 833 233 q 843 0 833 92 q 525 4 749 4 q 39 0 200 4 l 39 28 q 103 39 83 30 q 131 71 123 47 q 138 147 138 95 l 138 836 q 130 912 138 888 q 103 945 123 936 q 39 956 83 954 l 39 983 q 525 979 200 979 q 815 983 729 979 q 806 750 806 853 q 810 650 806 686 l 778 650 q 685 881 753 811 q 522 951 617 951 l 504 951 q 449 945 466 951 q 426 921 432 939 q 419 864 419 903 l 419 509 l 433 509 q 523 536 483 509 q 588 606 562 564 q 623 692 614 648 l 654 692 q 649 557 649 610 l 650 494 q 659 297 650 435 l 627 297 q 592 391 618 349 q 525 457 566 433 q 433 481 484 481 l 419 481 l 419 119 q 426 62 419 79 q 449 38 432 44 q 504 32 466 32 l 550 32 q 651 64 600 32 q 743 169 701 96 q 806 361 785 243 l 838 361 q 833 233 833 311 m 318 1304 q 358 1277 341 1293 q 404 1226 376 1260 q 537 1089 469 1147 l 528 1072 q 342 1114 444 1098 q 277 1126 301 1120 q 232 1143 254 1132 q 193 1178 208 1156 q 179 1225 179 1200 q 187 1261 179 1243 q 224 1300 200 1287 q 275 1314 248 1314 q 318 1304 298 1314 z "},"Ē":{"ha":903,"x_min":39,"x_max":843,"o":"m 39 0 m 833 233 q 843 0 833 92 q 525 4 749 4 q 39 0 200 4 l 39 28 q 103 39 83 30 q 131 71 123 47 q 138 147 138 95 l 138 836 q 130 912 138 888 q 103 945 123 936 q 39 956 83 954 l 39 983 q 525 979 200 979 q 815 983 729 979 q 806 750 806 853 q 810 650 806 686 l 778 650 q 685 881 753 811 q 522 951 617 951 l 504 951 q 449 945 466 951 q 426 921 432 939 q 419 864 419 903 l 419 509 l 433 509 q 523 536 483 509 q 588 606 562 564 q 623 692 614 648 l 654 692 q 649 557 649 610 l 650 494 q 659 297 650 435 l 627 297 q 592 391 618 349 q 525 457 566 433 q 433 481 484 481 l 419 481 l 419 119 q 426 62 419 79 q 449 38 432 44 q 504 32 466 32 l 550 32 q 651 64 600 32 q 743 169 701 96 q 806 361 785 243 l 838 361 q 833 233 833 311 m 144 1137 l 144 1173 l 744 1173 l 744 1137 l 144 1137 z "},"Ę":{"ha":903,"x_min":39,"x_max":846,"o":"m 846 -167 q 756 -239 806 -217 q 633 -261 706 -261 q 531 -236 566 -261 q 496 -163 496 -210 q 569 -63 496 -104 q 774 2 641 -21 q 525 4 691 4 q 39 0 200 4 l 39 28 q 103 39 83 30 q 131 71 123 47 q 138 147 138 95 l 138 836 q 130 912 138 888 q 103 945 123 936 q 39 956 83 954 l 39 983 q 525 979 200 979 q 815 983 729 979 q 806 750 806 853 q 810 650 806 685 l 778 650 q 685 881 753 811 q 522 951 617 951 l 504 951 q 449 945 466 951 q 426 921 432 939 q 419 864 419 903 l 419 509 l 433 509 q 523 536 483 509 q 588 606 562 564 q 623 692 614 648 l 654 692 q 649 557 649 610 l 650 494 q 659 297 650 435 l 627 297 q 592 391 618 349 q 525 457 566 433 q 433 481 484 481 l 419 481 l 419 119 q 426 62 419 79 q 449 38 432 44 q 504 32 466 32 l 550 32 q 651 64 600 32 q 743 169 701 96 q 806 361 785 243 l 838 361 q 833 233 833 311 q 843 0 833 92 l 827 1 q 716 -60 752 -26 q 681 -125 681 -94 q 694 -165 681 -153 q 736 -178 708 -178 q 786 -169 760 -178 q 828 -146 812 -159 l 846 -167 z "},"F":{"ha":844,"x_min":39,"x_max":815,"o":"m 815 983 q 806 750 806 853 q 810 650 806 686 l 778 650 q 675 881 744 810 q 522 951 607 951 l 504 951 q 449 945 466 951 q 426 921 432 939 q 419 864 419 903 l 419 509 l 433 509 q 523 536 483 509 q 588 606 562 564 q 623 692 614 648 l 654 692 q 649 557 649 610 l 650 494 q 659 297 650 435 l 627 297 q 592 391 618 349 q 525 457 566 433 q 433 481 484 481 l 419 481 l 419 161 q 431 76 419 103 q 474 41 443 50 q 574 32 506 32 l 574 0 q 553 1 560 0 q 288 4 393 4 q 106 1 223 4 l 39 0 l 39 28 q 103 39 83 30 q 131 71 123 47 q 138 147 138 95 l 138 836 q 130 912 138 888 q 103 945 123 936 q 39 956 83 954 l 39 983 q 525 979 200 979 q 815 983 729 979 z "},"G":{"ha":1050,"x_min":50,"x_max":1029,"o":"m 589 1003 q 742 979 678 1003 q 859 913 805 956 q 886 900 872 900 q 909 920 901 900 q 921 983 917 940 l 953 983 q 947 636 947 885 l 916 636 q 896 759 909 709 q 857 848 883 809 q 787 918 831 888 q 720 949 759 938 q 644 960 682 960 q 483 889 545 960 q 395 712 421 819 q 370 489 370 606 q 429 127 370 247 q 593 8 488 8 q 661 25 636 8 q 690 94 690 45 l 690 233 q 680 335 690 303 q 640 380 669 368 q 550 395 612 392 l 550 422 q 815 418 637 418 q 1029 422 963 418 l 1029 395 q 992 384 1004 392 q 977 351 981 375 q 972 275 972 328 l 972 0 l 945 0 q 932 54 943 29 q 901 79 921 79 q 807 47 872 79 q 572 -20 669 -20 q 283 40 400 -20 q 109 212 167 99 q 50 484 50 324 q 119 755 50 637 q 310 938 187 873 q 589 1003 432 1003 z "},"Ǵ":{"ha":1050,"x_min":50,"x_max":1029,"o":"m 50 0 m 589 1003 q 742 979 678 1003 q 859 913 805 956 q 886 900 872 900 q 909 920 901 900 q 921 983 917 940 l 953 983 q 947 636 947 885 l 916 636 q 896 759 909 709 q 857 848 883 809 q 787 918 831 888 q 720 949 759 938 q 644 960 682 960 q 483 889 545 960 q 395 712 421 819 q 370 489 370 606 q 429 127 370 247 q 593 8 488 8 q 661 25 636 8 q 690 94 690 45 l 690 233 q 680 335 690 303 q 640 380 669 368 q 550 395 612 392 l 550 422 q 815 418 637 418 q 1029 422 963 418 l 1029 395 q 992 384 1004 392 q 977 351 981 375 q 972 275 972 328 l 972 0 l 945 0 q 932 54 943 29 q 901 79 921 79 q 807 47 872 79 q 572 -20 669 -20 q 283 40 400 -20 q 109 212 167 99 q 50 484 50 324 q 119 755 50 637 q 310 938 187 873 q 589 1003 432 1003 m 667 1304 q 709 1314 686 1314 q 760 1300 736 1314 q 797 1261 784 1287 q 805 1225 805 1243 q 791 1177 805 1200 q 753 1143 777 1155 q 707 1126 731 1132 q 642 1114 684 1120 q 456 1072 538 1097 l 447 1089 q 581 1226 515 1147 q 627 1277 610 1261 q 667 1304 644 1293 z "},"Ğ":{"ha":1050,"x_min":50,"x_max":1029,"o":"m 50 0 m 589 1003 q 742 979 678 1003 q 859 913 805 956 q 886 900 872 900 q 909 920 901 900 q 921 983 917 940 l 953 983 q 947 636 947 885 l 916 636 q 896 759 909 709 q 857 848 883 809 q 787 918 831 888 q 720 949 759 938 q 644 960 682 960 q 483 889 545 960 q 395 712 421 819 q 370 489 370 606 q 429 127 370 247 q 593 8 488 8 q 661 25 636 8 q 690 94 690 45 l 690 233 q 680 335 690 303 q 640 380 669 368 q 550 395 612 392 l 550 422 q 815 418 637 418 q 1029 422 963 418 l 1029 395 q 992 384 1004 392 q 977 351 981 375 q 972 275 972 328 l 972 0 l 945 0 q 932 54 943 29 q 901 79 921 79 q 807 47 872 79 q 572 -20 669 -20 q 283 40 400 -20 q 109 212 167 99 q 50 484 50 324 q 119 755 50 637 q 310 938 187 873 q 589 1003 432 1003 m 878 1263 q 814 1166 857 1212 q 703 1090 771 1120 q 545 1060 634 1060 q 388 1090 456 1060 q 276 1166 319 1120 q 214 1263 233 1212 l 230 1278 q 545 1197 357 1197 q 861 1278 734 1197 l 878 1263 z "},"Ĝ":{"ha":1050,"x_min":50,"x_max":1029,"o":"m 50 0 m 589 1003 q 742 979 678 1003 q 859 913 805 956 q 886 900 872 900 q 909 920 901 900 q 921 983 917 940 l 953 983 q 947 636 947 885 l 916 636 q 896 759 909 709 q 857 848 883 809 q 787 918 831 888 q 720 949 759 938 q 644 960 682 960 q 483 889 545 960 q 395 712 421 819 q 370 489 370 606 q 429 127 370 247 q 593 8 488 8 q 661 25 636 8 q 690 94 690 45 l 690 233 q 680 335 690 303 q 640 380 669 368 q 550 395 612 392 l 550 422 q 815 418 637 418 q 1029 422 963 418 l 1029 395 q 992 384 1004 392 q 977 351 981 375 q 972 275 972 328 l 972 0 l 945 0 q 932 54 943 29 q 901 79 921 79 q 807 47 872 79 q 572 -20 669 -20 q 283 40 400 -20 q 109 212 167 99 q 50 484 50 324 q 119 755 50 637 q 310 938 187 873 q 589 1003 432 1003 m 572 1328 q 703 1197 622 1261 q 873 1089 783 1132 l 867 1068 q 679 1106 772 1083 q 532 1153 587 1130 q 408 1106 486 1130 q 253 1068 331 1083 l 245 1089 q 414 1195 334 1131 q 547 1328 494 1259 l 572 1328 z "},"Ģ":{"ha":1050,"x_min":50,"x_max":1029,"o":"m 50 0 m 589 1003 q 742 979 678 1003 q 859 913 805 956 q 886 900 872 900 q 909 920 901 900 q 921 983 917 940 l 953 983 q 947 636 947 885 l 916 636 q 896 759 909 709 q 857 848 883 809 q 787 918 831 888 q 720 949 759 938 q 644 960 682 960 q 483 889 545 960 q 395 712 421 819 q 370 489 370 606 q 429 127 370 247 q 593 8 488 8 q 661 25 636 8 q 690 94 690 45 l 690 233 q 680 335 690 303 q 640 380 669 368 q 550 395 612 392 l 550 422 q 815 418 637 418 q 1029 422 963 418 l 1029 395 q 992 384 1004 392 q 977 351 981 375 q 972 275 972 328 l 972 0 l 945 0 q 932 54 943 29 q 901 79 921 79 q 807 47 872 79 q 572 -20 669 -20 q 283 40 400 -20 q 109 212 167 99 q 50 484 50 324 q 119 755 50 637 q 310 938 187 873 q 589 1003 432 1003 m 581 -64 q 674 -93 640 -64 q 709 -178 709 -123 q 661 -294 709 -250 q 522 -340 612 -338 l 519 -310 q 609 -287 580 -302 q 647 -240 639 -271 q 574 -261 625 -261 q 487 -237 517 -261 q 457 -165 457 -213 q 489 -90 457 -116 q 581 -64 520 -64 z "},"Ġ":{"ha":1050,"x_min":50,"x_max":1029,"o":"m 50 0 m 589 1003 q 742 979 678 1003 q 859 913 805 956 q 886 900 872 900 q 909 920 901 900 q 921 983 917 940 l 953 983 q 947 636 947 885 l 916 636 q 896 759 909 709 q 857 848 883 809 q 787 918 831 888 q 720 949 759 938 q 644 960 682 960 q 483 889 545 960 q 395 712 421 819 q 370 489 370 606 q 429 127 370 247 q 593 8 488 8 q 661 25 636 8 q 690 94 690 45 l 690 233 q 680 335 690 303 q 640 380 669 368 q 550 395 612 392 l 550 422 q 815 418 637 418 q 1029 422 963 418 l 1029 395 q 992 384 1004 392 q 977 351 981 375 q 972 275 972 328 l 972 0 l 945 0 q 932 54 943 29 q 901 79 921 79 q 807 47 872 79 q 572 -20 669 -20 q 283 40 400 -20 q 109 212 167 99 q 50 484 50 324 q 119 755 50 637 q 310 938 187 873 q 589 1003 432 1003 m 579 1295 q 681 1264 646 1295 q 716 1175 716 1234 q 681 1086 716 1116 q 579 1055 646 1055 q 477 1086 512 1055 q 441 1175 441 1116 q 477 1264 441 1234 q 579 1295 512 1295 z "},"H":{"ha":1152,"x_min":39,"x_max":1112,"o":"m 1112 956 q 1048 945 1067 954 q 1021 912 1028 936 q 1014 836 1014 888 l 1014 147 q 1021 71 1014 95 q 1048 39 1029 47 q 1112 28 1068 30 l 1112 0 q 879 4 1038 4 q 633 0 719 4 l 633 28 q 698 39 678 30 q 725 71 718 47 q 732 147 732 94 l 732 481 l 419 481 l 419 147 q 427 71 419 95 q 454 39 434 47 q 518 28 474 30 l 518 0 q 286 4 437 4 q 39 0 118 4 l 39 28 q 103 39 83 30 q 131 71 123 47 q 138 147 138 95 l 138 836 q 130 912 138 888 q 103 945 123 936 q 39 956 83 954 l 39 983 q 286 979 118 979 q 518 983 437 979 l 518 956 q 453 945 473 954 q 426 912 433 936 q 419 836 419 888 l 419 509 l 732 509 l 732 836 q 725 912 732 888 q 697 945 718 936 q 633 956 677 954 l 633 983 q 879 979 719 979 q 1112 983 1038 979 l 1112 956 z "},"Ħ":{"ha":1152,"x_min":39,"x_max":1112,"o":"m 1112 956 q 1048 945 1067 954 q 1021 912 1028 936 q 1014 836 1014 888 l 1014 741 l 1112 741 l 1112 713 l 1014 713 l 1014 147 q 1021 71 1014 95 q 1048 39 1029 47 q 1112 28 1068 30 l 1112 0 q 879 4 1038 4 q 633 0 719 4 l 633 28 q 698 39 678 30 q 725 71 718 47 q 732 147 732 94 l 732 481 l 419 481 l 419 147 q 427 71 419 95 q 454 39 434 47 q 518 28 474 30 l 518 0 q 286 4 437 4 q 39 0 118 4 l 39 28 q 103 39 83 30 q 131 71 123 47 q 138 147 138 95 l 138 713 l 39 713 l 39 741 l 138 741 l 138 836 q 130 912 138 888 q 103 945 123 936 q 39 956 83 954 l 39 983 q 286 979 118 979 q 518 983 437 979 l 518 956 q 453 945 473 954 q 426 912 433 936 q 419 836 419 888 l 419 741 l 732 741 l 732 836 q 725 912 732 888 q 697 945 718 936 q 633 956 677 954 l 633 983 q 879 979 719 979 q 1112 983 1038 979 l 1112 956 m 419 713 l 419 509 l 732 509 l 732 713 l 419 713 z "},"Ĥ":{"ha":1152,"x_min":39,"x_max":1112,"o":"m 39 0 m 1112 956 q 1048 945 1067 954 q 1021 912 1028 936 q 1014 836 1014 888 l 1014 147 q 1021 71 1014 95 q 1048 39 1029 47 q 1112 28 1068 30 l 1112 0 q 879 4 1038 4 q 633 0 719 4 l 633 28 q 698 39 678 30 q 725 71 718 47 q 732 147 732 94 l 732 481 l 419 481 l 419 147 q 427 71 419 95 q 454 39 434 47 q 518 28 474 30 l 518 0 q 286 4 437 4 q 39 0 118 4 l 39 28 q 103 39 83 30 q 131 71 123 47 q 138 147 138 95 l 138 836 q 130 912 138 888 q 103 945 123 936 q 39 956 83 954 l 39 983 q 286 979 118 979 q 518 983 437 979 l 518 956 q 453 945 473 954 q 426 912 433 936 q 419 836 419 888 l 419 509 l 732 509 l 732 836 q 725 912 732 888 q 697 945 718 936 q 633 956 677 954 l 633 983 q 879 979 719 979 q 1112 983 1038 979 l 1112 956 m 592 1328 q 722 1197 642 1261 q 893 1089 803 1132 l 886 1068 q 699 1106 791 1083 q 551 1153 606 1130 q 428 1106 505 1130 q 273 1068 351 1083 l 265 1089 q 434 1195 353 1131 q 567 1328 514 1259 l 592 1328 z "},"I":{"ha":557,"x_min":39,"x_max":518,"o":"m 518 956 q 453 945 473 954 q 426 912 433 936 q 419 836 419 888 l 419 147 q 427 71 419 95 q 454 39 434 47 q 518 28 474 30 l 518 0 q 286 4 437 4 q 39 0 118 4 l 39 28 q 103 39 83 30 q 131 71 123 47 q 138 147 138 95 l 138 836 q 130 912 138 888 q 103 945 123 936 q 39 956 83 954 l 39 983 q 286 979 118 979 q 518 983 437 979 l 518 956 z "},"Ĳ":{"ha":1108,"x_min":39,"x_max":1078,"o":"m 39 0 m 518 956 q 453 945 473 954 q 426 912 433 936 q 419 836 419 888 l 419 147 q 427 71 419 95 q 454 39 434 47 q 518 28 474 30 l 518 0 q 286 4 437 4 q 39 0 118 4 l 39 28 q 103 39 83 30 q 131 71 123 47 q 138 147 138 95 l 138 836 q 130 912 138 888 q 103 945 123 936 q 39 956 83 954 l 39 983 q 286 979 118 979 q 518 983 437 979 l 518 956 m 1078 956 q 1014 945 1034 954 q 986 912 994 936 q 979 836 979 888 l 979 328 l 980 214 q 956 -35 980 43 q 881 -151 935 -100 q 747 -232 828 -202 q 566 -261 666 -261 q 410 -235 464 -261 q 340 -131 340 -200 q 378 -53 340 -82 q 477 -24 415 -24 q 568 -50 535 -24 q 602 -126 602 -76 q 582 -187 602 -159 q 521 -231 562 -216 q 546 -232 530 -232 q 622 -207 590 -232 q 669 -144 654 -182 q 689 -63 683 -105 q 696 33 695 -21 q 698 201 698 87 l 698 836 q 690 912 698 888 q 663 945 683 936 q 599 956 643 954 l 599 983 q 832 979 674 979 q 1078 983 993 979 l 1078 956 z "},"Í":{"ha":557,"x_min":39,"x_max":532,"o":"m 39 0 m 518 956 q 453 945 473 954 q 426 912 433 936 q 419 836 419 888 l 419 147 q 427 71 419 95 q 454 39 434 47 q 518 28 474 30 l 518 0 q 286 4 437 4 q 39 0 118 4 l 39 28 q 103 39 83 30 q 131 71 123 47 q 138 147 138 95 l 138 836 q 130 912 138 888 q 103 945 123 936 q 39 956 83 954 l 39 983 q 286 979 118 979 q 518 983 437 979 l 518 956 m 393 1304 q 436 1314 412 1314 q 487 1300 463 1314 q 524 1261 511 1287 q 532 1225 532 1243 q 518 1177 532 1200 q 479 1143 504 1155 q 434 1126 458 1132 q 369 1114 410 1120 q 183 1072 264 1097 l 174 1089 q 307 1226 241 1147 q 353 1277 336 1261 q 393 1304 370 1293 z "},"Ĭ":{"ha":557,"x_min":-60,"x_max":604,"o":"m 0 0 m 518 956 q 453 945 473 954 q 426 912 433 936 q 419 836 419 888 l 419 147 q 427 71 419 95 q 454 39 434 47 q 518 28 474 30 l 518 0 q 286 4 437 4 q 39 0 118 4 l 39 28 q 103 39 83 30 q 131 71 123 47 q 138 147 138 95 l 138 836 q 130 912 138 888 q 103 945 123 936 q 39 956 83 954 l 39 983 q 286 979 118 979 q 518 983 437 979 l 518 956 m 604 1263 q 541 1166 584 1212 q 429 1090 498 1120 q 272 1060 361 1060 q 115 1090 183 1060 q 3 1166 46 1120 q -60 1263 -40 1212 l -43 1278 q 272 1197 83 1197 q 587 1278 460 1197 l 604 1263 z "},"Î":{"ha":557,"x_min":-28,"x_max":600,"o":"m 0 0 m 518 956 q 453 945 473 954 q 426 912 433 936 q 419 836 419 888 l 419 147 q 427 71 419 95 q 454 39 434 47 q 518 28 474 30 l 518 0 q 286 4 437 4 q 39 0 118 4 l 39 28 q 103 39 83 30 q 131 71 123 47 q 138 147 138 95 l 138 836 q 130 912 138 888 q 103 945 123 936 q 39 956 83 954 l 39 983 q 286 979 118 979 q 518 983 437 979 l 518 956 m 299 1328 q 429 1197 349 1261 q 600 1089 510 1132 l 593 1068 q 406 1106 498 1083 q 258 1153 313 1130 q 135 1106 212 1130 q -20 1068 58 1083 l -28 1089 q 141 1195 60 1131 q 274 1328 221 1259 l 299 1328 z "},"Ï":{"ha":557,"x_min":-14,"x_max":586,"o":"m 0 0 m 518 956 q 453 945 473 954 q 426 912 433 936 q 419 836 419 888 l 419 147 q 427 71 419 95 q 454 39 434 47 q 518 28 474 30 l 518 0 q 286 4 437 4 q 39 0 118 4 l 39 28 q 103 39 83 30 q 131 71 123 47 q 138 147 138 95 l 138 836 q 130 912 138 888 q 103 945 123 936 q 39 956 83 954 l 39 983 q 286 979 118 979 q 518 983 437 979 l 518 956 m 107 1300 q 166 1283 138 1300 q 211 1238 194 1266 q 228 1179 228 1211 q 211 1119 228 1147 q 166 1075 195 1091 q 107 1059 138 1059 q 47 1075 75 1059 q 3 1119 19 1091 q -14 1179 -14 1146 q 3 1239 -14 1211 q 47 1283 19 1267 q 107 1300 75 1300 m 465 1300 q 524 1283 496 1300 q 569 1238 552 1266 q 586 1179 586 1211 q 569 1119 586 1147 q 525 1075 553 1091 q 465 1059 496 1059 q 405 1075 433 1059 q 361 1119 377 1091 q 345 1179 345 1146 q 361 1239 345 1211 q 405 1283 377 1267 q 465 1300 433 1300 z "},"İ":{"ha":557,"x_min":39,"x_max":518,"o":"m 39 0 m 518 956 q 453 945 473 954 q 426 912 433 936 q 419 836 419 888 l 419 147 q 427 71 419 95 q 454 39 434 47 q 518 28 474 30 l 518 0 q 286 4 437 4 q 39 0 118 4 l 39 28 q 103 39 83 30 q 131 71 123 47 q 138 147 138 95 l 138 836 q 130 912 138 888 q 103 945 123 936 q 39 956 83 954 l 39 983 q 286 979 118 979 q 518 983 437 979 l 518 956 m 286 1356 q 398 1325 359 1356 q 437 1236 437 1295 q 398 1147 437 1177 q 286 1116 359 1116 q 174 1146 212 1116 q 135 1236 135 1177 q 174 1325 135 1295 q 286 1356 212 1356 z "},"Ì":{"ha":557,"x_min":21,"x_max":518,"o":"m 21 0 m 518 956 q 453 945 473 954 q 426 912 433 936 q 419 836 419 888 l 419 147 q 427 71 419 95 q 454 39 434 47 q 518 28 474 30 l 518 0 q 286 4 437 4 q 39 0 118 4 l 39 28 q 103 39 83 30 q 131 71 123 47 q 138 147 138 95 l 138 836 q 130 912 138 888 q 103 945 123 936 q 39 956 83 954 l 39 983 q 286 979 118 979 q 518 983 437 979 l 518 956 m 160 1304 q 200 1277 183 1293 q 245 1226 218 1260 q 379 1089 311 1147 l 370 1072 q 184 1114 286 1098 q 119 1126 143 1120 q 74 1143 96 1132 q 35 1178 50 1156 q 21 1225 21 1200 q 29 1261 21 1243 q 66 1300 42 1287 q 117 1314 90 1314 q 160 1304 140 1314 z "},"Ī":{"ha":557,"x_min":-14,"x_max":586,"o":"m 0 0 m 518 956 q 453 945 473 954 q 426 912 433 936 q 419 836 419 888 l 419 147 q 427 71 419 95 q 454 39 434 47 q 518 28 474 30 l 518 0 q 286 4 437 4 q 39 0 118 4 l 39 28 q 103 39 83 30 q 131 71 123 47 q 138 147 138 95 l 138 836 q 130 912 138 888 q 103 945 123 936 q 39 956 83 954 l 39 983 q 286 979 118 979 q 518 983 437 979 l 518 956 m -14 1137 l -14 1173 l 586 1173 l 586 1137 l -14 1137 z "},"Į":{"ha":557,"x_min":39,"x_max":518,"o":"m 518 956 q 453 945 473 954 q 426 912 433 936 q 419 836 419 888 l 419 147 q 427 71 419 95 q 454 39 434 47 q 518 28 474 30 l 518 0 l 484 1 q 371 -59 408 -25 q 335 -125 335 -93 q 349 -165 335 -153 q 391 -178 362 -178 q 440 -169 414 -178 q 482 -146 467 -159 l 500 -167 q 410 -239 460 -217 q 288 -261 360 -261 q 185 -236 220 -261 q 151 -163 151 -210 q 224 -62 151 -104 q 431 3 297 -20 q 286 4 342 4 q 39 0 118 4 l 39 28 q 103 39 83 30 q 131 71 123 47 q 138 147 138 95 l 138 836 q 130 912 138 888 q 103 945 123 936 q 39 956 83 954 l 39 983 q 286 979 118 979 q 518 983 437 979 l 518 956 z "},"Ĩ":{"ha":557,"x_min":-50,"x_max":618,"o":"m 0 0 m 518 956 q 453 945 473 954 q 426 912 433 936 q 419 836 419 888 l 419 147 q 427 71 419 95 q 454 39 434 47 q 518 28 474 30 l 518 0 q 286 4 437 4 q 39 0 118 4 l 39 28 q 103 39 83 30 q 131 71 123 47 q 138 147 138 95 l 138 836 q 130 912 138 888 q 103 945 123 936 q 39 956 83 954 l 39 983 q 286 979 118 979 q 518 983 437 979 l 518 956 m 157 1303 q 247 1290 210 1303 q 328 1253 284 1278 q 397 1222 368 1232 q 465 1211 427 1211 q 599 1284 543 1211 l 618 1275 q 537 1115 592 1167 q 413 1063 482 1063 q 323 1076 360 1063 q 240 1113 286 1088 q 172 1145 201 1135 q 104 1156 142 1156 q -31 1080 27 1156 l -50 1090 q 32 1251 -23 1198 q 157 1303 87 1303 z "},"J":{"ha":542,"x_min":-227,"x_max":511,"o":"m 511 956 q 447 945 467 954 q 419 912 427 936 q 412 836 412 888 l 412 328 l 413 214 q 389 -35 413 43 q 314 -151 368 -100 q 180 -232 261 -202 q -1 -261 99 -261 q -157 -235 -103 -261 q -227 -131 -227 -200 q -189 -53 -227 -82 q -90 -24 -152 -24 q 1 -50 -32 -24 q 35 -126 35 -76 q 15 -187 35 -159 q -46 -231 -5 -216 q -21 -232 -37 -232 q 55 -207 23 -232 q 102 -144 87 -182 q 122 -63 116 -105 q 130 33 128 -21 q 131 201 131 87 l 131 836 q 123 912 131 888 q 96 945 116 936 q 32 956 76 954 l 32 983 q 265 979 107 979 q 511 983 426 979 l 511 956 z "},"Ĵ":{"ha":542,"x_min":-227,"x_max":579,"o":"m 0 0 m 511 956 q 447 945 467 954 q 419 912 427 936 q 412 836 412 888 l 412 328 l 413 214 q 389 -35 413 43 q 314 -151 368 -100 q 180 -232 261 -202 q -1 -261 99 -261 q -157 -235 -103 -261 q -227 -131 -227 -200 q -189 -53 -227 -82 q -90 -24 -152 -24 q 1 -50 -32 -24 q 35 -126 35 -76 q 15 -187 35 -159 q -46 -231 -5 -216 q -21 -232 -37 -232 q 55 -207 23 -232 q 102 -144 87 -182 q 122 -63 116 -105 q 130 33 128 -21 q 131 201 131 87 l 131 836 q 123 912 131 888 q 96 945 116 936 q 32 956 76 954 l 32 983 q 265 979 107 979 q 511 983 426 979 l 511 956 m 278 1328 q 408 1197 328 1261 q 579 1089 489 1132 l 572 1068 q 385 1106 477 1083 q 237 1153 292 1130 q 114 1106 191 1130 q -41 1068 37 1083 l -49 1089 q 120 1195 39 1131 q 253 1328 200 1259 l 278 1328 z "},"K":{"ha":1047,"x_min":39,"x_max":1069,"o":"m 985 113 q 1022 62 1004 81 q 1069 28 1040 43 l 1069 0 q 819 4 952 4 q 621 0 717 4 l 621 28 q 683 36 665 30 q 701 54 701 41 q 686 90 701 65 l 485 431 q 452 477 465 465 q 419 492 439 490 l 419 147 q 427 71 419 95 q 454 39 434 47 q 518 28 474 30 l 518 0 q 286 4 437 4 q 39 0 118 4 l 39 28 q 103 39 83 30 q 131 71 123 47 q 138 147 138 95 l 138 836 q 130 912 138 888 q 103 945 123 936 q 39 956 83 954 l 39 983 q 286 979 118 979 q 518 983 437 979 l 518 956 q 453 945 473 954 q 426 912 433 936 q 419 836 419 888 l 419 523 q 527 564 475 527 q 657 688 580 602 l 704 741 q 766 865 766 810 q 734 930 766 906 q 652 957 702 955 l 652 983 q 886 979 768 979 q 1026 983 970 979 l 1026 957 q 799 804 905 924 l 663 650 l 985 113 z "},"Ķ":{"ha":1047,"x_min":39,"x_max":1069,"o":"m 39 0 m 985 113 q 1022 62 1004 81 q 1069 28 1040 43 l 1069 0 q 819 4 952 4 q 621 0 717 4 l 621 28 q 683 36 665 30 q 701 54 701 41 q 686 90 701 65 l 485 431 q 452 477 465 465 q 419 492 439 490 l 419 147 q 427 71 419 95 q 454 39 434 47 q 518 28 474 30 l 518 0 q 286 4 437 4 q 39 0 118 4 l 39 28 q 103 39 83 30 q 131 71 123 47 q 138 147 138 95 l 138 836 q 130 912 138 888 q 103 945 123 936 q 39 956 83 954 l 39 983 q 286 979 118 979 q 518 983 437 979 l 518 956 q 453 945 473 954 q 426 912 433 936 q 419 836 419 888 l 419 523 q 527 564 475 527 q 657 688 580 602 l 704 741 q 766 865 766 810 q 734 930 766 906 q 652 957 702 955 l 652 983 q 886 979 768 979 q 1026 983 970 979 l 1026 957 q 799 804 905 924 l 663 650 l 985 113 m 599 -64 q 693 -93 658 -64 q 728 -178 728 -123 q 679 -294 728 -250 q 541 -340 631 -338 l 538 -310 q 628 -287 598 -302 q 665 -240 657 -271 q 592 -261 643 -261 q 506 -237 536 -261 q 475 -165 475 -213 q 507 -90 475 -116 q 599 -64 538 -64 z "},"L":{"ha":869,"x_min":39,"x_max":843,"o":"m 532 956 q 459 945 481 954 q 428 912 436 936 q 419 836 419 888 l 419 119 q 425 62 419 80 q 444 38 430 44 q 490 32 458 32 l 536 32 q 642 81 585 32 q 745 209 699 130 q 806 375 790 289 l 838 375 q 833 248 833 326 q 843 0 833 97 q 525 4 749 4 q 39 0 200 4 l 39 28 q 103 39 83 30 q 131 71 123 47 q 138 147 138 95 l 138 836 q 130 912 138 888 q 103 945 123 936 q 39 956 83 954 l 39 983 q 286 979 118 979 q 532 983 446 979 l 532 956 z "},"Ĺ":{"ha":869,"x_min":39,"x_max":843,"o":"m 39 0 m 532 956 q 459 945 481 954 q 428 912 436 936 q 419 836 419 888 l 419 119 q 425 62 419 80 q 444 38 430 44 q 490 32 458 32 l 536 32 q 642 81 585 32 q 745 209 699 130 q 806 375 790 289 l 838 375 q 833 248 833 326 q 843 0 833 97 q 525 4 749 4 q 39 0 200 4 l 39 28 q 103 39 83 30 q 131 71 123 47 q 138 147 138 95 l 138 836 q 130 912 138 888 q 103 945 123 936 q 39 956 83 954 l 39 983 q 286 979 118 979 q 532 983 446 979 l 532 956 m 393 1304 q 436 1314 412 1314 q 487 1300 463 1314 q 524 1261 511 1287 q 532 1225 532 1243 q 518 1177 532 1200 q 479 1143 504 1155 q 434 1126 458 1132 q 369 1114 410 1120 q 183 1072 264 1097 l 174 1089 q 307 1226 241 1147 q 353 1277 336 1261 q 393 1304 370 1293 z "},"Ľ":{"ha":869,"x_min":39,"x_max":843,"o":"m 39 0 m 532 956 q 459 945 481 954 q 428 912 436 936 q 419 836 419 888 l 419 119 q 425 62 419 80 q 444 38 430 44 q 490 32 458 32 l 536 32 q 642 81 585 32 q 745 209 699 130 q 806 375 790 289 l 838 375 q 833 248 833 326 q 843 0 833 97 q 525 4 749 4 q 39 0 200 4 l 39 28 q 103 39 83 30 q 131 71 123 47 q 138 147 138 95 l 138 836 q 130 912 138 888 q 103 945 123 936 q 39 956 83 954 l 39 983 q 286 979 118 979 q 532 983 446 979 l 532 956 m 797 991 q 804 942 804 976 q 783 878 804 914 q 728 799 762 842 q 626 678 694 757 l 614 664 l 594 669 q 622 899 622 846 q 613 941 622 928 q 581 954 605 954 l 581 983 q 665 981 624 981 q 797 991 730 981 z "},"Ļ":{"ha":869,"x_min":39,"x_max":843,"o":"m 39 0 m 532 956 q 459 945 481 954 q 428 912 436 936 q 419 836 419 888 l 419 119 q 425 62 419 80 q 444 38 430 44 q 490 32 458 32 l 536 32 q 642 81 585 32 q 745 209 699 130 q 806 375 790 289 l 838 375 q 833 248 833 326 q 843 0 833 97 q 525 4 749 4 q 39 0 200 4 l 39 28 q 103 39 83 30 q 131 71 123 47 q 138 147 138 95 l 138 836 q 130 912 138 888 q 103 945 123 936 q 39 956 83 954 l 39 983 q 286 979 118 979 q 532 983 446 979 l 532 956 m 510 -64 q 604 -93 569 -64 q 639 -178 639 -123 q 590 -294 639 -250 q 452 -340 542 -338 l 449 -310 q 539 -287 509 -302 q 576 -240 568 -271 q 503 -261 554 -261 q 417 -237 447 -261 q 387 -165 387 -213 q 418 -90 387 -116 q 510 -64 450 -64 z "},"Ŀ":{"ha":949,"x_min":39,"x_max":922,"o":"m 39 0 m 532 956 q 459 945 481 954 q 428 912 436 936 q 419 836 419 888 l 419 119 q 425 62 419 80 q 444 38 430 44 q 490 32 458 32 l 536 32 q 642 81 585 32 q 745 209 699 130 q 806 375 790 289 l 838 375 q 833 248 833 326 q 843 0 833 97 q 525 4 749 4 q 39 0 200 4 l 39 28 q 103 39 83 30 q 131 71 123 47 q 138 147 138 95 l 138 836 q 130 912 138 888 q 103 945 123 936 q 39 956 83 954 l 39 983 q 286 979 118 979 q 532 983 446 979 l 532 956 m 785 645 q 887 614 851 645 q 922 525 922 584 q 887 436 922 467 q 785 406 851 406 q 682 436 718 406 q 647 525 647 466 q 682 614 647 584 q 785 645 718 645 z "},"Ł":{"ha":869,"x_min":39,"x_max":843,"o":"m 833 248 q 843 0 833 97 q 525 4 749 4 q 39 0 200 4 l 39 28 q 103 39 83 30 q 131 71 123 47 q 138 147 138 95 l 138 338 l 39 281 l 39 313 l 138 370 l 138 836 q 130 912 138 888 q 103 945 123 936 q 39 956 83 954 l 39 983 q 286 979 118 979 q 532 983 446 979 l 532 956 q 459 945 481 954 q 428 912 436 936 q 419 836 419 888 l 419 519 l 657 657 l 657 625 l 419 487 l 419 119 q 425 62 419 80 q 444 38 430 44 q 490 32 458 32 l 536 32 q 642 81 585 32 q 745 209 699 130 q 806 375 790 289 l 838 375 q 833 248 833 326 z "},"M":{"ha":1340,"x_min":41,"x_max":1301,"o":"m 1301 956 q 1237 945 1257 954 q 1210 912 1217 936 q 1203 836 1203 889 l 1203 147 q 1210 71 1203 95 q 1237 39 1217 47 q 1301 28 1257 30 l 1301 0 q 1055 4 1216 4 q 808 0 888 4 l 808 28 q 881 39 859 30 q 912 71 904 47 q 921 147 921 95 l 921 859 l 586 1 l 564 1 l 172 893 l 172 272 q 180 125 172 170 q 217 59 189 80 q 313 28 245 37 l 313 0 q 157 4 257 4 q 41 0 83 4 l 41 28 q 105 58 85 37 q 133 120 126 78 q 140 244 140 161 l 140 836 q 133 912 140 888 q 105 945 125 936 q 41 956 85 954 l 41 983 q 157 979 83 979 q 444 983 324 979 l 707 393 l 935 979 l 1055 979 q 1301 983 1216 979 l 1301 956 z "},"N":{"ha":1017,"x_min":41,"x_max":983,"o":"m 983 956 q 920 926 940 946 q 892 864 899 905 q 885 739 885 822 l 885 0 q 840 2 865 2 q 787 0 815 2 l 172 672 l 172 272 q 180 125 172 170 q 217 59 189 80 q 313 28 245 37 l 313 0 q 157 4 257 4 q 41 0 83 4 l 41 28 q 105 58 85 37 q 133 120 126 78 q 140 244 140 161 l 140 836 q 133 912 140 888 q 105 945 125 936 q 41 956 85 954 l 41 983 q 157 979 83 979 q 285 983 233 979 l 852 383 l 852 711 q 844 859 852 814 q 808 925 836 903 q 713 956 780 946 l 713 983 q 868 979 769 979 q 983 983 942 979 l 983 956 z "},"Ń":{"ha":1017,"x_min":41,"x_max":983,"o":"m 41 0 m 983 956 q 920 926 940 946 q 892 864 899 905 q 885 739 885 822 l 885 0 q 840 2 865 2 q 787 0 815 2 l 172 672 l 172 272 q 180 125 172 170 q 217 59 189 80 q 313 28 245 37 l 313 0 q 157 4 257 4 q 41 0 83 4 l 41 28 q 105 58 85 37 q 133 120 126 78 q 140 244 140 161 l 140 836 q 133 912 140 888 q 105 945 125 936 q 41 956 85 954 l 41 983 q 157 979 83 979 q 285 983 233 979 l 852 383 l 852 711 q 844 859 852 814 q 808 925 836 903 q 713 956 780 946 l 713 983 q 868 979 769 979 q 983 983 942 979 l 983 956 m 637 1304 q 680 1314 656 1314 q 731 1300 707 1314 q 768 1261 755 1287 q 776 1225 776 1243 q 762 1177 776 1200 q 724 1143 748 1155 q 678 1126 702 1132 q 613 1114 654 1120 q 427 1072 509 1097 l 418 1089 q 551 1226 486 1147 q 597 1277 581 1261 q 637 1304 614 1293 z "},"Ň":{"ha":1017,"x_min":41,"x_max":983,"o":"m 41 0 m 983 956 q 920 926 940 946 q 892 864 899 905 q 885 739 885 822 l 885 0 q 840 2 865 2 q 787 0 815 2 l 172 672 l 172 272 q 180 125 172 170 q 217 59 189 80 q 313 28 245 37 l 313 0 q 157 4 257 4 q 41 0 83 4 l 41 28 q 105 58 85 37 q 133 120 126 78 q 140 244 140 161 l 140 836 q 133 912 140 888 q 105 945 125 936 q 41 956 85 954 l 41 983 q 157 979 83 979 q 285 983 233 979 l 852 383 l 852 711 q 844 859 852 814 q 808 925 836 903 q 713 956 780 946 l 713 983 q 868 979 769 979 q 983 983 942 979 l 983 956 m 840 1293 q 671 1187 751 1251 q 539 1054 591 1122 l 514 1054 q 383 1186 463 1121 q 212 1293 302 1251 l 220 1314 q 407 1276 315 1299 q 554 1229 500 1253 q 677 1276 600 1253 q 833 1314 755 1299 l 840 1293 z "},"Ņ":{"ha":1017,"x_min":41,"x_max":983,"o":"m 41 0 m 983 956 q 920 926 940 946 q 892 864 899 905 q 885 739 885 822 l 885 0 q 840 2 865 2 q 787 0 815 2 l 172 672 l 172 272 q 180 125 172 170 q 217 59 189 80 q 313 28 245 37 l 313 0 q 157 4 257 4 q 41 0 83 4 l 41 28 q 105 58 85 37 q 133 120 126 78 q 140 244 140 161 l 140 836 q 133 912 140 888 q 105 945 125 936 q 41 956 85 954 l 41 983 q 157 979 83 979 q 285 983 233 979 l 852 383 l 852 711 q 844 859 852 814 q 808 925 836 903 q 713 956 780 946 l 713 983 q 868 979 769 979 q 983 983 942 979 l 983 956 m 519 -64 q 613 -93 578 -64 q 648 -178 648 -123 q 600 -294 648 -250 q 461 -340 551 -338 l 458 -310 q 548 -287 519 -302 q 586 -240 578 -271 q 513 -261 564 -261 q 426 -237 456 -261 q 396 -165 396 -213 q 428 -90 396 -116 q 519 -64 459 -64 z "},"Ŋ":{"ha":1013,"x_min":39,"x_max":981,"o":"m 865 979 q 981 983 939 979 l 981 956 q 917 945 937 954 q 889 912 897 936 q 882 836 882 888 l 882 64 q 859 -136 882 -66 q 792 -234 836 -207 q 677 -261 748 -261 q 544 -229 594 -261 q 493 -134 493 -197 q 530 -53 493 -82 q 629 -24 567 -24 q 721 -50 687 -24 q 754 -123 754 -76 q 734 -188 754 -159 q 673 -232 714 -217 q 699 -233 682 -233 q 808 -177 772 -233 q 849 2 844 -121 q 785 0 820 3 l 170 672 l 170 147 q 178 71 170 95 q 209 39 186 47 q 282 28 232 30 l 282 0 q 154 4 232 4 q 39 0 81 4 l 39 28 q 103 39 83 30 q 130 71 123 47 q 138 147 138 95 l 138 836 q 130 912 138 888 q 103 945 123 936 q 39 956 83 954 l 39 983 q 154 979 80 979 q 282 983 230 979 l 850 383 l 850 836 q 841 912 850 888 q 810 945 833 936 q 737 956 787 954 l 737 983 q 865 979 788 979 z "},"Ñ":{"ha":1017,"x_min":41,"x_max":983,"o":"m 41 0 m 983 956 q 920 926 940 946 q 892 864 899 905 q 885 739 885 822 l 885 0 q 840 2 865 2 q 787 0 815 2 l 172 672 l 172 272 q 180 125 172 170 q 217 59 189 80 q 313 28 245 37 l 313 0 q 157 4 257 4 q 41 0 83 4 l 41 28 q 105 58 85 37 q 133 120 126 78 q 140 244 140 161 l 140 836 q 133 912 140 888 q 105 945 125 936 q 41 956 85 954 l 41 983 q 157 979 83 979 q 285 983 233 979 l 852 383 l 852 711 q 844 859 852 814 q 808 925 836 903 q 713 956 780 946 l 713 983 q 868 979 769 979 q 983 983 942 979 l 983 956 m 401 1303 q 491 1290 454 1303 q 572 1253 528 1278 q 642 1222 612 1232 q 709 1211 671 1211 q 843 1284 787 1211 l 863 1275 q 781 1115 836 1167 q 657 1063 726 1063 q 567 1076 604 1063 q 484 1113 530 1088 q 416 1145 446 1135 q 349 1156 387 1156 q 214 1080 271 1156 l 195 1090 q 276 1251 221 1198 q 401 1303 332 1303 z "},"O":{"ha":1149,"x_min":50,"x_max":1099,"o":"m 575 1003 q 850 943 732 1003 q 1034 770 968 884 q 1099 500 1099 656 q 1032 229 1099 347 q 846 45 965 111 q 574 -20 726 -20 q 298 40 416 -20 q 115 213 180 100 q 50 484 50 327 q 117 755 50 637 q 303 938 184 873 q 575 1003 422 1003 m 570 978 q 450 916 501 978 q 370 743 398 854 q 342 489 342 632 q 374 235 342 345 q 460 65 406 125 q 579 5 514 5 q 699 67 648 5 q 779 240 751 130 q 807 494 807 351 q 775 748 807 638 q 689 918 743 859 q 570 978 635 978 z "},"Ó":{"ha":1149,"x_min":50,"x_max":1099,"o":"m 50 0 m 575 1003 q 850 943 732 1003 q 1034 770 968 884 q 1099 500 1099 656 q 1032 229 1099 347 q 846 45 965 111 q 574 -20 726 -20 q 298 40 416 -20 q 115 213 180 100 q 50 484 50 327 q 117 755 50 637 q 303 938 184 873 q 575 1003 422 1003 m 570 978 q 450 916 501 978 q 370 743 398 854 q 342 489 342 632 q 374 235 342 345 q 460 65 406 125 q 579 5 514 5 q 699 67 648 5 q 779 240 751 130 q 807 494 807 351 q 775 748 807 638 q 689 918 743 859 q 570 978 635 978 m 680 1304 q 722 1314 699 1314 q 773 1300 749 1314 q 810 1261 797 1287 q 818 1225 818 1243 q 804 1177 818 1200 q 766 1143 790 1155 q 720 1126 744 1132 q 655 1114 696 1120 q 469 1072 551 1097 l 460 1089 q 593 1226 528 1147 q 640 1277 623 1261 q 680 1304 656 1293 z "},"Ŏ":{"ha":1149,"x_min":50,"x_max":1099,"o":"m 50 0 m 575 1003 q 850 943 732 1003 q 1034 770 968 884 q 1099 500 1099 656 q 1032 229 1099 347 q 846 45 965 111 q 574 -20 726 -20 q 298 40 416 -20 q 115 213 180 100 q 50 484 50 327 q 117 755 50 637 q 303 938 184 873 q 575 1003 422 1003 m 570 978 q 450 916 501 978 q 370 743 398 854 q 342 489 342 632 q 374 235 342 345 q 460 65 406 125 q 579 5 514 5 q 699 67 648 5 q 779 240 751 130 q 807 494 807 351 q 775 748 807 638 q 689 918 743 859 q 570 978 635 978 m 890 1263 q 827 1166 870 1212 q 715 1090 784 1120 q 558 1060 647 1060 q 401 1090 469 1060 q 289 1166 332 1120 q 227 1263 246 1212 l 243 1278 q 558 1197 370 1197 q 873 1278 747 1197 l 890 1263 z "},"Ô":{"ha":1149,"x_min":50,"x_max":1099,"o":"m 50 0 m 575 1003 q 850 943 732 1003 q 1034 770 968 884 q 1099 500 1099 656 q 1032 229 1099 347 q 846 45 965 111 q 574 -20 726 -20 q 298 40 416 -20 q 115 213 180 100 q 50 484 50 327 q 117 755 50 637 q 303 938 184 873 q 575 1003 422 1003 m 570 978 q 450 916 501 978 q 370 743 398 854 q 342 489 342 632 q 374 235 342 345 q 460 65 406 125 q 579 5 514 5 q 699 67 648 5 q 779 240 751 130 q 807 494 807 351 q 775 748 807 638 q 689 918 743 859 q 570 978 635 978 m 585 1328 q 715 1197 635 1261 q 886 1089 796 1132 l 880 1068 q 692 1106 785 1083 q 545 1153 600 1130 q 421 1106 498 1130 q 266 1068 344 1083 l 258 1089 q 427 1195 347 1131 q 560 1328 507 1259 l 585 1328 z "},"Ö":{"ha":1149,"x_min":50,"x_max":1099,"o":"m 50 0 m 575 1003 q 850 943 732 1003 q 1034 770 968 884 q 1099 500 1099 656 q 1032 229 1099 347 q 846 45 965 111 q 574 -20 726 -20 q 298 40 416 -20 q 115 213 180 100 q 50 484 50 327 q 117 755 50 637 q 303 938 184 873 q 575 1003 422 1003 m 570 978 q 450 916 501 978 q 370 743 398 854 q 342 489 342 632 q 374 235 342 345 q 460 65 406 125 q 579 5 514 5 q 699 67 648 5 q 779 240 751 130 q 807 494 807 351 q 775 748 807 638 q 689 918 743 859 q 570 978 635 978 m 393 1300 q 452 1283 425 1300 q 497 1238 480 1266 q 514 1179 514 1211 q 497 1119 514 1147 q 453 1075 481 1091 q 393 1059 425 1059 q 333 1075 361 1059 q 289 1119 305 1091 q 273 1179 273 1146 q 289 1239 273 1211 q 333 1283 305 1267 q 393 1300 361 1300 m 751 1300 q 810 1283 783 1300 q 855 1238 838 1266 q 872 1179 872 1211 q 856 1119 872 1147 q 811 1075 839 1091 q 751 1059 783 1059 q 691 1075 719 1059 q 647 1119 663 1091 q 631 1179 631 1146 q 647 1239 631 1211 q 691 1283 663 1267 q 751 1300 719 1300 z "},"Ò":{"ha":1149,"x_min":50,"x_max":1099,"o":"m 50 0 m 575 1003 q 850 943 732 1003 q 1034 770 968 884 q 1099 500 1099 656 q 1032 229 1099 347 q 846 45 965 111 q 574 -20 726 -20 q 298 40 416 -20 q 115 213 180 100 q 50 484 50 327 q 117 755 50 637 q 303 938 184 873 q 575 1003 422 1003 m 570 978 q 450 916 501 978 q 370 743 398 854 q 342 489 342 632 q 374 235 342 345 q 460 65 406 125 q 579 5 514 5 q 699 67 648 5 q 779 240 751 130 q 807 494 807 351 q 775 748 807 638 q 689 918 743 859 q 570 978 635 978 m 446 1304 q 487 1277 469 1293 q 532 1226 504 1260 q 665 1089 597 1147 l 656 1072 q 470 1114 572 1098 q 406 1126 429 1120 q 360 1143 382 1132 q 321 1178 336 1156 q 307 1225 307 1200 q 315 1261 307 1243 q 352 1300 328 1287 q 404 1314 376 1314 q 446 1304 426 1314 z "},"Ő":{"ha":1149,"x_min":50,"x_max":1099,"o":"m 50 0 m 575 1003 q 850 943 732 1003 q 1034 770 968 884 q 1099 500 1099 656 q 1032 229 1099 347 q 846 45 965 111 q 574 -20 726 -20 q 298 40 416 -20 q 115 213 180 100 q 50 484 50 327 q 117 755 50 637 q 303 938 184 873 q 575 1003 422 1003 m 570 978 q 450 916 501 978 q 370 743 398 854 q 342 489 342 632 q 374 235 342 345 q 460 65 406 125 q 579 5 514 5 q 699 67 648 5 q 779 240 751 130 q 807 494 807 351 q 775 748 807 638 q 689 918 743 859 q 570 978 635 978 m 500 1310 q 553 1326 524 1326 q 598 1315 577 1326 q 633 1283 620 1304 q 648 1235 648 1260 q 604 1160 648 1189 q 567 1141 587 1148 q 502 1121 546 1134 q 351 1072 414 1097 l 338 1088 q 433 1223 382 1143 q 469 1278 455 1259 q 500 1310 483 1297 m 815 1310 q 869 1326 840 1326 q 914 1315 892 1326 q 949 1283 935 1304 q 964 1235 964 1260 q 920 1160 964 1189 q 882 1141 903 1148 q 817 1121 861 1134 q 667 1072 730 1097 l 653 1088 q 747 1223 697 1142 q 784 1278 770 1259 q 815 1310 798 1297 z "},"Ō":{"ha":1149,"x_min":50,"x_max":1099,"o":"m 50 0 m 575 1003 q 850 943 732 1003 q 1034 770 968 884 q 1099 500 1099 656 q 1032 229 1099 347 q 846 45 965 111 q 574 -20 726 -20 q 298 40 416 -20 q 115 213 180 100 q 50 484 50 327 q 117 755 50 637 q 303 938 184 873 q 575 1003 422 1003 m 570 978 q 450 916 501 978 q 370 743 398 854 q 342 489 342 632 q 374 235 342 345 q 460 65 406 125 q 579 5 514 5 q 699 67 648 5 q 779 240 751 130 q 807 494 807 351 q 775 748 807 638 q 689 918 743 859 q 570 978 635 978 m 272 1137 l 272 1173 l 872 1173 l 872 1137 l 272 1137 z "},"Ø":{"ha":1149,"x_min":50,"x_max":1099,"o":"m 872 931 q 1040 759 981 869 q 1099 500 1099 649 q 1032 229 1099 347 q 846 45 965 111 q 574 -20 726 -20 q 284 47 406 -20 l 167 -115 l 138 -96 l 254 66 q 103 236 156 130 q 50 484 50 342 q 117 755 50 637 q 303 938 184 873 q 575 1003 422 1003 q 843 947 726 1003 l 939 1088 l 965 1069 l 872 931 m 570 978 q 450 916 501 978 q 370 743 398 854 q 342 489 342 632 q 378 220 342 339 l 751 819 q 670 937 718 895 q 570 978 623 978 m 579 5 q 699 67 648 5 q 779 240 751 130 q 807 494 807 351 q 765 781 807 659 l 392 179 q 474 51 425 96 q 579 5 523 5 z "},"Õ":{"ha":1149,"x_min":50,"x_max":1099,"o":"m 50 0 m 575 1003 q 850 943 732 1003 q 1034 770 968 884 q 1099 500 1099 656 q 1032 229 1099 347 q 846 45 965 111 q 574 -20 726 -20 q 298 40 416 -20 q 115 213 180 100 q 50 484 50 327 q 117 755 50 637 q 303 938 184 873 q 575 1003 422 1003 m 570 978 q 450 916 501 978 q 370 743 398 854 q 342 489 342 632 q 374 235 342 345 q 460 65 406 125 q 579 5 514 5 q 699 67 648 5 q 779 240 751 130 q 807 494 807 351 q 775 748 807 638 q 689 918 743 859 q 570 978 635 978 m 444 1303 q 533 1290 496 1303 q 614 1253 570 1278 q 684 1222 654 1232 q 751 1211 713 1211 q 885 1284 829 1211 l 905 1275 q 823 1115 878 1167 q 699 1063 768 1063 q 609 1076 646 1063 q 526 1113 572 1088 q 458 1145 488 1135 q 391 1156 429 1156 q 256 1080 313 1156 l 237 1090 q 318 1251 263 1198 q 444 1303 374 1303 z "},"Œ":{"ha":1444,"x_min":50,"x_max":1385,"o":"m 1375 205 q 1385 0 1375 81 q 1067 4 1291 4 q 893 4 994 4 q 682 3 793 3 q 559 -20 618 -20 q 292 40 407 -20 q 114 213 177 100 q 50 484 50 327 q 115 755 50 637 q 296 938 180 873 q 561 1003 412 1003 q 682 981 620 1003 q 893 980 793 980 q 1067 979 994 979 q 1357 983 1271 979 q 1348 778 1348 869 q 1352 677 1348 713 l 1320 677 q 1245 887 1299 823 q 1120 951 1192 951 l 1101 951 q 1038 943 1058 951 q 1010 912 1018 935 q 1003 836 1003 888 l 1003 509 l 1059 509 q 1129 536 1103 509 q 1167 595 1156 563 q 1192 677 1179 628 l 1223 677 q 1219 556 1219 614 l 1219 494 q 1227 311 1219 429 l 1196 311 q 1173 397 1187 361 q 1131 457 1159 433 q 1059 481 1103 481 l 1003 481 l 1003 147 q 1010 72 1003 95 q 1038 40 1018 48 q 1101 32 1058 32 l 1147 32 q 1228 62 1186 32 q 1303 159 1270 92 q 1348 334 1336 227 l 1379 334 q 1375 205 1375 283 m 721 850 q 694 928 721 899 q 629 967 667 956 q 555 978 591 978 q 443 916 491 978 q 368 743 395 854 q 342 489 342 632 q 372 235 342 345 q 452 65 401 125 q 566 5 503 5 q 636 18 600 5 q 696 56 672 31 q 721 119 721 81 l 721 850 z "},"P":{"ha":942,"x_min":39,"x_max":920,"o":"m 419 161 q 431 76 419 103 q 474 41 443 50 q 574 32 506 32 l 574 0 q 553 1 560 0 q 288 4 393 4 q 106 1 223 4 l 39 0 l 39 28 q 103 39 83 30 q 131 71 123 47 q 138 147 138 95 l 138 836 q 130 912 138 888 q 103 945 123 936 q 39 956 83 954 l 39 983 q 278 979 118 979 q 437 981 305 979 l 501 982 q 733 948 639 982 q 873 852 827 913 q 920 708 920 790 q 878 561 920 631 q 736 444 837 491 q 471 397 636 397 l 419 397 l 419 161 m 494 956 q 447 946 463 956 q 425 911 431 936 q 419 836 419 886 l 419 425 l 457 425 q 591 497 555 425 q 628 693 628 570 q 597 892 628 828 q 494 956 566 956 z "},"Þ":{"ha":900,"x_min":39,"x_max":882,"o":"m 419 147 q 427 71 419 95 q 454 39 434 47 q 518 28 474 30 l 518 0 q 286 4 437 4 q 39 0 118 4 l 39 28 q 103 39 83 30 q 131 71 123 47 q 138 147 138 95 l 138 836 q 130 912 138 888 q 103 945 123 936 q 39 956 83 954 l 39 983 q 286 979 118 979 q 518 983 437 979 l 518 956 q 453 945 473 954 q 426 912 433 936 q 419 836 419 888 l 419 795 l 464 796 q 779 732 676 796 q 882 532 882 667 q 780 300 882 389 q 433 211 679 211 l 419 211 l 419 147 m 419 770 l 419 239 q 553 313 517 239 q 590 517 590 388 q 553 708 590 646 q 429 770 516 770 l 419 770 z "},"Q":{"ha":1149,"x_min":50,"x_max":1103,"o":"m 1103 43 q 1070 -114 1095 -49 q 1002 -212 1044 -180 q 924 -249 970 -236 q 828 -261 878 -261 q 709 -247 768 -261 q 594 -211 649 -233 q 458 -153 540 -190 q 367 -114 378 -118 q 334 -104 340 -104 q 216 -139 271 -139 q 169 -129 187 -139 q 151 -97 151 -118 q 171 -65 151 -77 q 228 -54 190 -54 q 334 -79 277 -54 q 439 -41 379 -68 q 502 -16 480 -24 q 263 60 365 -3 q 105 231 161 123 q 50 484 50 339 q 117 755 50 637 q 303 938 184 873 q 575 1003 422 1003 q 850 943 732 1003 q 1034 770 968 884 q 1099 500 1099 656 q 1035 233 1099 350 q 855 51 970 117 q 592 -20 740 -16 q 535 -32 560 -24 q 471 -55 509 -40 q 382 -86 420 -75 l 418 -87 q 636 -92 589 -92 q 875 -72 780 -92 q 997 -29 953 -56 q 1076 50 1042 -2 l 1103 43 m 342 489 q 374 235 342 345 q 460 65 406 125 q 579 5 514 5 q 699 67 648 5 q 779 240 751 130 q 807 494 807 351 q 775 748 807 638 q 689 918 743 859 q 570 978 635 978 q 450 916 501 978 q 370 743 398 854 q 342 489 342 632 z "},"R":{"ha":1002,"x_min":39,"x_max":1036,"o":"m 1036 56 q 945 -3 995 14 q 828 -20 895 -20 q 679 15 732 -20 q 614 131 626 49 l 593 269 q 555 417 578 367 q 482 467 531 467 l 419 467 l 419 147 q 427 71 419 95 q 454 39 434 47 q 518 28 474 30 l 518 0 q 286 4 437 4 q 39 0 118 4 l 39 28 q 103 39 83 30 q 131 71 123 47 q 138 147 138 95 l 138 836 q 130 912 138 888 q 103 945 123 936 q 39 956 83 954 l 39 983 q 278 979 118 979 q 437 981 305 979 l 501 982 q 816 923 713 982 q 920 741 920 863 q 842 563 920 636 q 580 471 764 489 q 794 419 722 463 q 884 290 867 376 l 913 146 q 937 75 923 95 q 975 56 951 56 q 1018 74 1000 56 l 1036 56 m 494 956 q 447 946 463 956 q 425 911 431 936 q 419 836 419 886 l 419 494 l 457 494 q 563 524 525 494 q 614 604 600 554 q 628 725 628 654 q 597 897 628 839 q 494 956 566 956 z "},"Ŕ":{"ha":1002,"x_min":39,"x_max":1036,"o":"m 39 0 m 1036 56 q 945 -3 995 14 q 828 -20 895 -20 q 679 15 732 -20 q 614 131 626 49 l 593 269 q 555 417 578 367 q 482 467 531 467 l 419 467 l 419 147 q 427 71 419 95 q 454 39 434 47 q 518 28 474 30 l 518 0 q 286 4 437 4 q 39 0 118 4 l 39 28 q 103 39 83 30 q 131 71 123 47 q 138 147 138 95 l 138 836 q 130 912 138 888 q 103 945 123 936 q 39 956 83 954 l 39 983 q 278 979 118 979 q 437 981 305 979 l 501 982 q 816 923 713 982 q 920 741 920 863 q 842 563 920 636 q 580 471 764 489 q 794 419 722 463 q 884 290 867 376 l 913 146 q 937 75 923 95 q 975 56 951 56 q 1018 74 1000 56 l 1036 56 m 494 956 q 447 946 463 956 q 425 911 431 936 q 419 836 419 886 l 419 494 l 457 494 q 563 524 525 494 q 614 604 600 554 q 628 725 628 654 q 597 897 628 839 q 494 956 566 956 m 582 1304 q 625 1314 601 1314 q 675 1300 652 1314 q 712 1261 699 1287 q 720 1225 720 1243 q 706 1177 720 1200 q 668 1143 692 1155 q 623 1126 646 1132 q 557 1114 599 1120 q 372 1072 453 1097 l 362 1089 q 496 1226 430 1147 q 542 1277 525 1261 q 582 1304 559 1293 z "},"Ř":{"ha":1002,"x_min":39,"x_max":1036,"o":"m 39 0 m 1036 56 q 945 -3 995 14 q 828 -20 895 -20 q 679 15 732 -20 q 614 131 626 49 l 593 269 q 555 417 578 367 q 482 467 531 467 l 419 467 l 419 147 q 427 71 419 95 q 454 39 434 47 q 518 28 474 30 l 518 0 q 286 4 437 4 q 39 0 118 4 l 39 28 q 103 39 83 30 q 131 71 123 47 q 138 147 138 95 l 138 836 q 130 912 138 888 q 103 945 123 936 q 39 956 83 954 l 39 983 q 278 979 118 979 q 437 981 305 979 l 501 982 q 816 923 713 982 q 920 741 920 863 q 842 563 920 636 q 580 471 764 489 q 794 419 722 463 q 884 290 867 376 l 913 146 q 937 75 923 95 q 975 56 951 56 q 1018 74 1000 56 l 1036 56 m 494 956 q 447 946 463 956 q 425 911 431 936 q 419 836 419 886 l 419 494 l 457 494 q 563 524 525 494 q 614 604 600 554 q 628 725 628 654 q 597 897 628 839 q 494 956 566 956 m 785 1293 q 616 1187 696 1251 q 484 1054 536 1122 l 458 1054 q 327 1186 408 1121 q 157 1293 247 1251 l 164 1314 q 352 1276 259 1299 q 498 1229 444 1253 q 622 1276 545 1253 q 778 1314 699 1299 l 785 1293 z "},"Ŗ":{"ha":1002,"x_min":39,"x_max":1036,"o":"m 39 0 m 1036 56 q 945 -3 995 14 q 828 -20 895 -20 q 679 15 732 -20 q 614 131 626 49 l 593 269 q 555 417 578 367 q 482 467 531 467 l 419 467 l 419 147 q 427 71 419 95 q 454 39 434 47 q 518 28 474 30 l 518 0 q 286 4 437 4 q 39 0 118 4 l 39 28 q 103 39 83 30 q 131 71 123 47 q 138 147 138 95 l 138 836 q 130 912 138 888 q 103 945 123 936 q 39 956 83 954 l 39 983 q 278 979 118 979 q 437 981 305 979 l 501 982 q 816 923 713 982 q 920 741 920 863 q 842 563 920 636 q 580 471 764 489 q 794 419 722 463 q 884 290 867 376 l 913 146 q 937 75 923 95 q 975 56 951 56 q 1018 74 1000 56 l 1036 56 m 494 956 q 447 946 463 956 q 425 911 431 936 q 419 836 419 886 l 419 494 l 457 494 q 563 524 525 494 q 614 604 600 554 q 628 725 628 654 q 597 897 628 839 q 494 956 566 956 m 530 -64 q 624 -93 589 -64 q 659 -178 659 -123 q 611 -294 659 -250 q 472 -340 562 -338 l 469 -310 q 559 -287 530 -302 q 597 -240 589 -271 q 524 -261 574 -261 q 437 -237 467 -261 q 407 -165 407 -213 q 438 -90 407 -116 q 530 -64 470 -64 z "},"S":{"ha":851,"x_min":68,"x_max":802,"o":"m 419 1003 q 549 988 499 1003 q 644 947 598 973 q 673 932 664 937 q 692 928 683 928 q 711 942 705 928 q 722 989 718 957 l 754 989 q 747 650 747 889 l 715 650 q 679 802 710 729 q 595 920 648 874 q 473 965 543 965 q 371 931 410 965 q 332 836 332 897 q 352 755 332 789 q 413 688 373 720 q 544 593 454 655 l 576 570 q 699 476 653 516 q 773 381 744 435 q 802 256 802 327 q 751 103 802 165 q 614 11 700 41 q 424 -20 529 -20 q 282 -6 338 -20 q 178 32 227 8 q 131 52 146 52 q 111 37 118 52 q 100 -9 104 23 l 68 -9 q 74 393 74 96 l 106 393 q 174 125 115 229 q 358 22 234 22 q 480 58 435 22 q 525 158 525 94 q 500 257 525 213 q 433 337 475 300 q 322 419 391 373 q 189 517 238 475 q 107 613 140 558 q 75 741 75 669 q 122 887 75 827 q 248 975 170 946 q 419 1003 326 1003 z "},"Ś":{"ha":851,"x_min":68,"x_max":802,"o":"m 68 0 m 419 1003 q 549 988 499 1003 q 644 947 598 973 q 673 932 664 937 q 692 928 683 928 q 711 942 705 928 q 722 989 718 957 l 754 989 q 747 650 747 889 l 715 650 q 679 802 710 729 q 595 920 648 874 q 473 965 543 965 q 371 931 410 965 q 332 836 332 897 q 352 755 332 789 q 413 688 373 720 q 544 593 454 655 l 576 570 q 699 476 653 516 q 773 381 744 435 q 802 256 802 327 q 751 103 802 165 q 614 11 700 41 q 424 -20 529 -20 q 282 -6 338 -20 q 178 32 227 8 q 131 52 146 52 q 111 37 118 52 q 100 -9 104 23 l 68 -9 q 74 393 74 96 l 106 393 q 174 125 115 229 q 358 22 234 22 q 480 58 435 22 q 525 158 525 94 q 500 257 525 213 q 433 337 475 300 q 322 419 391 373 q 189 517 238 475 q 107 613 140 558 q 75 741 75 669 q 122 887 75 827 q 248 975 170 946 q 419 1003 326 1003 m 542 1304 q 585 1314 561 1314 q 635 1300 612 1314 q 672 1261 659 1287 q 680 1225 680 1243 q 666 1177 680 1200 q 628 1143 652 1155 q 583 1126 606 1132 q 517 1114 559 1120 q 332 1072 413 1097 l 322 1089 q 456 1226 390 1147 q 502 1277 485 1261 q 542 1304 519 1293 z "},"Š":{"ha":851,"x_min":68,"x_max":802,"o":"m 68 0 m 419 1003 q 549 988 499 1003 q 644 947 598 973 q 673 932 664 937 q 692 928 683 928 q 711 942 705 928 q 722 989 718 957 l 754 989 q 747 650 747 889 l 715 650 q 679 802 710 729 q 595 920 648 874 q 473 965 543 965 q 371 931 410 965 q 332 836 332 897 q 352 755 332 789 q 413 688 373 720 q 544 593 454 655 l 576 570 q 699 476 653 516 q 773 381 744 435 q 802 256 802 327 q 751 103 802 165 q 614 11 700 41 q 424 -20 529 -20 q 282 -6 338 -20 q 178 32 227 8 q 131 52 146 52 q 111 37 118 52 q 100 -9 104 23 l 68 -9 q 74 393 74 96 l 106 393 q 174 125 115 229 q 358 22 234 22 q 480 58 435 22 q 525 158 525 94 q 500 257 525 213 q 433 337 475 300 q 322 419 391 373 q 189 517 238 475 q 107 613 140 558 q 75 741 75 669 q 122 887 75 827 q 248 975 170 946 q 419 1003 326 1003 m 745 1293 q 576 1187 656 1251 q 444 1054 496 1122 l 418 1054 q 287 1186 368 1121 q 117 1293 207 1251 l 124 1314 q 312 1276 219 1299 q 458 1229 404 1253 q 582 1276 505 1253 q 738 1314 659 1299 l 745 1293 z "},"Ş":{"ha":851,"x_min":68,"x_max":802,"o":"m 802 256 q 752 104 802 166 q 618 12 702 43 q 431 -20 534 -18 l 412 -83 q 536 -62 467 -62 q 623 -85 593 -62 q 652 -143 652 -107 q 581 -231 652 -201 q 391 -261 510 -261 q 252 -243 306 -261 l 261 -218 q 342 -225 298 -225 q 431 -212 393 -225 q 469 -172 469 -198 q 403 -138 469 -138 q 357 -147 374 -138 l 394 -19 q 272 -3 321 -17 q 178 32 222 10 q 131 52 146 52 q 111 37 118 52 q 100 -9 104 23 l 68 -9 q 74 393 74 96 l 106 393 q 174 125 115 229 q 358 22 234 22 q 480 58 435 22 q 525 158 525 94 q 500 257 525 213 q 433 337 475 300 q 322 419 391 373 q 189 517 238 475 q 107 613 140 558 q 75 741 75 669 q 122 887 75 827 q 248 975 170 946 q 419 1003 326 1003 q 549 988 499 1003 q 644 947 598 973 q 673 932 664 937 q 692 928 683 928 q 711 942 705 928 q 722 989 718 957 l 754 989 q 747 650 747 889 l 715 650 q 679 802 710 729 q 595 920 648 874 q 473 965 543 965 q 371 931 410 965 q 332 836 332 897 q 352 755 332 789 q 413 688 373 720 q 544 593 454 655 l 576 570 q 699 476 653 516 q 773 381 744 435 q 802 256 802 327 z "},"Ŝ":{"ha":851,"x_min":68,"x_max":802,"o":"m 68 0 m 419 1003 q 549 988 499 1003 q 644 947 598 973 q 673 932 664 937 q 692 928 683 928 q 711 942 705 928 q 722 989 718 957 l 754 989 q 747 650 747 889 l 715 650 q 679 802 710 729 q 595 920 648 874 q 473 965 543 965 q 371 931 410 965 q 332 836 332 897 q 352 755 332 789 q 413 688 373 720 q 544 593 454 655 l 576 570 q 699 476 653 516 q 773 381 744 435 q 802 256 802 327 q 751 103 802 165 q 614 11 700 41 q 424 -20 529 -20 q 282 -6 338 -20 q 178 32 227 8 q 131 52 146 52 q 111 37 118 52 q 100 -9 104 23 l 68 -9 q 74 393 74 96 l 106 393 q 174 125 115 229 q 358 22 234 22 q 480 58 435 22 q 525 158 525 94 q 500 257 525 213 q 433 337 475 300 q 322 419 391 373 q 189 517 238 475 q 107 613 140 558 q 75 741 75 669 q 122 887 75 827 q 248 975 170 946 q 419 1003 326 1003 m 448 1328 q 578 1197 497 1261 q 749 1089 659 1132 l 742 1068 q 554 1106 647 1083 q 407 1153 462 1130 q 283 1106 361 1130 q 128 1068 206 1083 l 121 1089 q 289 1195 209 1131 q 422 1328 370 1259 l 448 1328 z "},"Ș":{"ha":851,"x_min":68,"x_max":802,"o":"m 68 0 m 419 1003 q 549 988 499 1003 q 644 947 598 973 q 673 932 664 937 q 692 928 683 928 q 711 942 705 928 q 722 989 718 957 l 754 989 q 747 650 747 889 l 715 650 q 679 802 710 729 q 595 920 648 874 q 473 965 543 965 q 371 931 410 965 q 332 836 332 897 q 352 755 332 789 q 413 688 373 720 q 544 593 454 655 l 576 570 q 699 476 653 516 q 773 381 744 435 q 802 256 802 327 q 751 103 802 165 q 614 11 700 41 q 424 -20 529 -20 q 282 -6 338 -20 q 178 32 227 8 q 131 52 146 52 q 111 37 118 52 q 100 -9 104 23 l 68 -9 q 74 393 74 96 l 106 393 q 174 125 115 229 q 358 22 234 22 q 480 58 435 22 q 525 158 525 94 q 500 257 525 213 q 433 337 475 300 q 322 419 391 373 q 189 517 238 475 q 107 613 140 558 q 75 741 75 669 q 122 887 75 827 q 248 975 170 946 q 419 1003 326 1003 m 432 -64 q 526 -93 491 -64 q 561 -178 561 -123 q 512 -294 561 -250 q 374 -340 464 -338 l 371 -310 q 461 -287 431 -302 q 498 -240 490 -271 q 425 -261 476 -261 q 339 -237 369 -261 q 309 -165 309 -213 q 340 -90 309 -116 q 432 -64 372 -64 z "},"ẞ":{"ha":1120,"x_min":5,"x_max":1097,"o":"m 615 1003 q 846 972 739 1003 q 1035 890 954 941 l 772 558 q 1097 272 1097 482 q 1044 117 1097 183 q 901 16 991 51 q 701 -20 810 -20 q 609 -13 646 -20 q 541 8 572 -7 q 474 69 496 28 q 452 163 452 109 q 469 241 452 208 q 515 292 486 274 q 579 310 544 310 q 641 293 614 310 q 682 245 667 276 q 697 176 697 215 q 669 83 697 122 q 597 21 640 43 q 636 12 615 12 q 719 35 680 12 q 781 109 757 58 q 806 240 806 160 q 730 464 806 376 q 492 610 654 553 l 750 964 q 650 978 713 978 q 507 944 565 978 q 418 824 450 910 q 386 589 386 739 l 386 147 q 390 74 386 98 q 404 39 393 50 q 435 28 414 28 l 435 0 q 369 1 415 0 q 231 4 304 4 q 5 0 85 4 l 5 28 q 70 39 50 30 q 97 71 90 47 q 104 147 104 95 l 104 504 q 237 880 104 757 q 615 1003 369 1003 z "},"T":{"ha":971,"x_min":32,"x_max":939,"o":"m 939 983 q 929 708 929 829 q 933 608 929 644 l 901 608 q 784 871 856 791 q 628 951 711 951 l 627 951 l 627 157 q 638 72 627 98 q 682 37 650 45 q 781 28 713 28 l 781 0 q 764 1 770 0 q 476 4 595 4 q 212 1 372 4 q 191 0 204 0 l 191 28 q 290 37 258 28 q 333 72 321 45 q 345 157 345 98 l 345 951 l 343 951 q 187 872 258 951 q 69 608 115 792 l 37 608 q 41 708 41 644 q 32 983 41 829 q 486 979 164 979 q 939 983 807 979 z "},"Ŧ":{"ha":971,"x_min":32,"x_max":939,"o":"m 939 983 q 929 708 929 829 q 933 608 929 644 l 901 608 q 784 871 856 791 q 628 951 711 951 l 627 951 l 627 509 l 785 509 l 785 481 l 627 481 l 627 157 q 638 72 627 98 q 682 37 650 45 q 781 28 713 28 l 781 0 q 764 1 770 0 q 476 4 595 4 q 212 1 372 4 q 191 0 204 0 l 191 28 q 290 37 258 28 q 333 72 321 45 q 345 157 345 98 l 345 481 l 168 481 l 168 509 l 345 509 l 345 951 l 343 951 q 187 872 258 951 q 69 608 115 792 l 37 608 q 41 708 41 644 q 32 983 41 829 q 486 979 164 979 q 939 983 807 979 z "},"Ť":{"ha":971,"x_min":32,"x_max":939,"o":"m 32 0 m 939 983 q 929 708 929 829 q 933 608 929 644 l 901 608 q 784 871 856 791 q 628 951 711 951 l 627 951 l 627 157 q 638 72 627 98 q 682 37 650 45 q 781 28 713 28 l 781 0 q 764 1 770 0 q 476 4 595 4 q 212 1 372 4 q 191 0 204 0 l 191 28 q 290 37 258 28 q 333 72 321 45 q 345 157 345 98 l 345 951 l 343 951 q 187 872 258 951 q 69 608 115 792 l 37 608 q 41 708 41 644 q 32 983 41 829 q 486 979 164 979 q 939 983 807 979 m 796 1293 q 627 1187 707 1251 q 495 1054 547 1122 l 470 1054 q 339 1186 419 1121 q 168 1293 258 1251 l 176 1314 q 363 1276 271 1299 q 510 1229 456 1253 q 633 1276 556 1253 q 789 1314 711 1299 l 796 1293 z "},"Ţ":{"ha":971,"x_min":32,"x_max":939,"o":"m 939 983 q 929 708 929 829 q 933 608 929 644 l 901 608 q 784 871 856 791 q 628 951 711 951 l 627 951 l 627 157 q 638 72 627 98 q 682 37 650 45 q 781 28 713 28 l 781 0 q 764 1 770 0 q 649 3 730 1 q 500 4 568 4 l 474 -83 q 597 -62 529 -62 q 684 -85 654 -62 q 714 -143 714 -107 q 643 -231 714 -201 q 453 -261 572 -261 q 314 -243 368 -261 l 323 -218 q 404 -225 360 -225 q 493 -212 455 -225 q 531 -172 531 -198 q 465 -138 531 -138 q 418 -147 435 -138 l 463 4 q 212 1 365 4 q 191 0 204 0 l 191 28 q 290 37 258 28 q 333 72 321 45 q 345 157 345 98 l 345 951 l 343 951 q 187 872 258 951 q 69 608 115 792 l 37 608 q 41 708 41 644 q 32 983 41 829 q 486 979 164 979 q 939 983 807 979 z "},"Ț":{"ha":971,"x_min":32,"x_max":939,"o":"m 32 0 m 939 983 q 929 708 929 829 q 933 608 929 644 l 901 608 q 784 871 856 791 q 628 951 711 951 l 627 951 l 627 157 q 638 72 627 98 q 682 37 650 45 q 781 28 713 28 l 781 0 q 764 1 770 0 q 476 4 595 4 q 212 1 372 4 q 191 0 204 0 l 191 28 q 290 37 258 28 q 333 72 321 45 q 345 157 345 98 l 345 951 l 343 951 q 187 872 258 951 q 69 608 115 792 l 37 608 q 41 708 41 644 q 32 983 41 829 q 486 979 164 979 q 939 983 807 979 m 479 -64 q 573 -93 538 -64 q 608 -178 608 -123 q 560 -294 608 -250 q 421 -340 511 -338 l 418 -310 q 508 -287 479 -302 q 546 -240 538 -271 q 473 -261 524 -261 q 386 -237 416 -261 q 356 -165 356 -213 q 388 -90 356 -116 q 479 -64 419 -64 z "},"U":{"ha":962,"x_min":18,"x_max":946,"o":"m 946 956 q 882 926 903 946 q 854 864 861 905 q 847 739 847 822 l 847 404 q 790 110 847 203 q 492 -20 713 -20 q 231 47 324 -20 q 160 130 184 81 q 126 243 135 178 q 117 400 117 307 l 117 836 q 110 912 117 889 q 83 945 102 936 q 18 956 63 954 l 18 983 q 262 979 96 979 q 511 983 426 979 l 511 956 q 438 945 461 954 q 407 912 416 936 q 399 836 399 888 l 399 269 q 418 126 399 179 q 475 52 437 74 q 572 29 513 29 q 760 122 705 29 q 815 389 815 216 l 815 711 q 807 859 815 814 q 770 925 799 903 q 675 956 742 946 l 675 983 q 831 979 732 979 q 946 983 904 979 l 946 956 z "},"Ú":{"ha":962,"x_min":18,"x_max":946,"o":"m 18 0 m 946 956 q 882 926 903 946 q 854 864 861 905 q 847 739 847 822 l 847 404 q 790 110 847 203 q 492 -20 713 -20 q 231 47 324 -20 q 160 130 184 81 q 126 243 135 178 q 117 400 117 307 l 117 836 q 110 912 117 889 q 83 945 102 936 q 18 956 63 954 l 18 983 q 262 979 96 979 q 511 983 426 979 l 511 956 q 438 945 461 954 q 407 912 416 936 q 399 836 399 888 l 399 269 q 418 126 399 179 q 475 52 437 74 q 572 29 513 29 q 760 122 705 29 q 815 389 815 216 l 815 711 q 807 859 815 814 q 770 925 799 903 q 675 956 742 946 l 675 983 q 831 979 732 979 q 946 983 904 979 l 946 956 m 608 1304 q 651 1314 627 1314 q 702 1300 678 1314 q 739 1261 726 1287 q 747 1225 747 1243 q 733 1177 747 1200 q 694 1143 719 1155 q 649 1126 673 1132 q 584 1114 625 1120 q 398 1072 479 1097 l 389 1089 q 522 1226 456 1147 q 568 1277 551 1261 q 608 1304 585 1293 z "},"Ŭ":{"ha":962,"x_min":18,"x_max":946,"o":"m 18 0 m 946 956 q 882 926 903 946 q 854 864 861 905 q 847 739 847 822 l 847 404 q 790 110 847 203 q 492 -20 713 -20 q 231 47 324 -20 q 160 130 184 81 q 126 243 135 178 q 117 400 117 307 l 117 836 q 110 912 117 889 q 83 945 102 936 q 18 956 63 954 l 18 983 q 262 979 96 979 q 511 983 426 979 l 511 956 q 438 945 461 954 q 407 912 416 936 q 399 836 399 888 l 399 269 q 418 126 399 179 q 475 52 437 74 q 572 29 513 29 q 760 122 705 29 q 815 389 815 216 l 815 711 q 807 859 815 814 q 770 925 799 903 q 675 956 742 946 l 675 983 q 831 979 732 979 q 946 983 904 979 l 946 956 m 819 1263 q 756 1166 799 1212 q 644 1090 713 1120 q 487 1060 576 1060 q 330 1090 398 1060 q 218 1166 261 1120 q 155 1263 175 1212 l 172 1278 q 487 1197 298 1197 q 802 1278 675 1197 l 819 1263 z "},"Û":{"ha":962,"x_min":18,"x_max":946,"o":"m 18 0 m 946 956 q 882 926 903 946 q 854 864 861 905 q 847 739 847 822 l 847 404 q 790 110 847 203 q 492 -20 713 -20 q 231 47 324 -20 q 160 130 184 81 q 126 243 135 178 q 117 400 117 307 l 117 836 q 110 912 117 889 q 83 945 102 936 q 18 956 63 954 l 18 983 q 262 979 96 979 q 511 983 426 979 l 511 956 q 438 945 461 954 q 407 912 416 936 q 399 836 399 888 l 399 269 q 418 126 399 179 q 475 52 437 74 q 572 29 513 29 q 760 122 705 29 q 815 389 815 216 l 815 711 q 807 859 815 814 q 770 925 799 903 q 675 956 742 946 l 675 983 q 831 979 732 979 q 946 983 904 979 l 946 956 m 514 1328 q 644 1197 564 1261 q 815 1089 725 1132 l 808 1068 q 621 1106 713 1083 q 473 1153 528 1130 q 350 1106 427 1130 q 195 1068 273 1083 l 187 1089 q 356 1195 275 1131 q 489 1328 436 1259 l 514 1328 z "},"Ü":{"ha":962,"x_min":18,"x_max":946,"o":"m 18 0 m 946 956 q 882 926 903 946 q 854 864 861 905 q 847 739 847 822 l 847 404 q 790 110 847 203 q 492 -20 713 -20 q 231 47 324 -20 q 160 130 184 81 q 126 243 135 178 q 117 400 117 307 l 117 836 q 110 912 117 889 q 83 945 102 936 q 18 956 63 954 l 18 983 q 262 979 96 979 q 511 983 426 979 l 511 956 q 438 945 461 954 q 407 912 416 936 q 399 836 399 888 l 399 269 q 418 126 399 179 q 475 52 437 74 q 572 29 513 29 q 760 122 705 29 q 815 389 815 216 l 815 711 q 807 859 815 814 q 770 925 799 903 q 675 956 742 946 l 675 983 q 831 979 732 979 q 946 983 904 979 l 946 956 m 322 1300 q 381 1283 353 1300 q 426 1238 409 1266 q 443 1179 443 1211 q 426 1119 443 1147 q 381 1075 410 1091 q 322 1059 353 1059 q 262 1075 290 1059 q 218 1119 234 1091 q 201 1179 201 1146 q 218 1239 201 1211 q 262 1283 234 1267 q 322 1300 290 1300 m 680 1300 q 739 1283 711 1300 q 784 1238 767 1266 q 801 1179 801 1211 q 784 1119 801 1147 q 740 1075 768 1091 q 680 1059 711 1059 q 620 1075 648 1059 q 576 1119 592 1091 q 559 1179 559 1146 q 576 1239 559 1211 q 620 1283 592 1267 q 680 1300 648 1300 z "},"Ù":{"ha":962,"x_min":18,"x_max":946,"o":"m 18 0 m 946 956 q 882 926 903 946 q 854 864 861 905 q 847 739 847 822 l 847 404 q 790 110 847 203 q 492 -20 713 -20 q 231 47 324 -20 q 160 130 184 81 q 126 243 135 178 q 117 400 117 307 l 117 836 q 110 912 117 889 q 83 945 102 936 q 18 956 63 954 l 18 983 q 262 979 96 979 q 511 983 426 979 l 511 956 q 438 945 461 954 q 407 912 416 936 q 399 836 399 888 l 399 269 q 418 126 399 179 q 475 52 437 74 q 572 29 513 29 q 760 122 705 29 q 815 389 815 216 l 815 711 q 807 859 815 814 q 770 925 799 903 q 675 956 742 946 l 675 983 q 831 979 732 979 q 946 983 904 979 l 946 956 m 375 1304 q 415 1277 398 1293 q 460 1226 433 1260 q 594 1089 526 1147 l 585 1072 q 399 1114 501 1098 q 334 1126 358 1120 q 289 1143 311 1132 q 250 1178 264 1156 q 236 1225 236 1200 q 244 1261 236 1243 q 281 1300 257 1287 q 332 1314 304 1314 q 375 1304 355 1314 z "},"Ű":{"ha":962,"x_min":18,"x_max":946,"o":"m 18 0 m 946 956 q 882 926 903 946 q 854 864 861 905 q 847 739 847 822 l 847 404 q 790 110 847 203 q 492 -20 713 -20 q 231 47 324 -20 q 160 130 184 81 q 126 243 135 178 q 117 400 117 307 l 117 836 q 110 912 117 889 q 83 945 102 936 q 18 956 63 954 l 18 983 q 262 979 96 979 q 511 983 426 979 l 511 956 q 438 945 461 954 q 407 912 416 936 q 399 836 399 888 l 399 269 q 418 126 399 179 q 475 52 437 74 q 572 29 513 29 q 760 122 705 29 q 815 389 815 216 l 815 711 q 807 859 815 814 q 770 925 799 903 q 675 956 742 946 l 675 983 q 831 979 732 979 q 946 983 904 979 l 946 956 m 429 1310 q 482 1326 453 1326 q 527 1315 506 1326 q 562 1283 549 1304 q 577 1235 577 1260 q 533 1160 577 1189 q 495 1141 516 1148 q 431 1121 475 1134 q 280 1072 343 1097 l 267 1088 q 361 1223 311 1143 q 398 1278 384 1259 q 429 1310 412 1297 m 744 1310 q 798 1326 768 1326 q 843 1315 821 1326 q 878 1283 864 1304 q 892 1235 892 1260 q 848 1160 892 1189 q 811 1141 831 1148 q 746 1121 790 1134 q 595 1072 659 1097 l 582 1088 q 676 1223 626 1142 q 713 1278 699 1259 q 744 1310 726 1297 z "},"Ū":{"ha":962,"x_min":18,"x_max":946,"o":"m 18 0 m 946 956 q 882 926 903 946 q 854 864 861 905 q 847 739 847 822 l 847 404 q 790 110 847 203 q 492 -20 713 -20 q 231 47 324 -20 q 160 130 184 81 q 126 243 135 178 q 117 400 117 307 l 117 836 q 110 912 117 889 q 83 945 102 936 q 18 956 63 954 l 18 983 q 262 979 96 979 q 511 983 426 979 l 511 956 q 438 945 461 954 q 407 912 416 936 q 399 836 399 888 l 399 269 q 418 126 399 179 q 475 52 437 74 q 572 29 513 29 q 760 122 705 29 q 815 389 815 216 l 815 711 q 807 859 815 814 q 770 925 799 903 q 675 956 742 946 l 675 983 q 831 979 732 979 q 946 983 904 979 l 946 956 m 201 1137 l 201 1173 l 801 1173 l 801 1137 l 201 1137 z "},"Ų":{"ha":962,"x_min":18,"x_max":946,"o":"m 831 979 q 946 983 904 979 l 946 956 q 882 926 903 946 q 854 864 861 905 q 847 739 847 822 l 847 404 q 790 110 847 203 q 642 -1 742 30 q 533 -60 568 -27 q 498 -125 498 -94 q 512 -165 498 -153 q 554 -178 526 -178 q 604 -169 577 -178 q 646 -146 630 -159 l 664 -167 q 573 -239 623 -217 q 451 -261 524 -261 q 349 -236 384 -261 q 314 -163 314 -210 q 360 -80 314 -117 q 492 -20 406 -44 l 492 -20 q 231 47 324 -20 q 160 130 184 81 q 126 243 135 178 q 117 400 117 307 l 117 836 q 110 912 117 889 q 83 945 102 936 q 18 956 63 954 l 18 983 q 262 979 96 979 q 511 983 426 979 l 511 956 q 438 945 461 954 q 407 912 416 936 q 399 836 399 888 l 399 269 q 418 126 399 179 q 475 52 437 74 q 572 29 513 29 q 760 122 705 29 q 815 389 815 216 l 815 711 q 807 859 815 814 q 770 925 799 903 q 675 956 742 946 l 675 983 q 831 979 732 979 z "},"Ů":{"ha":962,"x_min":18,"x_max":946,"o":"m 18 0 m 946 956 q 882 926 903 946 q 854 864 861 905 q 847 739 847 822 l 847 404 q 790 110 847 203 q 492 -20 713 -20 q 231 47 324 -20 q 160 130 184 81 q 126 243 135 178 q 117 400 117 307 l 117 836 q 110 912 117 889 q 83 945 102 936 q 18 956 63 954 l 18 983 q 262 979 96 979 q 511 983 426 979 l 511 956 q 438 945 461 954 q 407 912 416 936 q 399 836 399 888 l 399 269 q 418 126 399 179 q 475 52 437 74 q 572 29 513 29 q 760 122 705 29 q 815 389 815 216 l 815 711 q 807 859 815 814 q 770 925 799 903 q 675 956 742 946 l 675 983 q 831 979 732 979 q 946 983 904 979 l 946 956 m 501 1381 q 582 1364 545 1381 q 642 1315 619 1347 q 664 1242 664 1283 q 642 1167 664 1200 q 582 1117 619 1135 q 501 1100 545 1100 q 421 1117 458 1100 q 362 1167 385 1135 q 340 1242 340 1200 q 362 1315 340 1283 q 421 1364 385 1347 q 501 1381 458 1381 m 501 1352 q 443 1339 471 1352 q 397 1300 415 1326 q 379 1240 379 1275 q 397 1179 379 1204 q 443 1142 414 1154 q 501 1129 471 1129 q 561 1142 532 1129 q 607 1179 589 1154 q 625 1240 625 1204 q 607 1300 625 1275 q 561 1339 589 1326 q 501 1352 532 1352 z "},"Ũ":{"ha":962,"x_min":18,"x_max":946,"o":"m 18 0 m 946 956 q 882 926 903 946 q 854 864 861 905 q 847 739 847 822 l 847 404 q 790 110 847 203 q 492 -20 713 -20 q 231 47 324 -20 q 160 130 184 81 q 126 243 135 178 q 117 400 117 307 l 117 836 q 110 912 117 889 q 83 945 102 936 q 18 956 63 954 l 18 983 q 262 979 96 979 q 511 983 426 979 l 511 956 q 438 945 461 954 q 407 912 416 936 q 399 836 399 888 l 399 269 q 418 126 399 179 q 475 52 437 74 q 572 29 513 29 q 760 122 705 29 q 815 389 815 216 l 815 711 q 807 859 815 814 q 770 925 799 903 q 675 956 742 946 l 675 983 q 831 979 732 979 q 946 983 904 979 l 946 956 m 372 1303 q 462 1290 425 1303 q 543 1253 499 1278 q 612 1222 583 1232 q 680 1211 642 1211 q 814 1284 758 1211 l 833 1275 q 752 1115 807 1167 q 628 1063 697 1063 q 538 1076 575 1063 q 455 1113 501 1088 q 387 1145 416 1135 q 319 1156 357 1156 q 184 1080 242 1156 l 165 1090 q 247 1251 192 1198 q 372 1303 302 1303 z "},"V":{"ha":962,"x_min":-22,"x_max":979,"o":"m 872 979 q 979 983 938 979 l 979 956 q 905 890 942 938 q 840 761 869 843 l 570 0 q 496 3 525 3 q 424 0 467 3 l 60 867 q 20 933 41 911 q -22 956 -2 954 l -22 983 q 231 979 79 979 q 464 983 389 979 l 464 956 q 389 943 412 954 q 366 905 366 933 q 383 839 366 881 l 624 247 l 758 625 q 804 831 804 755 q 690 956 804 951 l 690 983 q 872 979 794 979 z "},"W":{"ha":1402,"x_min":-21,"x_max":1414,"o":"m 1307 979 q 1414 983 1373 979 l 1414 956 q 1284 761 1332 916 l 1051 0 q 978 3 1008 3 q 905 0 950 3 l 725 551 l 529 0 q 456 3 486 3 q 383 0 428 3 l 61 867 q 22 932 45 911 q -21 956 0 954 l -21 983 q 225 979 80 979 q 410 983 352 979 l 410 956 q 373 900 373 948 q 385 839 373 869 l 587 273 l 708 602 l 614 890 q 586 939 603 924 q 543 956 569 954 l 543 983 q 783 979 637 979 q 999 983 928 979 l 999 956 q 926 943 948 954 q 904 903 904 932 q 918 839 904 880 l 1101 282 l 1208 625 q 1245 819 1245 745 q 1214 921 1245 889 q 1125 956 1183 954 l 1125 983 q 1307 979 1229 979 z "},"Ẃ":{"ha":1402,"x_min":-21,"x_max":1414,"o":"m 0 0 m 1307 979 q 1414 983 1373 979 l 1414 956 q 1284 761 1332 916 l 1051 0 q 978 3 1008 3 q 905 0 950 3 l 725 551 l 529 0 q 456 3 486 3 q 383 0 428 3 l 61 867 q 22 932 45 911 q -21 956 0 954 l -21 983 q 225 979 80 979 q 410 983 352 979 l 410 956 q 373 900 373 948 q 385 839 373 869 l 587 273 l 708 602 l 614 890 q 586 939 603 924 q 543 956 569 954 l 543 983 q 783 979 637 979 q 999 983 928 979 l 999 956 q 926 943 948 954 q 904 903 904 932 q 918 839 904 880 l 1101 282 l 1208 625 q 1245 819 1245 745 q 1214 921 1245 889 q 1125 956 1183 954 l 1125 983 q 1307 979 1229 979 m 836 1304 q 879 1314 855 1314 q 930 1300 906 1314 q 966 1261 954 1287 q 975 1225 975 1243 q 961 1177 975 1200 q 922 1143 947 1155 q 877 1126 901 1132 q 812 1114 853 1120 q 626 1072 707 1097 l 616 1089 q 750 1226 684 1147 q 796 1277 779 1261 q 836 1304 813 1293 z "},"Ŵ":{"ha":1402,"x_min":-21,"x_max":1414,"o":"m 0 0 m 1307 979 q 1414 983 1373 979 l 1414 956 q 1284 761 1332 916 l 1051 0 q 978 3 1008 3 q 905 0 950 3 l 725 551 l 529 0 q 456 3 486 3 q 383 0 428 3 l 61 867 q 22 932 45 911 q -21 956 0 954 l -21 983 q 225 979 80 979 q 410 983 352 979 l 410 956 q 373 900 373 948 q 385 839 373 869 l 587 273 l 708 602 l 614 890 q 586 939 603 924 q 543 956 569 954 l 543 983 q 783 979 637 979 q 999 983 928 979 l 999 956 q 926 943 948 954 q 904 903 904 932 q 918 839 904 880 l 1101 282 l 1208 625 q 1245 819 1245 745 q 1214 921 1245 889 q 1125 956 1183 954 l 1125 983 q 1307 979 1229 979 m 742 1328 q 872 1197 791 1261 q 1043 1089 953 1132 l 1036 1068 q 849 1106 941 1083 q 701 1153 756 1130 q 578 1106 655 1130 q 422 1068 500 1083 l 415 1089 q 584 1195 503 1131 q 717 1328 664 1259 l 742 1328 z "},"Ẅ":{"ha":1402,"x_min":-21,"x_max":1414,"o":"m 0 0 m 1307 979 q 1414 983 1373 979 l 1414 956 q 1284 761 1332 916 l 1051 0 q 978 3 1008 3 q 905 0 950 3 l 725 551 l 529 0 q 456 3 486 3 q 383 0 428 3 l 61 867 q 22 932 45 911 q -21 956 0 954 l -21 983 q 225 979 80 979 q 410 983 352 979 l 410 956 q 373 900 373 948 q 385 839 373 869 l 587 273 l 708 602 l 614 890 q 586 939 603 924 q 543 956 569 954 l 543 983 q 783 979 637 979 q 999 983 928 979 l 999 956 q 926 943 948 954 q 904 903 904 932 q 918 839 904 880 l 1101 282 l 1208 625 q 1245 819 1245 745 q 1214 921 1245 889 q 1125 956 1183 954 l 1125 983 q 1307 979 1229 979 m 550 1300 q 609 1283 581 1300 q 654 1238 637 1266 q 671 1179 671 1211 q 654 1119 671 1147 q 609 1075 637 1091 q 550 1059 581 1059 q 490 1075 517 1059 q 446 1119 462 1091 q 429 1179 429 1146 q 446 1239 429 1211 q 490 1283 462 1267 q 550 1300 517 1300 m 908 1300 q 967 1283 939 1300 q 1012 1238 995 1266 q 1029 1179 1029 1211 q 1012 1119 1029 1147 q 967 1075 996 1091 q 908 1059 939 1059 q 848 1075 876 1059 q 804 1119 820 1091 q 787 1179 787 1146 q 804 1239 787 1211 q 848 1283 820 1267 q 908 1300 876 1300 z "},"Ẁ":{"ha":1402,"x_min":-21,"x_max":1414,"o":"m 0 0 m 1307 979 q 1414 983 1373 979 l 1414 956 q 1284 761 1332 916 l 1051 0 q 978 3 1008 3 q 905 0 950 3 l 725 551 l 529 0 q 456 3 486 3 q 383 0 428 3 l 61 867 q 22 932 45 911 q -21 956 0 954 l -21 983 q 225 979 80 979 q 410 983 352 979 l 410 956 q 373 900 373 948 q 385 839 373 869 l 587 273 l 708 602 l 614 890 q 586 939 603 924 q 543 956 569 954 l 543 983 q 783 979 637 979 q 999 983 928 979 l 999 956 q 926 943 948 954 q 904 903 904 932 q 918 839 904 880 l 1101 282 l 1208 625 q 1245 819 1245 745 q 1214 921 1245 889 q 1125 956 1183 954 l 1125 983 q 1307 979 1229 979 m 603 1304 q 643 1277 626 1293 q 688 1226 661 1260 q 822 1089 754 1147 l 812 1072 q 627 1114 729 1098 q 562 1126 586 1120 q 517 1143 538 1132 q 478 1178 492 1156 q 464 1225 464 1200 q 472 1261 464 1243 q 509 1300 485 1287 q 560 1314 532 1314 q 603 1304 583 1314 z "},"X":{"ha":1013,"x_min":-8,"x_max":1047,"o":"m 961 98 q 994 56 982 69 q 1017 37 1005 43 q 1047 29 1029 31 l 1047 0 l 1016 1 q 810 5 896 5 q 597 1 720 5 l 568 0 l 568 29 q 634 34 613 29 q 654 53 654 39 q 644 77 654 62 l 413 408 l 328 301 q 256 138 256 214 q 287 61 256 91 q 372 28 318 32 l 372 0 q 132 4 293 4 q -3 0 43 4 l -3 28 q 228 225 106 73 l 395 434 l 78 886 q 45 929 57 916 q 22 948 34 942 q -8 956 10 954 l -8 985 q 25 983 -1 985 q 243 979 190 979 q 437 984 323 979 l 467 985 l 467 956 q 400 950 421 956 q 380 932 380 945 q 390 908 380 922 l 591 622 l 671 720 q 741 865 741 800 q 715 928 741 904 q 643 956 690 951 l 643 983 q 828 979 722 979 q 962 983 917 979 l 962 956 q 868 896 918 939 q 775 799 819 852 l 610 596 l 961 98 z "},"Y":{"ha":895,"x_min":-12,"x_max":884,"o":"m 777 981 q 884 985 842 981 l 884 957 q 736 772 812 922 l 607 517 l 607 147 q 614 71 607 95 q 642 39 622 47 q 705 28 661 30 l 705 0 q 467 4 625 4 q 227 0 302 4 l 227 28 q 291 39 271 30 q 318 71 311 47 q 325 147 325 94 l 325 403 l 68 878 q 25 937 45 918 q -12 956 4 956 l -12 985 q 179 977 73 977 q 485 985 299 977 l 485 956 q 401 950 429 956 q 373 924 373 945 q 379 903 373 915 l 577 522 l 640 647 q 706 854 706 779 q 595 957 706 952 l 595 985 q 777 981 699 981 z "},"Ý":{"ha":895,"x_min":-12,"x_max":884,"o":"m 0 0 m 777 981 q 884 985 842 981 l 884 957 q 736 772 812 922 l 607 517 l 607 147 q 614 71 607 95 q 642 39 622 47 q 705 28 661 30 l 705 0 q 467 4 625 4 q 227 0 302 4 l 227 28 q 291 39 271 30 q 318 71 311 47 q 325 147 325 94 l 325 403 l 68 878 q 25 937 45 918 q -12 956 4 956 l -12 985 q 179 977 73 977 q 485 985 299 977 l 485 956 q 401 950 429 956 q 373 924 373 945 q 379 903 373 915 l 577 522 l 640 647 q 706 854 706 779 q 595 957 706 952 l 595 985 q 777 981 699 981 m 591 1304 q 633 1314 610 1314 q 684 1300 661 1314 q 721 1261 708 1287 q 729 1225 729 1243 q 715 1177 729 1200 q 677 1143 701 1155 q 631 1126 655 1132 q 566 1114 608 1120 q 380 1072 462 1097 l 371 1089 q 505 1226 439 1147 q 551 1277 534 1261 q 591 1304 568 1293 z "},"Ŷ":{"ha":895,"x_min":-12,"x_max":884,"o":"m 0 0 m 777 981 q 884 985 842 981 l 884 957 q 736 772 812 922 l 607 517 l 607 147 q 614 71 607 95 q 642 39 622 47 q 705 28 661 30 l 705 0 q 467 4 625 4 q 227 0 302 4 l 227 28 q 291 39 271 30 q 318 71 311 47 q 325 147 325 94 l 325 403 l 68 878 q 25 937 45 918 q -12 956 4 956 l -12 985 q 179 977 73 977 q 485 985 299 977 l 485 956 q 401 950 429 956 q 373 924 373 945 q 379 903 373 915 l 577 522 l 640 647 q 706 854 706 779 q 595 957 706 952 l 595 985 q 777 981 699 981 m 496 1328 q 627 1197 546 1261 q 798 1089 707 1132 l 791 1068 q 603 1106 696 1083 q 456 1153 511 1130 q 332 1106 410 1130 q 177 1068 255 1083 l 170 1089 q 338 1195 258 1131 q 471 1328 418 1259 l 496 1328 z "},"Ÿ":{"ha":895,"x_min":-12,"x_max":884,"o":"m 0 0 m 777 981 q 884 985 842 981 l 884 957 q 736 772 812 922 l 607 517 l 607 147 q 614 71 607 95 q 642 39 622 47 q 705 28 661 30 l 705 0 q 467 4 625 4 q 227 0 302 4 l 227 28 q 291 39 271 30 q 318 71 311 47 q 325 147 325 94 l 325 403 l 68 878 q 25 937 45 918 q -12 956 4 956 l -12 985 q 179 977 73 977 q 485 985 299 977 l 485 956 q 401 950 429 956 q 373 924 373 945 q 379 903 373 915 l 577 522 l 640 647 q 706 854 706 779 q 595 957 706 952 l 595 985 q 777 981 699 981 m 304 1300 q 363 1283 336 1300 q 408 1238 391 1266 q 425 1179 425 1211 q 409 1119 425 1147 q 364 1075 392 1091 q 304 1059 336 1059 q 244 1075 272 1059 q 200 1119 216 1091 q 184 1179 184 1146 q 200 1239 184 1211 q 244 1283 216 1267 q 304 1300 272 1300 m 663 1300 q 722 1283 694 1300 q 766 1238 749 1266 q 783 1179 783 1211 q 767 1119 783 1147 q 722 1075 750 1091 q 663 1059 694 1059 q 602 1075 630 1059 q 558 1119 574 1091 q 542 1179 542 1146 q 558 1239 542 1211 q 602 1283 574 1267 q 663 1300 630 1300 z "},"Ỳ":{"ha":895,"x_min":-12,"x_max":884,"o":"m 0 0 m 777 981 q 884 985 842 981 l 884 957 q 736 772 812 922 l 607 517 l 607 147 q 614 71 607 95 q 642 39 622 47 q 705 28 661 30 l 705 0 q 467 4 625 4 q 227 0 302 4 l 227 28 q 291 39 271 30 q 318 71 311 47 q 325 147 325 94 l 325 403 l 68 878 q 25 937 45 918 q -12 956 4 956 l -12 985 q 179 977 73 977 q 485 985 299 977 l 485 956 q 401 950 429 956 q 373 924 373 945 q 379 903 373 915 l 577 522 l 640 647 q 706 854 706 779 q 595 957 706 952 l 595 985 q 777 981 699 981 m 357 1304 q 398 1277 380 1293 q 443 1226 415 1260 q 576 1089 509 1147 l 567 1072 q 381 1114 484 1098 q 317 1126 340 1120 q 271 1143 293 1132 q 233 1178 247 1156 q 218 1225 218 1200 q 227 1261 218 1243 q 263 1300 239 1287 q 315 1314 287 1314 q 357 1304 337 1314 z "},"Z":{"ha":843,"x_min":52,"x_max":790,"o":"m 358 32 l 416 32 q 547 65 473 32 q 680 172 621 98 q 753 361 740 245 l 785 361 q 781 233 781 311 q 790 0 781 92 q 444 4 688 4 q 52 0 174 4 l 52 28 l 472 951 l 403 951 q 273 923 338 951 q 157 828 208 895 q 92 650 106 760 l 60 650 q 64 750 64 686 q 54 983 64 853 q 345 979 140 979 q 779 983 644 979 l 779 956 l 358 32 z "},"Ź":{"ha":843,"x_min":52,"x_max":790,"o":"m 52 0 m 358 32 l 416 32 q 547 65 473 32 q 680 172 621 98 q 753 361 740 245 l 785 361 q 781 233 781 311 q 790 0 781 92 q 444 4 688 4 q 52 0 174 4 l 52 28 l 472 951 l 403 951 q 273 923 338 951 q 157 828 208 895 q 92 650 106 760 l 60 650 q 64 750 64 686 q 54 983 64 853 q 345 979 140 979 q 779 983 644 979 l 779 956 l 358 32 m 532 1304 q 575 1314 551 1314 q 626 1300 602 1314 q 663 1261 650 1287 q 671 1225 671 1243 q 657 1177 671 1200 q 618 1143 643 1155 q 573 1126 597 1132 q 508 1114 549 1120 q 322 1072 404 1097 l 313 1089 q 446 1226 380 1147 q 492 1277 475 1261 q 532 1304 509 1293 z "},"Ž":{"ha":843,"x_min":52,"x_max":790,"o":"m 52 0 m 358 32 l 416 32 q 547 65 473 32 q 680 172 621 98 q 753 361 740 245 l 785 361 q 781 233 781 311 q 790 0 781 92 q 444 4 688 4 q 52 0 174 4 l 52 28 l 472 951 l 403 951 q 273 923 338 951 q 157 828 208 895 q 92 650 106 760 l 60 650 q 64 750 64 686 q 54 983 64 853 q 345 979 140 979 q 779 983 644 979 l 779 956 l 358 32 m 735 1293 q 566 1187 646 1251 q 434 1054 486 1122 l 409 1054 q 278 1186 358 1121 q 107 1293 197 1251 l 115 1314 q 302 1276 210 1299 q 449 1229 395 1253 q 572 1276 495 1253 q 728 1314 650 1299 l 735 1293 z "},"Ż":{"ha":843,"x_min":52,"x_max":790,"o":"m 52 0 m 358 32 l 416 32 q 547 65 473 32 q 680 172 621 98 q 753 361 740 245 l 785 361 q 781 233 781 311 q 790 0 781 92 q 444 4 688 4 q 52 0 174 4 l 52 28 l 472 951 l 403 951 q 273 923 338 951 q 157 828 208 895 q 92 650 106 760 l 60 650 q 64 750 64 686 q 54 983 64 853 q 345 979 140 979 q 779 983 644 979 l 779 956 l 358 32 m 425 1356 q 537 1325 498 1356 q 576 1236 576 1295 q 537 1147 576 1177 q 425 1116 498 1116 q 313 1146 351 1116 q 274 1236 274 1177 q 313 1325 274 1295 q 425 1356 351 1356 z "},"a":{"ha":737,"x_min":31,"x_max":728,"o":"m 378 741 q 512 725 457 741 q 604 671 567 710 q 641 598 631 642 q 650 476 650 555 l 650 104 q 654 58 650 71 q 671 45 659 45 q 691 50 682 45 q 714 65 700 55 l 728 41 q 652 2 695 14 q 547 -9 608 -9 q 440 20 474 -9 q 404 96 406 50 q 322 19 375 47 q 205 -9 269 -9 q 77 34 123 -9 q 31 150 31 77 q 73 269 31 221 q 207 346 116 316 q 316 388 281 372 q 376 424 352 403 q 400 475 400 446 l 400 599 q 378 678 400 643 q 297 713 356 713 q 259 706 279 713 q 224 689 239 699 q 317 564 317 654 q 300 505 317 531 q 253 463 283 478 q 183 447 222 447 q 123 463 149 447 q 83 507 98 479 q 69 568 69 534 q 93 643 69 610 q 155 696 116 675 q 378 741 243 741 m 400 418 q 346 357 390 401 q 278 200 278 291 q 349 102 278 102 q 400 125 378 102 l 400 418 z "},"á":{"ha":737,"x_min":31,"x_max":728,"o":"m 31 0 m 378 741 q 512 725 457 741 q 604 671 567 710 q 641 598 631 642 q 650 476 650 555 l 650 104 q 654 58 650 71 q 671 45 659 45 q 691 50 682 45 q 714 65 700 55 l 728 41 q 652 2 695 14 q 547 -9 608 -9 q 440 20 474 -9 q 404 96 406 50 q 322 19 375 47 q 205 -9 269 -9 q 77 34 123 -9 q 31 150 31 77 q 73 269 31 221 q 207 346 116 316 q 316 388 281 372 q 376 424 352 403 q 400 475 400 446 l 400 599 q 378 678 400 643 q 297 713 356 713 q 259 706 279 713 q 224 689 239 699 q 317 564 317 654 q 300 505 317 531 q 253 463 283 478 q 183 447 222 447 q 123 463 149 447 q 83 507 98 479 q 69 568 69 534 q 93 643 69 610 q 155 696 116 675 q 378 741 243 741 m 400 418 q 346 357 390 401 q 278 200 278 291 q 349 102 278 102 q 400 125 378 102 l 400 418 m 528 1139 q 557 1076 557 1116 q 534 1013 557 1040 q 500 981 518 994 q 444 943 481 967 q 289 832 357 890 l 274 844 q 343 1023 315 924 q 365 1086 355 1064 q 392 1128 375 1109 q 425 1152 405 1143 q 467 1161 446 1161 q 528 1139 502 1161 z "},"ă":{"ha":737,"x_min":31,"x_max":728,"o":"m 31 0 m 378 741 q 512 725 457 741 q 604 671 567 710 q 641 598 631 642 q 650 476 650 555 l 650 104 q 654 58 650 71 q 671 45 659 45 q 691 50 682 45 q 714 65 700 55 l 728 41 q 652 2 695 14 q 547 -9 608 -9 q 440 20 474 -9 q 404 96 406 50 q 322 19 375 47 q 205 -9 269 -9 q 77 34 123 -9 q 31 150 31 77 q 73 269 31 221 q 207 346 116 316 q 316 388 281 372 q 376 424 352 403 q 400 475 400 446 l 400 599 q 378 678 400 643 q 297 713 356 713 q 259 706 279 713 q 224 689 239 699 q 317 564 317 654 q 300 505 317 531 q 253 463 283 478 q 183 447 222 447 q 123 463 149 447 q 83 507 98 479 q 69 568 69 534 q 93 643 69 610 q 155 696 116 675 q 378 741 243 741 m 400 418 q 346 357 390 401 q 278 200 278 291 q 349 102 278 102 q 400 125 378 102 l 400 418 m 649 1082 q 554 918 621 985 q 372 851 488 851 q 191 918 257 851 q 96 1082 124 985 l 120 1095 q 372 1017 216 1017 q 625 1095 529 1017 l 649 1082 z "},"â":{"ha":737,"x_min":31,"x_max":728,"o":"m 31 0 m 378 741 q 512 725 457 741 q 604 671 567 710 q 641 598 631 642 q 650 476 650 555 l 650 104 q 654 58 650 71 q 671 45 659 45 q 691 50 682 45 q 714 65 700 55 l 728 41 q 652 2 695 14 q 547 -9 608 -9 q 440 20 474 -9 q 404 96 406 50 q 322 19 375 47 q 205 -9 269 -9 q 77 34 123 -9 q 31 150 31 77 q 73 269 31 221 q 207 346 116 316 q 316 388 281 372 q 376 424 352 403 q 400 475 400 446 l 400 599 q 378 678 400 643 q 297 713 356 713 q 259 706 279 713 q 224 689 239 699 q 317 564 317 654 q 300 505 317 531 q 253 463 283 478 q 183 447 222 447 q 123 463 149 447 q 83 507 98 479 q 69 568 69 534 q 93 643 69 610 q 155 696 116 675 q 378 741 243 741 m 400 418 q 346 357 390 401 q 278 200 278 291 q 349 102 278 102 q 400 125 378 102 l 400 418 m 386 1156 q 499 991 430 1071 q 646 861 568 912 l 635 842 q 473 879 552 857 q 346 925 394 902 q 242 879 306 902 q 113 842 178 857 l 101 861 q 245 990 177 911 q 361 1156 314 1069 l 386 1156 z "},"ä":{"ha":737,"x_min":31,"x_max":728,"o":"m 31 0 m 378 741 q 512 725 457 741 q 604 671 567 710 q 641 598 631 642 q 650 476 650 555 l 650 104 q 654 58 650 71 q 671 45 659 45 q 691 50 682 45 q 714 65 700 55 l 728 41 q 652 2 695 14 q 547 -9 608 -9 q 440 20 474 -9 q 404 96 406 50 q 322 19 375 47 q 205 -9 269 -9 q 77 34 123 -9 q 31 150 31 77 q 73 269 31 221 q 207 346 116 316 q 316 388 281 372 q 376 424 352 403 q 400 475 400 446 l 400 599 q 378 678 400 643 q 297 713 356 713 q 259 706 279 713 q 224 689 239 699 q 317 564 317 654 q 300 505 317 531 q 253 463 283 478 q 183 447 222 447 q 123 463 149 447 q 83 507 98 479 q 69 568 69 534 q 93 643 69 610 q 155 696 116 675 q 378 741 243 741 m 400 418 q 346 357 390 401 q 278 200 278 291 q 349 102 278 102 q 400 125 378 102 l 400 418 m 210 1072 q 269 1055 241 1072 q 314 1010 297 1038 q 331 951 331 983 q 314 891 331 919 q 270 847 298 863 q 210 831 241 831 q 149 847 177 831 q 105 891 121 863 q 89 951 89 919 q 105 1011 89 983 q 150 1056 121 1039 q 210 1072 178 1072 m 541 1072 q 600 1055 572 1072 q 644 1010 627 1038 q 661 951 661 983 q 645 891 661 919 q 600 847 628 863 q 541 831 572 831 q 480 847 508 831 q 436 891 452 863 q 420 951 420 919 q 436 1011 420 983 q 480 1056 452 1039 q 541 1072 508 1072 z "},"à":{"ha":737,"x_min":31,"x_max":728,"o":"m 31 0 m 378 741 q 512 725 457 741 q 604 671 567 710 q 641 598 631 642 q 650 476 650 555 l 650 104 q 654 58 650 71 q 671 45 659 45 q 691 50 682 45 q 714 65 700 55 l 728 41 q 652 2 695 14 q 547 -9 608 -9 q 440 20 474 -9 q 404 96 406 50 q 322 19 375 47 q 205 -9 269 -9 q 77 34 123 -9 q 31 150 31 77 q 73 269 31 221 q 207 346 116 316 q 316 388 281 372 q 376 424 352 403 q 400 475 400 446 l 400 599 q 378 678 400 643 q 297 713 356 713 q 259 706 279 713 q 224 689 239 699 q 317 564 317 654 q 300 505 317 531 q 253 463 283 478 q 183 447 222 447 q 123 463 149 447 q 83 507 98 479 q 69 568 69 534 q 93 643 69 610 q 155 696 116 675 q 378 741 243 741 m 400 418 q 346 357 390 401 q 278 200 278 291 q 349 102 278 102 q 400 125 378 102 l 400 418 m 197 1139 q 257 1162 222 1162 q 300 1152 279 1162 q 334 1128 321 1143 q 360 1087 351 1109 q 382 1023 369 1065 q 412 935 397 974 q 452 844 426 895 l 436 832 q 281 943 370 888 q 224 981 241 968 q 192 1013 207 994 q 169 1076 169 1040 q 197 1139 169 1115 z "},"ā":{"ha":737,"x_min":31,"x_max":728,"o":"m 31 0 m 378 741 q 512 725 457 741 q 604 671 567 710 q 641 598 631 642 q 650 476 650 555 l 650 104 q 654 58 650 71 q 671 45 659 45 q 691 50 682 45 q 714 65 700 55 l 728 41 q 652 2 695 14 q 547 -9 608 -9 q 440 20 474 -9 q 404 96 406 50 q 322 19 375 47 q 205 -9 269 -9 q 77 34 123 -9 q 31 150 31 77 q 73 269 31 221 q 207 346 116 316 q 316 388 281 372 q 376 424 352 403 q 400 475 400 446 l 400 599 q 378 678 400 643 q 297 713 356 713 q 259 706 279 713 q 224 689 239 699 q 317 564 317 654 q 300 505 317 531 q 253 463 283 478 q 183 447 222 447 q 123 463 149 447 q 83 507 98 479 q 69 568 69 534 q 93 643 69 610 q 155 696 116 675 q 378 741 243 741 m 400 418 q 346 357 390 401 q 278 200 278 291 q 349 102 278 102 q 400 125 378 102 l 400 418 m 125 954 l 125 989 l 614 989 l 614 954 l 125 954 z "},"ą":{"ha":737,"x_min":31,"x_max":728,"o":"m 605 -178 q 654 -169 628 -178 q 696 -146 681 -159 l 714 -167 q 624 -239 674 -217 q 502 -261 574 -261 q 399 -236 435 -261 q 364 -163 364 -210 q 412 -73 364 -111 q 551 -9 460 -34 l 547 -9 q 440 20 474 -9 q 404 96 406 50 q 322 19 375 47 q 205 -9 269 -9 q 77 34 123 -9 q 31 150 31 77 q 73 269 31 221 q 207 346 116 316 q 316 388 281 372 q 376 424 352 403 q 400 475 400 446 l 400 599 q 378 678 400 643 q 297 713 356 713 q 259 706 279 713 q 224 689 239 699 q 317 564 317 654 q 300 505 317 531 q 253 463 283 478 q 183 447 222 447 q 123 463 149 447 q 83 507 98 479 q 69 568 69 534 q 93 643 69 610 q 155 696 116 675 q 378 741 243 741 q 512 725 457 741 q 604 671 567 710 q 641 598 631 642 q 650 476 650 555 l 650 104 q 654 58 650 71 q 671 45 659 45 q 691 50 682 45 q 714 65 700 55 l 728 41 q 665 6 701 18 q 644 -5 660 3 q 571 -62 593 -31 q 549 -125 549 -94 q 563 -165 549 -153 q 605 -178 577 -178 m 400 418 q 346 357 390 401 q 278 200 278 291 q 349 102 278 102 q 400 125 378 102 l 400 418 z "},"å":{"ha":737,"x_min":31,"x_max":728,"o":"m 31 0 m 378 741 q 512 725 457 741 q 604 671 567 710 q 641 598 631 642 q 650 476 650 555 l 650 104 q 654 58 650 71 q 671 45 659 45 q 691 50 682 45 q 714 65 700 55 l 728 41 q 652 2 695 14 q 547 -9 608 -9 q 440 20 474 -9 q 404 96 406 50 q 322 19 375 47 q 205 -9 269 -9 q 77 34 123 -9 q 31 150 31 77 q 73 269 31 221 q 207 346 116 316 q 316 388 281 372 q 376 424 352 403 q 400 475 400 446 l 400 599 q 378 678 400 643 q 297 713 356 713 q 259 706 279 713 q 224 689 239 699 q 317 564 317 654 q 300 505 317 531 q 253 463 283 478 q 183 447 222 447 q 123 463 149 447 q 83 507 98 479 q 69 568 69 534 q 93 643 69 610 q 155 696 116 675 q 378 741 243 741 m 400 418 q 346 357 390 401 q 278 200 278 291 q 349 102 278 102 q 400 125 378 102 l 400 418 m 374 1112 q 454 1095 417 1112 q 514 1046 492 1078 q 536 972 536 1014 q 514 898 536 930 q 454 848 492 865 q 374 831 417 831 q 294 848 331 831 q 235 898 257 865 q 213 972 213 930 q 235 1046 213 1014 q 294 1095 257 1078 q 374 1112 331 1112 m 374 1083 q 316 1070 344 1083 q 270 1031 288 1057 q 252 971 252 1006 q 269 910 252 935 q 315 872 287 885 q 374 860 343 860 q 433 872 405 860 q 480 910 462 885 q 498 971 498 935 q 480 1031 498 1006 q 433 1070 462 1057 q 374 1083 404 1083 z "},"ã":{"ha":737,"x_min":31,"x_max":728,"o":"m 31 0 m 378 741 q 512 725 457 741 q 604 671 567 710 q 641 598 631 642 q 650 476 650 555 l 650 104 q 654 58 650 71 q 671 45 659 45 q 691 50 682 45 q 714 65 700 55 l 728 41 q 652 2 695 14 q 547 -9 608 -9 q 440 20 474 -9 q 404 96 406 50 q 322 19 375 47 q 205 -9 269 -9 q 77 34 123 -9 q 31 150 31 77 q 73 269 31 221 q 207 346 116 316 q 316 388 281 372 q 376 424 352 403 q 400 475 400 446 l 400 599 q 378 678 400 643 q 297 713 356 713 q 259 706 279 713 q 224 689 239 699 q 317 564 317 654 q 300 505 317 531 q 253 463 283 478 q 183 447 222 447 q 123 463 149 447 q 83 507 98 479 q 69 568 69 534 q 93 643 69 610 q 155 696 116 675 q 378 741 243 741 m 400 418 q 346 357 390 401 q 278 200 278 291 q 349 102 278 102 q 400 125 378 102 l 400 418 m 255 1108 q 328 1096 298 1108 q 396 1059 357 1083 q 452 1027 429 1038 q 507 1017 476 1017 q 614 1090 569 1017 l 633 1080 q 563 910 610 966 q 455 854 515 854 q 381 867 412 854 q 313 905 351 880 q 257 937 281 926 q 203 947 233 947 q 96 872 141 947 l 76 882 q 146 1053 99 997 q 255 1108 194 1108 z "},"æ":{"ha":1015,"x_min":35,"x_max":979,"o":"m 793 132 q 947 225 886 132 l 971 216 q 917 101 953 155 q 825 14 881 48 q 694 -20 768 -20 q 543 14 610 -20 q 437 120 477 48 q 343 23 397 56 q 210 -9 290 -9 q 81 34 127 -9 q 35 150 35 77 q 77 268 35 220 q 211 346 119 315 q 310 386 275 370 q 368 424 345 402 q 390 475 390 446 l 390 599 q 368 678 390 644 q 288 713 347 713 q 214 689 250 713 q 307 564 307 654 q 291 505 307 531 q 243 463 274 478 q 174 447 213 447 q 114 463 140 447 q 74 507 88 479 q 60 568 60 534 q 83 643 60 610 q 146 696 106 675 q 335 741 231 741 q 445 726 403 741 q 522 675 488 711 q 730 741 606 741 q 915 666 851 741 q 979 429 979 591 l 648 429 q 647 379 647 413 q 689 189 647 245 q 793 132 732 132 m 721 708 q 668 649 688 708 q 643 456 648 589 l 777 456 q 764 637 778 566 q 721 708 750 708 m 353 123 q 425 146 397 123 q 387 359 387 231 q 390 416 387 392 l 390 418 q 350 357 378 389 q 300 286 317 319 q 282 210 282 252 q 353 123 282 123 z "},"b":{"ha":835,"x_min":9,"x_max":790,"o":"m 549 741 q 673 702 619 741 q 759 585 728 663 q 790 392 790 507 q 701 76 790 172 q 467 -20 612 -20 q 389 -16 420 -20 q 330 0 358 -12 q 231 18 283 18 q 152 7 189 18 q 97 -22 116 -4 l 78 -8 q 87 68 87 21 l 87 920 q 70 1013 87 984 q 9 1042 52 1042 l 9 1071 q 96 1067 53 1067 q 338 1086 241 1067 l 338 636 q 549 741 401 741 m 403 8 q 530 359 530 8 q 506 600 530 531 q 437 668 481 668 q 389 655 412 668 q 352 620 366 642 q 338 568 338 597 l 338 24 q 403 8 370 8 z "},"c":{"ha":699,"x_min":41,"x_max":667,"o":"m 399 741 q 504 729 456 741 q 582 699 551 717 q 643 638 621 676 q 665 554 665 601 q 648 485 665 516 q 600 437 631 454 q 532 419 570 419 q 438 454 472 419 q 404 545 404 488 q 437 632 404 595 q 518 684 470 670 q 463 700 496 700 q 337 605 373 700 q 301 379 301 509 q 352 189 301 245 q 475 132 402 132 q 643 225 576 132 l 667 216 q 610 102 648 155 q 513 14 572 48 q 376 -20 454 -20 q 133 71 224 -20 q 41 359 41 161 q 87 574 41 488 q 214 700 134 659 q 399 741 294 741 z "},"ć":{"ha":699,"x_min":41,"x_max":667,"o":"m 41 0 m 399 741 q 504 729 456 741 q 582 699 551 717 q 643 638 621 676 q 665 554 665 601 q 648 485 665 516 q 600 437 631 454 q 532 419 570 419 q 438 454 472 419 q 404 545 404 488 q 437 632 404 595 q 518 684 470 670 q 463 700 496 700 q 337 605 373 700 q 301 379 301 509 q 352 189 301 245 q 475 132 402 132 q 643 225 576 132 l 667 216 q 610 102 648 155 q 513 14 572 48 q 376 -20 454 -20 q 133 71 224 -20 q 41 359 41 161 q 87 574 41 488 q 214 700 134 659 q 399 741 294 741 m 531 1139 q 559 1076 559 1116 q 536 1013 559 1040 q 503 981 521 994 q 447 943 484 967 q 292 832 360 890 l 277 844 q 346 1023 317 924 q 368 1086 358 1064 q 395 1128 378 1109 q 428 1152 408 1143 q 470 1161 448 1161 q 531 1139 505 1161 z "},"č":{"ha":699,"x_min":41,"x_max":667,"o":"m 41 0 m 399 741 q 504 729 456 741 q 582 699 551 717 q 643 638 621 676 q 665 554 665 601 q 648 485 665 516 q 600 437 631 454 q 532 419 570 419 q 438 454 472 419 q 404 545 404 488 q 437 632 404 595 q 518 684 470 670 q 463 700 496 700 q 337 605 373 700 q 301 379 301 509 q 352 189 301 245 q 475 132 402 132 q 643 225 576 132 l 667 216 q 610 102 648 155 q 513 14 572 48 q 376 -20 454 -20 q 133 71 224 -20 q 41 359 41 161 q 87 574 41 488 q 214 700 134 659 q 399 741 294 741 m 635 1136 q 490 1007 559 1086 q 375 842 422 928 l 350 842 q 237 1006 306 926 q 90 1136 168 1085 l 102 1156 q 263 1118 184 1141 q 391 1072 342 1095 q 494 1118 430 1095 q 624 1156 557 1141 l 635 1136 z "},"ç":{"ha":699,"x_min":41,"x_max":667,"o":"m 355 -19 l 337 -83 q 447 -62 386 -62 q 523 -85 497 -62 q 549 -143 549 -107 q 489 -231 549 -201 q 330 -261 429 -261 q 205 -243 253 -261 l 214 -218 q 280 -225 244 -225 q 340 -212 314 -225 q 366 -172 366 -198 q 328 -138 366 -138 q 281 -147 298 -138 l 319 -16 q 116 91 191 -1 q 41 359 41 182 q 87 574 41 488 q 214 700 134 659 q 399 741 294 741 q 504 729 456 741 q 582 699 551 717 q 643 638 621 676 q 665 554 665 601 q 648 485 665 516 q 600 437 631 454 q 532 419 570 419 q 438 454 472 419 q 404 545 404 488 q 437 632 404 595 q 518 684 470 670 q 463 700 496 700 q 337 605 373 700 q 301 379 301 509 q 352 189 301 245 q 475 132 402 132 q 643 225 576 132 l 667 216 q 610 102 648 155 q 513 14 572 48 q 376 -20 454 -20 l 355 -19 z "},"ĉ":{"ha":699,"x_min":41,"x_max":667,"o":"m 41 0 m 399 741 q 504 729 456 741 q 582 699 551 717 q 643 638 621 676 q 665 554 665 601 q 648 485 665 516 q 600 437 631 454 q 532 419 570 419 q 438 454 472 419 q 404 545 404 488 q 437 632 404 595 q 518 684 470 670 q 463 700 496 700 q 337 605 373 700 q 301 379 301 509 q 352 189 301 245 q 475 132 402 132 q 643 225 576 132 l 667 216 q 610 102 648 155 q 513 14 572 48 q 376 -20 454 -20 q 133 71 224 -20 q 41 359 41 161 q 87 574 41 488 q 214 700 134 659 q 399 741 294 741 m 389 1156 q 502 991 433 1071 q 648 861 571 912 l 637 842 q 476 879 555 857 q 349 925 397 902 q 245 879 309 902 q 115 842 181 857 l 104 861 q 248 990 180 911 q 363 1156 317 1069 l 389 1156 z "},"ċ":{"ha":699,"x_min":41,"x_max":667,"o":"m 41 0 m 399 741 q 504 729 456 741 q 582 699 551 717 q 643 638 621 676 q 665 554 665 601 q 648 485 665 516 q 600 437 631 454 q 532 419 570 419 q 438 454 472 419 q 404 545 404 488 q 437 632 404 595 q 518 684 470 670 q 463 700 496 700 q 337 605 373 700 q 301 379 301 509 q 352 189 301 245 q 475 132 402 132 q 643 225 576 132 l 667 216 q 610 102 648 155 q 513 14 572 48 q 376 -20 454 -20 q 133 71 224 -20 q 41 359 41 161 q 87 574 41 488 q 214 700 134 659 q 399 741 294 741 m 376 1086 q 488 1056 449 1086 q 528 966 528 1025 q 488 878 528 908 q 376 847 449 847 q 264 877 302 847 q 225 966 225 907 q 264 1056 225 1025 q 376 1086 302 1086 z "},"d":{"ha":846,"x_min":43,"x_max":823,"o":"m 746 153 q 763 59 746 88 q 823 31 781 31 l 823 1 q 737 5 780 5 q 496 -14 593 5 l 496 85 q 427 5 467 31 q 326 -20 387 -20 q 180 21 243 -20 q 79 148 116 62 q 43 366 43 234 q 81 572 43 488 q 188 699 119 656 q 351 741 257 741 q 496 705 442 741 l 496 920 q 478 1013 496 984 q 418 1042 460 1042 l 418 1071 q 504 1067 461 1067 q 746 1086 650 1067 l 746 153 m 396 53 q 445 66 422 53 q 481 101 467 79 q 496 153 496 124 l 496 676 q 431 694 466 694 q 334 612 366 694 q 302 361 302 530 q 328 121 302 190 q 396 53 353 53 z "},"ð":{"ha":799,"x_min":45,"x_max":754,"o":"m 462 956 q 676 726 599 861 q 754 425 754 591 q 661 89 754 199 q 401 -22 568 -22 q 138 63 231 -22 q 45 345 45 149 q 89 576 45 488 q 205 702 132 664 q 368 741 277 741 q 466 722 425 741 q 373 912 436 833 l 167 811 l 154 836 l 355 934 q 178 1063 285 1011 l 189 1086 q 435 973 324 1045 l 636 1071 l 648 1046 l 462 956 m 401 5 q 498 414 498 5 q 472 699 498 586 q 432 705 452 705 q 336 621 367 705 q 304 361 304 537 q 331 94 304 182 q 401 5 357 5 z "},"ď":{"ha":846,"x_min":43,"x_max":985,"o":"m 43 0 m 746 153 q 763 59 746 88 q 823 31 781 31 l 823 1 q 737 5 780 5 q 496 -14 593 5 l 496 85 q 427 5 467 31 q 326 -20 387 -20 q 180 21 243 -20 q 79 148 116 62 q 43 366 43 234 q 81 572 43 488 q 188 699 119 656 q 351 741 257 741 q 496 705 442 741 l 496 920 q 478 1013 496 984 q 418 1042 460 1042 l 418 1071 q 504 1067 461 1067 q 746 1086 650 1067 l 746 153 m 396 53 q 445 66 422 53 q 481 101 467 79 q 496 153 496 124 l 496 676 q 431 694 466 694 q 334 612 366 694 q 302 361 302 530 q 328 121 302 190 q 396 53 353 53 m 978 1089 q 983 1064 981 1082 q 985 1032 985 1046 q 966 972 985 1006 q 916 898 947 938 q 822 782 884 857 l 803 787 q 831 989 831 948 q 825 1031 831 1018 q 803 1044 819 1044 l 803 1074 q 841 1073 817 1073 q 911 1077 882 1073 q 978 1089 941 1081 z "},"đ":{"ha":846,"x_min":43,"x_max":838,"o":"m 746 153 q 763 59 746 88 q 823 31 781 31 l 823 1 q 737 5 780 5 q 496 -14 593 5 l 496 85 q 427 5 467 31 q 326 -20 387 -20 q 180 21 243 -20 q 79 148 116 62 q 43 366 43 234 q 81 572 43 488 q 188 699 119 656 q 351 741 257 741 q 496 705 442 741 l 496 844 l 277 844 l 277 872 l 496 872 l 496 920 q 478 1013 496 984 q 418 1042 460 1042 l 418 1071 q 504 1067 461 1067 q 746 1086 650 1067 l 746 872 l 838 872 l 838 844 l 746 844 l 746 153 m 396 53 q 445 66 422 53 q 481 101 467 79 q 496 153 496 124 l 496 676 q 431 694 466 694 q 334 612 366 694 q 302 361 302 530 q 328 121 302 190 q 396 53 353 53 z "},"e":{"ha":699,"x_min":43,"x_max":663,"o":"m 463 132 q 631 225 564 132 l 654 216 q 597 101 635 155 q 501 14 560 48 q 364 -20 442 -20 q 131 71 218 -20 q 43 359 43 161 q 89 574 43 488 q 215 700 135 659 q 400 741 296 741 q 663 429 663 741 l 304 429 q 302 379 302 413 q 349 189 302 245 q 463 132 395 132 m 390 708 q 329 648 352 708 q 299 456 306 589 l 460 456 q 444 637 461 566 q 390 708 427 708 z "},"é":{"ha":699,"x_min":43,"x_max":663,"o":"m 43 0 m 463 132 q 631 225 564 132 l 654 216 q 597 101 635 155 q 501 14 560 48 q 364 -20 442 -20 q 131 71 218 -20 q 43 359 43 161 q 89 574 43 488 q 215 700 135 659 q 400 741 296 741 q 663 429 663 741 l 304 429 q 302 379 302 413 q 349 189 302 245 q 463 132 395 132 m 390 708 q 329 648 352 708 q 299 456 306 589 l 460 456 q 444 637 461 566 q 390 708 427 708 m 542 1139 q 570 1076 570 1116 q 547 1013 570 1040 q 513 981 532 994 q 458 943 495 967 q 302 832 371 890 l 288 844 q 357 1023 328 924 q 379 1086 369 1064 q 406 1128 389 1109 q 439 1152 418 1143 q 481 1161 459 1161 q 542 1139 515 1161 z "},"ĕ":{"ha":699,"x_min":43,"x_max":663,"o":"m 43 0 m 463 132 q 631 225 564 132 l 654 216 q 597 101 635 155 q 501 14 560 48 q 364 -20 442 -20 q 131 71 218 -20 q 43 359 43 161 q 89 574 43 488 q 215 700 135 659 q 400 741 296 741 q 663 429 663 741 l 304 429 q 302 379 302 413 q 349 189 302 245 q 463 132 395 132 m 390 708 q 329 648 352 708 q 299 456 306 589 l 460 456 q 444 637 461 566 q 390 708 427 708 m 663 1082 q 568 918 635 985 q 386 851 501 851 q 204 918 271 851 q 110 1082 138 985 l 134 1095 q 386 1017 230 1017 q 639 1095 543 1017 l 663 1082 z "},"ě":{"ha":699,"x_min":43,"x_max":663,"o":"m 43 0 m 463 132 q 631 225 564 132 l 654 216 q 597 101 635 155 q 501 14 560 48 q 364 -20 442 -20 q 131 71 218 -20 q 43 359 43 161 q 89 574 43 488 q 215 700 135 659 q 400 741 296 741 q 663 429 663 741 l 304 429 q 302 379 302 413 q 349 189 302 245 q 463 132 395 132 m 390 708 q 329 648 352 708 q 299 456 306 589 l 460 456 q 444 637 461 566 q 390 708 427 708 m 646 1136 q 501 1007 570 1086 q 386 842 433 928 l 361 842 q 248 1006 317 926 q 101 1136 178 1085 l 113 1156 q 274 1118 195 1141 q 401 1072 353 1095 q 505 1118 441 1095 q 635 1156 568 1141 l 646 1136 z "},"ê":{"ha":699,"x_min":43,"x_max":663,"o":"m 43 0 m 463 132 q 631 225 564 132 l 654 216 q 597 101 635 155 q 501 14 560 48 q 364 -20 442 -20 q 131 71 218 -20 q 43 359 43 161 q 89 574 43 488 q 215 700 135 659 q 400 741 296 741 q 663 429 663 741 l 304 429 q 302 379 302 413 q 349 189 302 245 q 463 132 395 132 m 390 708 q 329 648 352 708 q 299 456 306 589 l 460 456 q 444 637 461 566 q 390 708 427 708 m 399 1156 q 513 991 444 1071 q 659 861 582 912 l 648 842 q 487 879 566 857 q 359 925 408 902 q 256 879 319 902 q 126 842 192 857 l 115 861 q 259 990 191 911 q 374 1156 328 1069 l 399 1156 z "},"ë":{"ha":699,"x_min":43,"x_max":675,"o":"m 43 0 m 463 132 q 631 225 564 132 l 654 216 q 597 101 635 155 q 501 14 560 48 q 364 -20 442 -20 q 131 71 218 -20 q 43 359 43 161 q 89 574 43 488 q 215 700 135 659 q 400 741 296 741 q 663 429 663 741 l 304 429 q 302 379 302 413 q 349 189 302 245 q 463 132 395 132 m 390 708 q 329 648 352 708 q 299 456 306 589 l 460 456 q 444 637 461 566 q 390 708 427 708 m 224 1072 q 283 1055 255 1072 q 328 1010 311 1038 q 345 951 345 983 q 328 891 345 919 q 283 847 311 863 q 224 831 255 831 q 163 847 191 831 q 119 891 135 863 q 102 951 102 919 q 119 1011 102 983 q 163 1056 135 1039 q 224 1072 191 1072 m 554 1072 q 613 1055 585 1072 q 658 1010 641 1038 q 675 951 675 983 q 658 891 675 919 q 613 847 642 863 q 554 831 585 831 q 494 847 522 831 q 450 891 466 863 q 433 951 433 919 q 450 1011 433 983 q 494 1056 466 1039 q 554 1072 522 1072 z "},"ė":{"ha":699,"x_min":43,"x_max":663,"o":"m 43 0 m 463 132 q 631 225 564 132 l 654 216 q 597 101 635 155 q 501 14 560 48 q 364 -20 442 -20 q 131 71 218 -20 q 43 359 43 161 q 89 574 43 488 q 215 700 135 659 q 400 741 296 741 q 663 429 663 741 l 304 429 q 302 379 302 413 q 349 189 302 245 q 463 132 395 132 m 390 708 q 329 648 352 708 q 299 456 306 589 l 460 456 q 444 637 461 566 q 390 708 427 708 m 387 1086 q 499 1056 460 1086 q 538 966 538 1025 q 499 878 538 908 q 387 847 460 847 q 275 877 313 847 q 236 966 236 907 q 275 1056 236 1025 q 387 1086 313 1086 z "},"è":{"ha":699,"x_min":43,"x_max":663,"o":"m 43 0 m 463 132 q 631 225 564 132 l 654 216 q 597 101 635 155 q 501 14 560 48 q 364 -20 442 -20 q 131 71 218 -20 q 43 359 43 161 q 89 574 43 488 q 215 700 135 659 q 400 741 296 741 q 663 429 663 741 l 304 429 q 302 379 302 413 q 349 189 302 245 q 463 132 395 132 m 390 708 q 329 648 352 708 q 299 456 306 589 l 460 456 q 444 637 461 566 q 390 708 427 708 m 211 1139 q 271 1162 236 1162 q 313 1152 292 1162 q 347 1128 334 1143 q 373 1087 364 1109 q 395 1023 382 1065 q 425 935 411 974 q 465 844 439 895 l 450 832 q 294 943 384 888 q 238 981 255 968 q 205 1013 220 994 q 182 1076 182 1040 q 211 1139 182 1115 z "},"ē":{"ha":699,"x_min":43,"x_max":663,"o":"m 43 0 m 463 132 q 631 225 564 132 l 654 216 q 597 101 635 155 q 501 14 560 48 q 364 -20 442 -20 q 131 71 218 -20 q 43 359 43 161 q 89 574 43 488 q 215 700 135 659 q 400 741 296 741 q 663 429 663 741 l 304 429 q 302 379 302 413 q 349 189 302 245 q 463 132 395 132 m 390 708 q 329 648 352 708 q 299 456 306 589 l 460 456 q 444 637 461 566 q 390 708 427 708 m 138 954 l 138 989 l 627 989 l 627 954 l 138 954 z "},"ę":{"ha":699,"x_min":43,"x_max":663,"o":"m 463 132 q 631 225 564 132 l 654 216 q 589 91 633 149 q 481 5 546 34 l 463 -5 q 390 -62 412 -31 q 368 -125 368 -94 q 382 -165 368 -153 q 424 -178 396 -178 q 473 -169 447 -178 q 515 -146 500 -159 l 533 -167 q 443 -239 493 -217 q 321 -261 393 -261 q 218 -236 254 -261 q 183 -163 183 -210 q 223 -80 183 -116 q 338 -19 263 -43 q 123 80 203 -12 q 43 359 43 171 q 89 574 43 488 q 215 700 135 659 q 400 741 296 741 q 663 429 663 741 l 304 429 q 302 379 302 413 q 349 189 302 245 q 463 132 395 132 m 390 708 q 329 648 352 708 q 299 456 306 589 l 460 456 q 444 637 461 566 q 390 708 427 708 z "},"f":{"ha":507,"x_min":22,"x_max":629,"o":"m 411 1086 q 578 1035 511 1086 q 614 987 600 1017 q 629 920 629 958 q 614 865 629 891 q 573 823 600 839 q 514 807 547 807 q 422 838 456 807 q 389 922 389 868 q 413 997 389 964 q 485 1046 437 1031 q 447 1059 475 1059 q 382 1032 405 1059 q 362 986 369 1015 q 355 905 355 958 l 355 720 l 504 720 l 504 692 l 355 692 l 355 143 q 385 54 355 79 q 475 29 414 29 l 475 0 q 435 1 465 0 q 220 5 271 5 q 55 1 179 5 q 28 0 33 0 l 28 29 q 74 38 57 29 q 98 68 91 47 q 106 129 106 90 l 106 692 l 22 692 l 22 720 l 106 720 q 115 856 106 802 q 146 947 125 910 q 204 1017 167 985 q 295 1066 239 1046 q 411 1086 351 1086 z "},"g":{"ha":778,"x_min":28,"x_max":765,"o":"m 561 195 q 709 156 652 195 q 765 32 765 118 q 719 -109 765 -42 q 580 -219 673 -176 q 354 -261 488 -261 q 161 -244 234 -261 q 58 -202 88 -228 q 28 -146 28 -176 q 43 -105 28 -119 q 80 -86 58 -91 q 139 -77 102 -81 q 213 -64 186 -71 q 256 -36 239 -56 l 211 -36 q 138 -24 176 -36 q 73 20 100 -12 q 45 109 45 52 q 62 189 45 155 q 118 254 79 224 q 224 316 157 284 q 100 391 144 340 q 56 518 56 441 q 97 642 56 592 q 212 716 139 692 q 382 741 286 741 q 465 735 430 741 q 464 764 464 754 q 503 897 464 846 q 621 947 542 947 q 706 923 672 947 q 741 854 741 898 q 725 808 741 829 q 684 775 710 787 q 627 764 659 764 q 550 782 579 764 q 503 836 522 800 q 493 764 493 808 q 495 731 493 747 q 651 659 595 712 q 708 518 708 605 q 666 394 708 444 q 551 320 625 345 q 382 296 478 296 q 250 309 312 296 q 209 275 221 290 q 196 240 196 261 q 245 195 196 195 l 561 195 m 382 715 q 329 670 347 715 q 311 518 311 625 q 329 366 311 411 q 382 321 347 321 q 435 366 417 321 q 453 518 453 411 q 435 670 453 625 q 382 715 417 715 m 392 -237 q 486 -218 446 -237 q 550 -162 527 -198 q 572 -81 572 -127 q 558 -47 572 -58 q 509 -36 543 -36 l 284 -36 q 271 -82 275 -56 q 267 -126 267 -109 q 298 -208 267 -179 q 392 -237 330 -237 z "},"ǵ":{"ha":778,"x_min":28,"x_max":765,"o":"m 28 0 m 561 195 q 709 156 652 195 q 765 32 765 118 q 719 -109 765 -42 q 580 -219 673 -176 q 354 -261 488 -261 q 161 -244 234 -261 q 58 -202 88 -228 q 28 -146 28 -176 q 43 -105 28 -119 q 80 -86 58 -91 q 139 -77 102 -81 q 213 -64 186 -71 q 256 -36 239 -56 l 211 -36 q 138 -24 176 -36 q 73 20 100 -12 q 45 109 45 52 q 62 189 45 155 q 118 254 79 224 q 224 316 157 284 q 100 391 144 340 q 56 518 56 441 q 97 642 56 592 q 212 716 139 692 q 382 741 286 741 q 465 735 430 741 q 464 764 464 754 q 503 897 464 846 q 621 947 542 947 q 706 923 672 947 q 741 854 741 898 q 725 808 741 829 q 684 775 710 787 q 627 764 659 764 q 550 782 579 764 q 503 836 522 800 q 493 764 493 808 q 495 731 493 747 q 651 659 595 712 q 708 518 708 605 q 666 394 708 444 q 551 320 625 345 q 382 296 478 296 q 250 309 312 296 q 209 275 221 290 q 196 240 196 261 q 245 195 196 195 l 561 195 m 382 715 q 329 670 347 715 q 311 518 311 625 q 329 366 311 411 q 382 321 347 321 q 435 366 417 321 q 453 518 453 411 q 435 670 453 625 q 382 715 417 715 m 392 -237 q 486 -218 446 -237 q 550 -162 527 -198 q 572 -81 572 -127 q 558 -47 572 -58 q 509 -36 543 -36 l 284 -36 q 271 -82 275 -56 q 267 -126 267 -109 q 298 -208 267 -179 q 392 -237 330 -237 m 536 1139 q 565 1076 565 1116 q 542 1013 565 1040 q 508 981 526 994 q 452 943 490 967 q 297 832 366 890 l 282 844 q 351 1023 323 924 q 373 1086 363 1064 q 400 1128 383 1109 q 433 1152 413 1143 q 475 1161 454 1161 q 536 1139 510 1161 z "},"ğ":{"ha":778,"x_min":28,"x_max":810,"o":"m 408 851 q 227 918 293 851 q 132 1082 160 985 l 156 1095 q 408 1017 252 1017 q 661 1095 565 1017 l 685 1082 q 590 918 657 985 q 408 851 524 851 m 608 811 q 590 746 590 783 q 597 697 590 723 q 708 518 708 638 q 666 394 708 444 q 551 320 625 345 q 382 296 478 296 q 250 309 312 296 q 209 275 221 290 q 196 240 196 261 q 245 195 196 195 l 561 195 q 709 156 652 195 q 765 32 765 118 q 719 -109 765 -42 q 580 -219 673 -176 q 354 -261 488 -261 q 161 -244 234 -261 q 58 -202 88 -228 q 28 -146 28 -176 q 43 -105 28 -119 q 80 -86 58 -91 q 139 -77 102 -81 q 213 -64 186 -71 q 256 -36 239 -56 l 211 -36 q 138 -24 176 -36 q 73 20 100 -12 q 45 109 45 52 q 62 189 45 155 q 118 254 79 224 q 224 316 157 284 q 100 391 144 340 q 56 518 56 441 q 97 642 56 592 q 212 716 139 692 q 382 741 286 741 q 564 711 488 741 q 561 746 561 730 q 579 831 561 793 q 630 893 597 870 q 704 916 663 916 q 780 891 749 916 q 810 822 810 867 q 797 775 810 796 q 760 743 783 755 q 710 732 737 732 q 645 755 670 732 q 608 811 619 779 m 382 321 q 435 366 417 321 q 453 518 453 411 q 435 670 453 625 q 382 715 417 715 q 329 670 347 715 q 311 518 311 625 q 329 366 311 411 q 382 321 347 321 m 572 -81 q 558 -47 572 -58 q 509 -36 543 -36 l 284 -36 q 271 -82 275 -56 q 267 -126 267 -109 q 298 -208 267 -179 q 392 -237 330 -237 q 486 -218 446 -237 q 550 -162 527 -198 q 572 -81 572 -127 z "},"ĝ":{"ha":778,"x_min":28,"x_max":810,"o":"m 382 925 q 278 879 342 902 q 149 842 214 857 l 138 861 q 282 990 213 911 q 397 1156 351 1069 l 422 1156 q 596 876 496 979 l 582 857 q 382 925 458 887 m 608 783 q 590 704 590 749 l 590 701 q 708 518 708 644 q 666 394 708 444 q 551 320 625 345 q 382 296 478 296 q 250 309 312 296 q 209 275 221 290 q 196 240 196 261 q 245 195 196 195 l 561 195 q 709 156 652 195 q 765 32 765 118 q 719 -109 765 -42 q 580 -219 673 -176 q 354 -261 488 -261 q 161 -244 234 -261 q 58 -202 88 -228 q 28 -146 28 -176 q 43 -105 28 -119 q 80 -86 58 -91 q 139 -77 102 -81 q 213 -64 186 -71 q 256 -36 239 -56 l 211 -36 q 138 -24 176 -36 q 73 20 100 -12 q 45 109 45 52 q 62 189 45 155 q 118 254 79 224 q 224 316 157 284 q 100 391 144 340 q 56 518 56 441 q 97 642 56 592 q 212 716 139 692 q 382 741 286 741 q 561 713 488 741 q 601 829 564 784 q 704 873 637 873 q 780 853 749 873 q 810 794 810 832 q 781 740 810 762 q 710 718 752 718 q 645 737 670 718 q 608 783 619 756 m 382 321 q 435 366 417 321 q 453 518 453 411 q 435 670 453 625 q 382 715 417 715 q 329 670 347 715 q 311 518 311 625 q 329 366 311 411 q 382 321 347 321 m 572 -81 q 558 -47 572 -58 q 509 -36 543 -36 l 284 -36 q 271 -82 275 -56 q 267 -126 267 -109 q 298 -208 267 -179 q 392 -237 330 -237 q 486 -218 446 -237 q 550 -162 527 -198 q 572 -81 572 -127 z "},"ģ":{"ha":778,"x_min":28,"x_max":793,"o":"m 395 861 q 301 891 337 861 q 266 975 266 921 q 314 1092 266 1047 q 453 1138 363 1136 l 456 1107 q 366 1084 395 1100 q 328 1038 336 1068 q 401 1059 351 1059 q 488 1035 458 1059 q 518 963 518 1010 q 487 887 518 913 q 395 861 455 861 m 555 819 q 546 747 546 793 q 547 718 546 738 q 666 643 624 693 q 708 518 708 593 q 666 394 708 444 q 551 320 625 345 q 382 296 478 296 q 250 309 312 296 q 209 275 221 290 q 196 240 196 261 q 245 195 196 195 l 561 195 q 709 156 652 195 q 765 32 765 118 q 719 -109 765 -42 q 580 -219 673 -176 q 354 -261 488 -261 q 161 -244 234 -261 q 58 -202 88 -228 q 28 -146 28 -176 q 43 -105 28 -119 q 80 -86 58 -91 q 139 -77 102 -81 q 213 -64 186 -71 q 256 -36 239 -56 l 211 -36 q 138 -24 176 -36 q 73 20 100 -12 q 45 109 45 52 q 62 189 45 155 q 118 254 79 224 q 224 316 157 284 q 100 391 144 340 q 56 518 56 441 q 97 642 56 592 q 212 716 139 692 q 382 741 286 741 q 517 726 458 741 q 517 747 517 733 q 555 880 517 829 q 673 930 594 930 q 759 906 725 930 q 793 838 793 881 q 778 791 793 812 q 737 759 763 770 q 679 747 711 747 q 603 765 632 747 q 555 819 574 783 m 382 321 q 435 366 417 321 q 453 518 453 411 q 435 670 453 625 q 382 715 417 715 q 329 670 347 715 q 311 518 311 625 q 329 366 311 411 q 382 321 347 321 m 572 -81 q 558 -47 572 -58 q 509 -36 543 -36 l 284 -36 q 271 -82 275 -56 q 267 -126 267 -109 q 298 -208 267 -179 q 392 -237 330 -237 q 486 -218 446 -237 q 550 -162 527 -198 q 572 -81 572 -127 z "},"ġ":{"ha":778,"x_min":28,"x_max":796,"o":"m 396 847 q 283 877 322 847 q 245 966 245 907 q 283 1056 245 1025 q 396 1086 322 1086 q 508 1056 469 1086 q 547 966 547 1025 q 508 878 547 908 q 396 847 469 847 m 558 829 q 549 764 549 802 q 554 715 549 741 q 668 641 627 690 q 708 518 708 591 q 666 394 708 444 q 551 320 625 345 q 382 296 478 296 q 250 309 312 296 q 209 275 221 290 q 196 240 196 261 q 245 195 196 195 l 561 195 q 709 156 652 195 q 765 32 765 118 q 719 -109 765 -42 q 580 -219 673 -176 q 354 -261 488 -261 q 161 -244 234 -261 q 58 -202 88 -228 q 28 -146 28 -176 q 43 -105 28 -119 q 80 -86 58 -91 q 139 -77 102 -81 q 213 -64 186 -71 q 256 -36 239 -56 l 211 -36 q 138 -24 176 -36 q 73 20 100 -12 q 45 109 45 52 q 62 189 45 155 q 118 254 79 224 q 224 316 157 284 q 100 391 144 340 q 56 518 56 441 q 97 642 56 592 q 212 716 139 692 q 382 741 286 741 q 522 725 458 741 q 519 764 519 749 q 537 856 519 814 q 591 923 555 898 q 676 947 626 947 q 762 919 727 947 q 796 840 796 890 q 781 787 796 810 q 740 749 766 763 q 682 736 714 736 q 601 759 635 736 q 558 829 567 781 m 382 321 q 435 366 417 321 q 453 518 453 411 q 435 670 453 625 q 382 715 417 715 q 329 670 347 715 q 311 518 311 625 q 329 366 311 411 q 382 321 347 321 m 572 -81 q 558 -47 572 -58 q 509 -36 543 -36 l 284 -36 q 271 -82 275 -56 q 267 -126 267 -109 q 298 -208 267 -179 q 392 -237 330 -237 q 486 -218 446 -237 q 550 -162 527 -198 q 572 -81 572 -127 z "},"h":{"ha":864,"x_min":25,"x_max":848,"o":"m 353 636 q 574 741 416 741 q 730 685 684 741 q 761 617 751 660 q 771 505 771 575 l 771 129 q 779 68 771 90 q 803 38 786 47 q 848 29 819 29 l 848 0 l 823 1 q 654 5 724 5 q 482 1 582 5 l 457 0 l 457 29 q 495 38 481 29 q 515 68 509 47 q 521 129 521 90 l 521 581 q 505 647 521 625 q 453 668 488 668 q 404 655 427 668 q 367 620 381 642 q 353 568 353 597 l 353 129 q 359 68 353 90 q 378 38 365 47 q 416 29 392 29 l 416 0 l 393 1 q 233 5 302 5 q 52 1 160 5 l 25 0 l 25 29 q 71 38 54 29 q 96 68 88 47 q 103 129 103 90 l 103 920 q 85 1013 103 984 q 25 1042 68 1042 l 25 1071 q 111 1067 68 1067 q 353 1086 257 1067 l 353 636 z "},"ħ":{"ha":864,"x_min":11,"x_max":848,"o":"m 771 129 q 779 68 771 90 q 803 38 786 47 q 848 29 819 29 l 848 0 l 823 1 q 654 5 724 5 q 482 1 582 5 l 457 0 l 457 29 q 495 38 481 29 q 515 68 509 47 q 521 129 521 90 l 521 581 q 505 647 521 625 q 453 668 488 668 q 404 655 427 668 q 367 620 381 642 q 353 568 353 597 l 353 129 q 359 68 353 90 q 378 38 365 47 q 416 29 392 29 l 416 0 l 393 1 q 233 5 302 5 q 52 1 160 5 l 25 0 l 25 29 q 71 38 54 29 q 96 68 88 47 q 103 129 103 90 l 103 844 l 11 844 l 11 872 l 103 872 l 103 920 q 85 1013 103 984 q 25 1042 68 1042 l 25 1071 q 111 1067 68 1067 q 353 1086 257 1067 l 353 872 l 549 872 l 549 844 l 353 844 l 353 636 q 574 741 416 741 q 730 685 684 741 q 761 617 751 660 q 771 505 771 575 l 771 129 z "},"ĥ":{"ha":864,"x_min":25,"x_max":848,"o":"m 25 0 m 353 636 q 574 741 416 741 q 730 685 684 741 q 761 617 751 660 q 771 505 771 575 l 771 129 q 779 68 771 90 q 803 38 786 47 q 848 29 819 29 l 848 0 l 823 1 q 654 5 724 5 q 482 1 582 5 l 457 0 l 457 29 q 495 38 481 29 q 515 68 509 47 q 521 129 521 90 l 521 581 q 505 647 521 625 q 453 668 488 668 q 404 655 427 668 q 367 620 381 642 q 353 568 353 597 l 353 129 q 359 68 353 90 q 378 38 365 47 q 416 29 392 29 l 416 0 l 393 1 q 233 5 302 5 q 52 1 160 5 l 25 0 l 25 29 q 71 38 54 29 q 96 68 88 47 q 103 129 103 90 l 103 920 q 85 1013 103 984 q 25 1042 68 1042 l 25 1071 q 111 1067 68 1067 q 353 1086 257 1067 l 353 636 m 428 1417 q 558 1285 477 1350 q 729 1178 639 1221 l 722 1157 q 535 1195 627 1172 q 387 1242 442 1219 q 264 1195 341 1219 q 109 1157 186 1172 l 101 1178 q 270 1284 189 1220 q 403 1417 350 1348 l 428 1417 z "},"i":{"ha":458,"x_min":29,"x_max":435,"o":"m 29 0 m 224 1086 q 336 1056 296 1086 q 375 966 375 1025 q 336 878 375 908 q 224 847 296 847 q 111 877 150 847 q 73 966 73 907 q 111 1056 73 1025 q 224 1086 150 1086 m 357 129 q 364 68 357 90 q 389 38 372 47 q 435 29 406 29 l 435 0 l 410 1 q 237 5 310 5 q 56 1 164 5 l 29 0 l 29 29 q 75 38 58 29 q 100 68 92 47 q 107 129 107 90 l 107 570 q 90 663 107 634 q 29 692 72 692 l 29 721 q 115 717 73 717 q 357 736 260 717 l 357 129 z "},"ı":{"ha":458,"x_min":29,"x_max":435,"o":"m 357 129 q 364 68 357 90 q 389 38 372 47 q 435 29 406 29 l 435 0 l 410 1 q 237 5 310 5 q 56 1 164 5 l 29 0 l 29 29 q 75 38 58 29 q 100 68 92 47 q 107 129 107 90 l 107 570 q 90 663 107 634 q 29 692 72 692 l 29 721 q 115 717 73 717 q 357 736 260 717 l 357 129 z "},"í":{"ha":458,"x_min":29,"x_max":435,"o":"m 29 0 m 357 129 q 364 68 357 90 q 389 38 372 47 q 435 29 406 29 l 435 0 l 410 1 q 237 5 310 5 q 56 1 164 5 l 29 0 l 29 29 q 75 38 58 29 q 100 68 92 47 q 107 129 107 90 l 107 570 q 90 663 107 634 q 29 692 72 692 l 29 721 q 115 717 73 717 q 357 736 260 717 l 357 129 m 388 1139 q 416 1076 416 1116 q 393 1013 416 1040 q 359 981 378 994 q 304 943 341 967 q 149 832 217 890 l 134 844 q 203 1023 174 924 q 225 1086 215 1064 q 252 1128 235 1109 q 285 1152 264 1143 q 327 1161 305 1161 q 388 1139 361 1161 z "},"ĭ":{"ha":458,"x_min":-44,"x_max":509,"o":"m 0 0 m 357 129 q 364 68 357 90 q 389 38 372 47 q 435 29 406 29 l 435 0 l 410 1 q 237 5 310 5 q 56 1 164 5 l 29 0 l 29 29 q 75 38 58 29 q 100 68 92 47 q 107 129 107 90 l 107 570 q 90 663 107 634 q 29 692 72 692 l 29 721 q 115 717 73 717 q 357 736 260 717 l 357 129 m 509 1082 q 414 918 481 985 q 232 851 347 851 q 50 918 117 851 q -44 1082 -16 985 l -20 1095 q 232 1017 76 1017 q 485 1095 389 1017 l 509 1082 z "},"î":{"ha":458,"x_min":-39,"x_max":505,"o":"m 0 0 m 357 129 q 364 68 357 90 q 389 38 372 47 q 435 29 406 29 l 435 0 l 410 1 q 237 5 310 5 q 56 1 164 5 l 29 0 l 29 29 q 75 38 58 29 q 100 68 92 47 q 107 129 107 90 l 107 570 q 90 663 107 634 q 29 692 72 692 l 29 721 q 115 717 73 717 q 357 736 260 717 l 357 129 m 245 1156 q 359 991 290 1071 q 505 861 428 912 l 494 842 q 333 879 412 857 q 205 925 254 902 q 102 879 165 902 q -28 842 38 857 l -39 861 q 105 990 37 911 q 220 1156 174 1069 l 245 1156 z "},"ï":{"ha":458,"x_min":-52,"x_max":521,"o":"m 0 0 m 357 129 q 364 68 357 90 q 389 38 372 47 q 435 29 406 29 l 435 0 l 410 1 q 237 5 310 5 q 56 1 164 5 l 29 0 l 29 29 q 75 38 58 29 q 100 68 92 47 q 107 129 107 90 l 107 570 q 90 663 107 634 q 29 692 72 692 l 29 721 q 115 717 73 717 q 357 736 260 717 l 357 129 m 70 1072 q 129 1055 101 1072 q 174 1010 157 1038 q 191 951 191 983 q 174 891 191 919 q 129 847 157 863 q 70 831 101 831 q 9 847 37 831 q -35 891 -19 863 q -52 951 -52 919 q -35 1011 -52 983 q 9 1056 -19 1039 q 70 1072 37 1072 m 400 1072 q 459 1055 431 1072 q 504 1010 487 1038 q 521 951 521 983 q 504 891 521 919 q 459 847 488 863 q 400 831 431 831 q 340 847 368 831 q 296 891 312 863 q 279 951 279 919 q 296 1011 279 983 q 340 1056 312 1039 q 400 1072 368 1072 z "},"ì":{"ha":458,"x_min":28,"x_max":435,"o":"m 28 0 m 357 129 q 364 68 357 90 q 389 38 372 47 q 435 29 406 29 l 435 0 l 410 1 q 237 5 310 5 q 56 1 164 5 l 29 0 l 29 29 q 75 38 58 29 q 100 68 92 47 q 107 129 107 90 l 107 570 q 90 663 107 634 q 29 692 72 692 l 29 721 q 115 717 73 717 q 357 736 260 717 l 357 129 m 57 1139 q 117 1162 82 1162 q 159 1152 138 1162 q 193 1128 180 1143 q 219 1087 210 1109 q 241 1023 229 1065 q 271 935 257 974 q 311 844 286 895 l 296 832 q 140 943 230 888 q 84 981 101 968 q 52 1013 66 994 q 28 1076 28 1040 q 57 1139 28 1115 z "},"ĳ":{"ha":847,"x_min":16,"x_max":781,"o":"m 210 1086 q 321 1056 282 1086 q 361 966 361 1025 q 321 878 361 908 q 210 847 282 847 q 97 877 136 847 q 58 966 58 907 q 97 1056 58 1025 q 210 1086 136 1086 m 629 1086 q 741 1056 702 1086 q 781 966 781 1025 q 741 878 781 908 q 629 847 702 847 q 517 877 555 847 q 478 966 478 907 q 517 1056 478 1025 q 629 1086 555 1086 m 761 115 q 725 -99 761 -17 q 605 -221 688 -181 q 379 -261 522 -261 q 223 -234 282 -261 q 164 -147 164 -207 q 181 -100 164 -121 q 230 -65 197 -78 q 309 -52 262 -52 q 412 -75 372 -52 q 453 -142 453 -98 q 427 -200 453 -176 q 358 -233 401 -224 q 392 -235 375 -235 q 463 -216 437 -235 q 500 -161 489 -198 q 511 -62 511 -123 l 511 85 q 290 -20 448 -20 q 134 36 180 -20 q 103 103 113 61 q 93 215 93 145 l 93 570 q 76 663 93 634 q 16 692 58 692 l 16 721 q 102 717 59 717 q 343 736 245 717 l 343 140 q 359 74 343 96 q 411 53 376 53 q 460 66 437 53 q 497 101 483 79 q 511 153 511 124 l 511 570 q 494 663 511 634 q 433 692 476 692 l 433 721 q 519 717 477 717 q 761 736 664 717 l 761 115 z "},"ī":{"ha":458,"x_min":-12,"x_max":449,"o":"m -12 954 l -12 989 l 449 989 l 449 954 l -12 954 m 357 129 q 364 68 357 90 q 389 38 372 47 q 435 29 406 29 l 435 0 l 410 1 q 237 5 310 5 q 56 1 164 5 l 29 0 l 29 29 q 75 38 58 29 q 100 68 92 47 q 107 129 107 90 l 107 570 q 90 663 107 634 q 29 692 72 692 l 29 721 q 115 717 73 717 q 357 736 260 717 l 357 129 z "},"į":{"ha":458,"x_min":29,"x_max":464,"o":"m 225 847 q 113 877 151 847 q 74 966 74 907 q 113 1056 74 1025 q 225 1086 151 1086 q 337 1056 298 1086 q 376 966 376 1025 q 337 878 376 908 q 225 847 298 847 m 464 -167 q 374 -239 424 -217 q 252 -261 324 -261 q 149 -236 184 -261 q 114 -163 114 -210 q 177 -62 114 -104 q 356 3 239 -20 q 237 5 248 5 q 56 1 164 5 l 29 0 l 29 29 q 75 38 58 29 q 100 68 92 47 q 107 129 107 90 l 107 570 q 90 663 107 634 q 29 692 72 692 l 29 721 q 115 717 73 717 q 357 736 260 717 l 357 129 q 364 68 357 90 q 389 38 372 47 q 435 29 406 29 l 435 0 l 406 1 l 393 -5 q 321 -62 343 -31 q 299 -125 299 -94 q 313 -165 299 -153 q 355 -178 327 -178 q 404 -169 378 -178 q 446 -146 431 -159 l 464 -167 z "},"ĩ":{"ha":458,"x_min":-64,"x_max":492,"o":"m 0 0 m 357 129 q 364 68 357 90 q 389 38 372 47 q 435 29 406 29 l 435 0 l 410 1 q 237 5 310 5 q 56 1 164 5 l 29 0 l 29 29 q 75 38 58 29 q 100 68 92 47 q 107 129 107 90 l 107 570 q 90 663 107 634 q 29 692 72 692 l 29 721 q 115 717 73 717 q 357 736 260 717 l 357 129 m 115 1108 q 187 1096 157 1108 q 256 1059 217 1083 q 312 1027 288 1038 q 366 1017 336 1017 q 473 1090 429 1017 l 492 1080 q 422 910 469 966 q 315 854 375 854 q 241 867 272 854 q 173 905 210 880 q 117 937 141 926 q 62 947 93 947 q -45 872 1 947 l -64 882 q 6 1053 -41 997 q 115 1108 54 1108 z "},"j":{"ha":440,"x_min":-233,"x_max":375,"o":"m 224 1086 q 336 1056 296 1086 q 375 966 375 1025 q 336 878 375 908 q 224 847 296 847 q 111 878 150 847 q 72 966 72 908 q 111 1056 72 1025 q 224 1086 150 1086 m 353 111 q 343 -27 353 28 q 312 -121 334 -82 q 254 -192 291 -159 q -8 -261 174 -261 q -163 -233 -101 -261 q -215 -191 -196 -218 q -233 -131 -233 -164 q -196 -53 -233 -82 q -97 -24 -159 -24 q -5 -50 -39 -24 q 28 -126 28 -76 q 8 -187 28 -159 q -53 -231 -12 -216 q -16 -233 -27 -233 q 39 -222 14 -233 q 78 -189 64 -210 q 96 -135 90 -169 q 102 -51 101 -101 q 103 111 103 0 l 103 570 q 85 663 103 634 q 25 692 68 692 l 25 721 q 111 717 68 717 q 353 736 256 717 l 353 111 z "},"ȷ":{"ha":440,"x_min":-233,"x_max":353,"o":"m 353 111 q 343 -27 353 28 q 312 -121 334 -82 q 254 -192 291 -159 q -8 -261 174 -261 q -163 -233 -101 -261 q -215 -191 -196 -218 q -233 -131 -233 -164 q -196 -53 -233 -82 q -97 -24 -159 -24 q -5 -50 -39 -24 q 28 -126 28 -76 q 8 -187 28 -159 q -53 -231 -12 -216 q -16 -233 -27 -233 q 39 -222 14 -233 q 78 -189 64 -210 q 96 -135 90 -169 q 102 -51 101 -101 q 103 111 103 0 l 103 570 q 85 663 103 634 q 25 692 68 692 l 25 721 q 111 717 68 717 q 353 736 256 717 l 353 111 z "},"ĵ":{"ha":440,"x_min":-233,"x_max":484,"o":"m 0 0 m 353 111 q 343 -27 353 28 q 312 -121 334 -82 q 254 -192 291 -159 q -8 -261 174 -261 q -163 -233 -101 -261 q -215 -191 -196 -218 q -233 -131 -233 -164 q -196 -53 -233 -82 q -97 -24 -159 -24 q -5 -50 -39 -24 q 28 -126 28 -76 q 8 -187 28 -159 q -53 -231 -12 -216 q -16 -233 -27 -233 q 39 -222 14 -233 q 78 -189 64 -210 q 96 -135 90 -169 q 102 -51 101 -101 q 103 111 103 0 l 103 570 q 85 663 103 634 q 25 692 68 692 l 25 721 q 111 717 68 717 q 353 736 256 717 l 353 111 m 224 1156 q 338 991 269 1071 q 484 861 407 912 l 473 842 q 312 879 391 857 q 184 925 233 902 q 81 879 144 902 q -49 842 17 857 l -60 861 q 84 990 16 911 q 199 1156 153 1069 l 224 1156 z "},"k":{"ha":846,"x_min":25,"x_max":848,"o":"m 800 90 q 823 51 812 66 q 848 29 833 37 l 848 0 l 827 1 q 681 5 742 5 q 510 1 610 5 l 485 0 l 485 29 q 525 55 525 29 q 519 77 525 64 l 397 335 q 353 366 382 363 l 353 129 q 360 68 353 90 q 385 38 368 47 q 431 29 401 29 l 431 0 l 406 1 q 233 5 306 5 q 52 1 160 5 l 25 0 l 25 29 q 71 38 54 29 q 96 68 88 47 q 103 129 103 90 l 103 920 q 85 1013 103 984 q 25 1042 68 1042 l 25 1071 q 111 1067 68 1067 q 353 1086 257 1067 l 353 392 q 412 412 393 393 l 519 513 q 568 603 568 559 q 537 664 568 639 q 457 693 505 689 l 457 721 q 624 717 536 717 q 814 721 760 717 l 814 693 q 608 557 717 667 l 572 522 l 793 102 l 800 90 z "},"ķ":{"ha":846,"x_min":25,"x_max":848,"o":"m 25 0 m 800 90 q 823 51 812 66 q 848 29 833 37 l 848 0 l 827 1 q 681 5 742 5 q 510 1 610 5 l 485 0 l 485 29 q 525 55 525 29 q 519 77 525 64 l 397 335 q 353 366 382 363 l 353 129 q 360 68 353 90 q 385 38 368 47 q 431 29 401 29 l 431 0 l 406 1 q 233 5 306 5 q 52 1 160 5 l 25 0 l 25 29 q 71 38 54 29 q 96 68 88 47 q 103 129 103 90 l 103 920 q 85 1013 103 984 q 25 1042 68 1042 l 25 1071 q 111 1067 68 1067 q 353 1086 257 1067 l 353 392 q 412 412 393 393 l 519 513 q 568 603 568 559 q 537 664 568 639 q 457 693 505 689 l 457 721 q 624 717 536 717 q 814 721 760 717 l 814 693 q 608 557 717 667 l 572 522 l 793 102 l 800 90 m 482 -62 q 575 -92 540 -62 q 611 -176 611 -122 q 563 -293 611 -248 q 424 -339 514 -337 l 421 -309 q 511 -285 481 -301 q 549 -239 541 -269 q 475 -260 526 -260 q 389 -236 419 -260 q 359 -164 359 -212 q 390 -89 359 -115 q 482 -62 422 -62 z "},"ĸ":{"ha":846,"x_min":29,"x_max":852,"o":"m 783 102 q 815 50 800 67 q 852 29 831 33 l 852 0 l 831 1 q 685 5 746 5 q 527 1 647 5 q 503 0 508 0 l 503 29 q 543 56 543 29 q 538 77 543 64 l 401 328 q 357 358 387 356 l 357 129 q 364 68 357 90 q 389 38 372 47 q 435 29 406 29 l 435 0 l 410 1 q 237 5 310 5 q 56 1 164 5 l 29 0 l 29 29 q 75 38 58 29 q 100 68 92 47 q 107 129 107 90 l 107 570 q 90 663 107 634 q 29 692 72 692 l 29 721 q 115 717 73 717 q 357 736 260 717 l 357 385 q 430 404 400 387 q 488 457 459 421 l 593 581 q 615 633 615 608 q 592 675 615 659 q 526 693 569 691 l 526 721 q 669 717 600 717 q 818 721 764 717 l 818 693 q 731 672 763 687 q 675 625 700 657 l 571 497 l 783 102 z "},"l":{"ha":456,"x_min":25,"x_max":431,"o":"m 353 129 q 360 68 353 90 q 385 38 368 47 q 431 29 401 29 l 431 0 l 406 1 q 233 5 306 5 q 52 1 160 5 l 25 0 l 25 29 q 71 38 54 29 q 96 68 88 47 q 103 129 103 90 l 103 920 q 85 1013 103 984 q 25 1042 68 1042 l 25 1071 q 111 1067 68 1067 q 353 1086 257 1067 l 353 129 z "},"ĺ":{"ha":456,"x_min":25,"x_max":471,"o":"m 25 0 m 353 129 q 360 68 353 90 q 385 38 368 47 q 431 29 401 29 l 431 0 l 406 1 q 233 5 306 5 q 52 1 160 5 l 25 0 l 25 29 q 71 38 54 29 q 96 68 88 47 q 103 129 103 90 l 103 920 q 85 1013 103 984 q 25 1042 68 1042 l 25 1071 q 111 1067 68 1067 q 353 1086 257 1067 l 353 129 m 332 1393 q 375 1402 351 1402 q 426 1389 402 1402 q 463 1350 450 1376 q 471 1314 471 1332 q 457 1266 471 1289 q 418 1232 443 1244 q 373 1215 397 1221 q 308 1203 349 1209 q 122 1161 203 1186 l 113 1178 q 246 1315 180 1236 q 292 1366 275 1350 q 332 1393 309 1382 z "},"ľ":{"ha":456,"x_min":25,"x_max":593,"o":"m 25 0 m 353 129 q 360 68 353 90 q 385 38 368 47 q 431 29 401 29 l 431 0 l 406 1 q 233 5 306 5 q 52 1 160 5 l 25 0 l 25 29 q 71 38 54 29 q 96 68 88 47 q 103 129 103 90 l 103 920 q 85 1013 103 984 q 25 1042 68 1042 l 25 1071 q 111 1067 68 1067 q 353 1086 257 1067 l 353 129 m 587 1089 q 591 1064 589 1082 q 593 1032 593 1046 q 574 972 593 1006 q 524 898 555 938 q 431 782 493 857 l 412 787 q 439 989 439 948 q 434 1031 439 1018 q 412 1044 428 1044 l 412 1074 q 450 1073 425 1073 q 520 1077 491 1073 q 587 1089 549 1081 z "},"ļ":{"ha":456,"x_min":25,"x_max":431,"o":"m 25 0 m 353 129 q 360 68 353 90 q 385 38 368 47 q 431 29 401 29 l 431 0 l 406 1 q 233 5 306 5 q 52 1 160 5 l 25 0 l 25 29 q 71 38 54 29 q 96 68 88 47 q 103 129 103 90 l 103 920 q 85 1013 103 984 q 25 1042 68 1042 l 25 1071 q 111 1067 68 1067 q 353 1086 257 1067 l 353 129 m 222 -62 q 316 -92 280 -62 q 351 -176 351 -122 q 303 -293 351 -248 q 164 -339 254 -337 l 161 -309 q 251 -285 222 -301 q 289 -239 281 -269 q 216 -260 267 -260 q 129 -236 159 -260 q 99 -164 99 -212 q 131 -89 99 -115 q 222 -62 162 -62 z "},"ŀ":{"ha":765,"x_min":25,"x_max":751,"o":"m 25 0 m 353 129 q 360 68 353 90 q 385 38 368 47 q 431 29 401 29 l 431 0 l 406 1 q 233 5 306 5 q 52 1 160 5 l 25 0 l 25 29 q 71 38 54 29 q 96 68 88 47 q 103 129 103 90 l 103 920 q 85 1013 103 984 q 25 1042 68 1042 l 25 1071 q 111 1067 68 1067 q 353 1086 257 1067 l 353 129 m 614 560 q 716 530 680 560 q 751 440 751 499 q 716 351 751 382 q 614 321 680 321 q 511 351 547 321 q 476 440 476 381 q 511 530 476 499 q 614 560 547 560 z "},"ł":{"ha":456,"x_min":-17,"x_max":472,"o":"m 353 129 q 360 68 353 90 q 385 38 368 47 q 431 29 401 29 l 431 0 l 406 1 q 233 5 306 5 q 52 1 160 5 l 25 0 l 25 29 q 71 38 54 29 q 96 68 88 47 q 103 129 103 90 l 103 440 l -17 336 l -17 378 l 103 481 l 103 920 q 85 1013 103 984 q 25 1042 68 1042 l 25 1071 q 111 1067 68 1067 q 353 1086 257 1067 l 353 628 l 472 733 l 472 692 l 353 586 l 353 129 z "},"m":{"ha":1272,"x_min":29,"x_max":1257,"o":"m 1179 129 q 1187 68 1179 90 q 1211 38 1194 47 q 1257 29 1227 29 l 1257 0 l 1232 1 q 1063 5 1132 5 q 903 1 1023 5 q 879 0 884 0 l 879 29 q 909 38 899 29 q 924 68 920 47 q 929 129 929 90 l 929 581 q 913 647 929 625 q 861 668 897 668 q 815 654 838 668 q 778 616 793 640 q 759 566 762 592 q 761 505 761 539 l 761 129 q 767 68 761 90 q 787 38 773 47 q 825 29 800 29 l 825 0 q 801 1 820 0 q 644 5 679 5 q 484 1 576 5 l 461 0 l 461 29 q 490 38 479 29 q 506 68 501 47 q 511 129 511 90 l 511 581 q 498 647 511 625 q 457 668 486 668 q 408 655 431 668 q 371 620 385 642 q 357 568 357 597 l 357 129 q 361 68 357 90 q 377 38 366 47 q 407 29 388 29 l 407 0 l 386 1 q 237 5 300 5 q 56 1 164 5 l 29 0 l 29 29 q 75 38 58 29 q 100 68 92 47 q 107 129 107 90 l 107 570 q 90 663 107 634 q 29 692 72 692 l 29 721 q 115 717 73 717 q 357 736 260 717 l 357 636 q 564 741 416 741 q 721 685 675 741 q 751 620 742 660 q 844 713 787 686 q 982 741 902 741 q 1139 685 1093 741 q 1170 617 1160 660 q 1179 505 1179 575 l 1179 129 z "},"n":{"ha":868,"x_min":29,"x_max":852,"o":"m 578 741 q 734 685 688 741 q 765 617 755 660 q 775 505 775 575 l 775 129 q 783 68 775 90 q 807 38 790 47 q 852 29 823 29 l 852 0 l 827 1 q 659 5 728 5 q 486 1 586 5 l 461 0 l 461 29 q 499 38 486 29 q 519 68 513 47 q 525 129 525 90 l 525 581 q 509 647 525 625 q 457 668 492 668 q 408 655 431 668 q 371 620 385 642 q 357 568 357 597 l 357 129 q 363 68 357 90 q 383 38 369 47 q 421 29 397 29 l 421 0 q 397 1 416 0 q 237 5 277 5 q 56 1 164 5 l 29 0 l 29 29 q 75 38 58 29 q 100 68 92 47 q 107 129 107 90 l 107 570 q 90 663 107 634 q 29 692 72 692 l 29 721 q 115 717 73 717 q 357 736 260 717 l 357 636 q 578 741 420 741 z "},"ń":{"ha":868,"x_min":29,"x_max":852,"o":"m 29 0 m 578 741 q 734 685 688 741 q 765 617 755 660 q 775 505 775 575 l 775 129 q 783 68 775 90 q 807 38 790 47 q 852 29 823 29 l 852 0 l 827 1 q 659 5 728 5 q 486 1 586 5 l 461 0 l 461 29 q 499 38 486 29 q 519 68 513 47 q 525 129 525 90 l 525 581 q 509 647 525 625 q 457 668 492 668 q 408 655 431 668 q 371 620 385 642 q 357 568 357 597 l 357 129 q 363 68 357 90 q 383 38 369 47 q 421 29 397 29 l 421 0 q 397 1 416 0 q 237 5 277 5 q 56 1 164 5 l 29 0 l 29 29 q 75 38 58 29 q 100 68 92 47 q 107 129 107 90 l 107 570 q 90 663 107 634 q 29 692 72 692 l 29 721 q 115 717 73 717 q 357 736 260 717 l 357 636 q 578 741 420 741 m 596 1139 q 625 1076 625 1116 q 602 1013 625 1040 q 568 981 586 994 q 512 943 549 967 q 357 832 425 890 l 342 844 q 411 1023 382 924 q 433 1086 423 1064 q 460 1128 443 1109 q 493 1152 473 1143 q 535 1161 513 1161 q 596 1139 570 1161 z "},"ŉ":{"ha":868,"x_min":-132,"x_max":852,"o":"m 775 129 q 783 68 775 90 q 807 38 790 47 q 852 29 823 29 l 852 0 l 827 1 q 659 5 728 5 q 486 1 586 5 l 461 0 l 461 29 q 499 38 486 29 q 519 68 513 47 q 525 129 525 90 l 525 581 q 509 647 525 625 q 457 668 492 668 q 408 655 431 668 q 371 620 385 642 q 357 568 357 597 l 357 129 q 363 68 357 90 q 383 38 369 47 q 421 29 397 29 l 421 0 q 397 1 416 0 q 237 5 277 5 q 56 1 164 5 l 29 0 l 29 29 q 75 38 58 29 q 100 68 92 47 q 107 129 107 90 l 107 570 q 90 663 107 634 q 29 692 72 692 l 29 693 q -5 675 12 682 l -17 700 q 48 748 20 717 q 87 814 77 779 q 95 860 95 838 q 92 890 95 873 q -10 847 54 847 q -99 879 -66 847 q -132 966 -132 910 q -96 1054 -132 1021 q -2 1086 -60 1086 q 63 1073 35 1086 q 108 1035 92 1060 q 133 979 123 1015 q 142 903 142 944 q 122 802 142 850 q 62 718 102 754 q 115 717 98 717 q 357 736 260 717 l 357 636 q 578 741 420 741 q 734 685 688 741 q 765 617 755 660 q 775 505 775 575 l 775 129 z "},"ň":{"ha":868,"x_min":29,"x_max":852,"o":"m 29 0 m 578 741 q 734 685 688 741 q 765 617 755 660 q 775 505 775 575 l 775 129 q 783 68 775 90 q 807 38 790 47 q 852 29 823 29 l 852 0 l 827 1 q 659 5 728 5 q 486 1 586 5 l 461 0 l 461 29 q 499 38 486 29 q 519 68 513 47 q 525 129 525 90 l 525 581 q 509 647 525 625 q 457 668 492 668 q 408 655 431 668 q 371 620 385 642 q 357 568 357 597 l 357 129 q 363 68 357 90 q 383 38 369 47 q 421 29 397 29 l 421 0 q 397 1 416 0 q 237 5 277 5 q 56 1 164 5 l 29 0 l 29 29 q 75 38 58 29 q 100 68 92 47 q 107 129 107 90 l 107 570 q 90 663 107 634 q 29 692 72 692 l 29 721 q 115 717 73 717 q 357 736 260 717 l 357 636 q 578 741 420 741 m 700 1136 q 555 1007 624 1086 q 440 842 487 928 l 415 842 q 302 1006 371 926 q 155 1136 233 1085 l 167 1156 q 328 1118 249 1141 q 456 1072 407 1095 q 559 1118 495 1095 q 689 1156 623 1141 l 700 1136 z "},"ņ":{"ha":868,"x_min":29,"x_max":852,"o":"m 29 0 m 578 741 q 734 685 688 741 q 765 617 755 660 q 775 505 775 575 l 775 129 q 783 68 775 90 q 807 38 790 47 q 852 29 823 29 l 852 0 l 827 1 q 659 5 728 5 q 486 1 586 5 l 461 0 l 461 29 q 499 38 486 29 q 519 68 513 47 q 525 129 525 90 l 525 581 q 509 647 525 625 q 457 668 492 668 q 408 655 431 668 q 371 620 385 642 q 357 568 357 597 l 357 129 q 363 68 357 90 q 383 38 369 47 q 421 29 397 29 l 421 0 q 397 1 416 0 q 237 5 277 5 q 56 1 164 5 l 29 0 l 29 29 q 75 38 58 29 q 100 68 92 47 q 107 129 107 90 l 107 570 q 90 663 107 634 q 29 692 72 692 l 29 721 q 115 717 73 717 q 357 736 260 717 l 357 636 q 578 741 420 741 m 453 -62 q 546 -92 511 -62 q 582 -176 582 -122 q 533 -293 582 -248 q 395 -339 485 -337 l 392 -309 q 482 -285 452 -301 q 519 -239 511 -269 q 446 -260 497 -260 q 360 -236 390 -260 q 330 -164 330 -212 q 361 -89 330 -115 q 453 -62 393 -62 z "},"ŋ":{"ha":854,"x_min":29,"x_max":775,"o":"m 578 741 q 734 685 688 741 q 765 617 755 660 q 775 505 775 575 l 775 111 q 765 -25 775 30 q 733 -119 755 -80 q 676 -192 712 -158 q 581 -243 641 -225 q 410 -261 521 -261 q 253 -239 329 -261 q 178 -153 178 -216 q 194 -104 178 -127 q 244 -66 211 -81 q 322 -52 277 -52 q 426 -75 385 -52 q 467 -142 467 -98 q 374 -229 467 -207 q 415 -232 390 -232 q 509 -164 480 -232 q 525 45 525 -125 l 525 111 l 525 581 q 509 647 525 625 q 457 668 492 668 q 408 655 431 668 q 371 620 385 642 q 357 568 357 597 l 357 129 q 363 68 357 90 q 383 38 369 47 q 421 29 397 29 l 421 0 q 397 1 416 0 q 237 5 277 5 q 56 1 164 5 l 29 0 l 29 29 q 75 38 58 29 q 100 68 92 47 q 107 129 107 90 l 107 570 q 90 663 107 634 q 29 692 72 692 l 29 721 q 115 717 73 717 q 357 736 260 717 l 357 636 q 578 741 420 741 z "},"ñ":{"ha":868,"x_min":29,"x_max":852,"o":"m 29 0 m 578 741 q 734 685 688 741 q 765 617 755 660 q 775 505 775 575 l 775 129 q 783 68 775 90 q 807 38 790 47 q 852 29 823 29 l 852 0 l 827 1 q 659 5 728 5 q 486 1 586 5 l 461 0 l 461 29 q 499 38 486 29 q 519 68 513 47 q 525 129 525 90 l 525 581 q 509 647 525 625 q 457 668 492 668 q 408 655 431 668 q 371 620 385 642 q 357 568 357 597 l 357 129 q 363 68 357 90 q 383 38 369 47 q 421 29 397 29 l 421 0 q 397 1 416 0 q 237 5 277 5 q 56 1 164 5 l 29 0 l 29 29 q 75 38 58 29 q 100 68 92 47 q 107 129 107 90 l 107 570 q 90 663 107 634 q 29 692 72 692 l 29 721 q 115 717 73 717 q 357 736 260 717 l 357 636 q 578 741 420 741 m 323 1108 q 395 1096 366 1108 q 464 1059 425 1083 q 520 1027 496 1038 q 574 1017 544 1017 q 682 1090 637 1017 l 701 1080 q 630 910 677 966 q 523 854 583 854 q 449 867 480 854 q 381 905 418 880 q 325 937 349 926 q 271 947 301 947 q 163 872 209 947 l 144 882 q 214 1053 167 997 q 323 1108 262 1108 z "},"o":{"ha":800,"x_min":43,"x_max":757,"o":"m 400 741 q 664 651 571 741 q 757 359 757 561 q 664 70 757 159 q 400 -20 571 -20 q 136 70 229 -20 q 43 359 43 159 q 136 651 43 561 q 400 741 229 741 m 400 713 q 329 625 356 713 q 302 359 302 538 q 329 95 302 182 q 400 8 356 8 q 471 95 444 8 q 497 359 497 182 q 471 625 497 538 q 400 713 444 713 z "},"ó":{"ha":800,"x_min":43,"x_max":757,"o":"m 43 0 m 400 741 q 664 651 571 741 q 757 359 757 561 q 664 70 757 159 q 400 -20 571 -20 q 136 70 229 -20 q 43 359 43 159 q 136 651 43 561 q 400 741 229 741 m 400 713 q 329 625 356 713 q 302 359 302 538 q 329 95 302 182 q 400 8 356 8 q 471 95 444 8 q 497 359 497 182 q 471 625 497 538 q 400 713 444 713 m 555 1139 q 583 1076 583 1116 q 560 1013 583 1040 q 526 981 545 994 q 471 943 508 967 q 315 832 384 890 l 300 844 q 370 1023 341 924 q 392 1086 382 1064 q 418 1128 401 1109 q 452 1152 431 1143 q 494 1161 472 1161 q 555 1139 528 1161 z "},"ŏ":{"ha":800,"x_min":43,"x_max":757,"o":"m 43 0 m 400 741 q 664 651 571 741 q 757 359 757 561 q 664 70 757 159 q 400 -20 571 -20 q 136 70 229 -20 q 43 359 43 159 q 136 651 43 561 q 400 741 229 741 m 400 713 q 329 625 356 713 q 302 359 302 538 q 329 95 302 182 q 400 8 356 8 q 471 95 444 8 q 497 359 497 182 q 471 625 497 538 q 400 713 444 713 m 675 1082 q 581 918 648 985 q 399 851 514 851 q 217 918 283 851 q 123 1082 151 985 l 146 1095 q 399 1017 243 1017 q 652 1095 555 1017 l 675 1082 z "},"ô":{"ha":800,"x_min":43,"x_max":757,"o":"m 43 0 m 400 741 q 664 651 571 741 q 757 359 757 561 q 664 70 757 159 q 400 -20 571 -20 q 136 70 229 -20 q 43 359 43 159 q 136 651 43 561 q 400 741 229 741 m 400 713 q 329 625 356 713 q 302 359 302 538 q 329 95 302 182 q 400 8 356 8 q 471 95 444 8 q 497 359 497 182 q 471 625 497 538 q 400 713 444 713 m 412 1156 q 526 991 456 1071 q 672 861 595 912 l 661 842 q 499 879 578 857 q 372 925 420 902 q 269 879 332 902 q 139 842 205 857 l 127 861 q 272 990 203 911 q 387 1156 340 1069 l 412 1156 z "},"ö":{"ha":800,"x_min":43,"x_max":757,"o":"m 43 0 m 400 741 q 664 651 571 741 q 757 359 757 561 q 664 70 757 159 q 400 -20 571 -20 q 136 70 229 -20 q 43 359 43 159 q 136 651 43 561 q 400 741 229 741 m 400 713 q 329 625 356 713 q 302 359 302 538 q 329 95 302 182 q 400 8 356 8 q 471 95 444 8 q 497 359 497 182 q 471 625 497 538 q 400 713 444 713 m 237 1072 q 296 1055 268 1072 q 340 1010 323 1038 q 357 951 357 983 q 341 891 357 919 q 296 847 324 863 q 237 831 268 831 q 176 847 203 831 q 132 891 148 863 q 115 951 115 919 q 132 1011 115 983 q 176 1056 148 1039 q 237 1072 204 1072 m 567 1072 q 626 1055 598 1072 q 671 1010 654 1038 q 688 951 688 983 q 671 891 688 919 q 626 847 654 863 q 567 831 598 831 q 507 847 534 831 q 463 891 479 863 q 446 951 446 919 q 463 1011 446 983 q 507 1056 479 1039 q 567 1072 534 1072 z "},"ò":{"ha":800,"x_min":43,"x_max":757,"o":"m 43 0 m 400 741 q 664 651 571 741 q 757 359 757 561 q 664 70 757 159 q 400 -20 571 -20 q 136 70 229 -20 q 43 359 43 159 q 136 651 43 561 q 400 741 229 741 m 400 713 q 329 625 356 713 q 302 359 302 538 q 329 95 302 182 q 400 8 356 8 q 471 95 444 8 q 497 359 497 182 q 471 625 497 538 q 400 713 444 713 m 224 1139 q 283 1162 249 1162 q 326 1152 305 1162 q 360 1128 347 1143 q 386 1087 377 1109 q 408 1023 395 1065 q 438 935 424 974 q 478 844 452 895 l 463 832 q 307 943 397 888 q 251 981 268 968 q 218 1013 233 994 q 195 1076 195 1040 q 224 1139 195 1115 z "},"ő":{"ha":800,"x_min":43,"x_max":757,"o":"m 43 0 m 400 741 q 664 651 571 741 q 757 359 757 561 q 664 70 757 159 q 400 -20 571 -20 q 136 70 229 -20 q 43 359 43 159 q 136 651 43 561 q 400 741 229 741 m 400 713 q 329 625 356 713 q 302 359 302 538 q 329 95 302 182 q 400 8 356 8 q 471 95 444 8 q 497 359 497 182 q 471 625 497 538 q 400 713 444 713 m 435 1135 q 473 1065 473 1108 q 455 1010 473 1037 q 426 976 444 992 q 375 933 409 960 q 257 831 300 873 l 239 839 q 272 999 258 909 q 284 1065 279 1042 q 301 1107 290 1088 q 335 1139 314 1128 q 381 1151 357 1151 q 435 1135 410 1151 m 680 1135 q 719 1065 719 1108 q 701 1010 719 1037 q 674 977 690 992 q 621 932 658 962 q 503 831 551 878 l 484 839 q 519 1000 504 908 q 531 1065 525 1042 q 547 1107 536 1088 q 581 1139 560 1127 q 627 1151 602 1151 q 680 1135 655 1151 z "},"ō":{"ha":800,"x_min":43,"x_max":757,"o":"m 43 0 m 400 741 q 664 651 571 741 q 757 359 757 561 q 664 70 757 159 q 400 -20 571 -20 q 136 70 229 -20 q 43 359 43 159 q 136 651 43 561 q 400 741 229 741 m 400 713 q 329 625 356 713 q 302 359 302 538 q 329 95 302 182 q 400 8 356 8 q 471 95 444 8 q 497 359 497 182 q 471 625 497 538 q 400 713 444 713 m 151 954 l 151 989 l 640 989 l 640 954 l 151 954 z "},"ø":{"ha":800,"x_min":43,"x_max":757,"o":"m 635 675 q 757 359 757 585 q 664 70 757 159 q 400 -20 571 -20 q 196 24 276 -20 l 109 -102 l 82 -83 l 168 42 q 43 359 43 132 q 136 651 43 561 q 400 741 229 741 q 608 694 527 741 l 697 822 l 724 804 l 635 675 m 400 713 q 329 625 356 713 q 302 359 302 538 q 308 224 302 287 l 487 544 q 453 671 475 629 q 400 713 431 713 m 400 8 q 471 95 444 8 q 497 359 497 182 q 492 488 497 435 l 314 168 q 348 47 326 87 q 400 8 370 8 z "},"õ":{"ha":800,"x_min":43,"x_max":757,"o":"m 43 0 m 400 741 q 664 651 571 741 q 757 359 757 561 q 664 70 757 159 q 400 -20 571 -20 q 136 70 229 -20 q 43 359 43 159 q 136 651 43 561 q 400 741 229 741 m 400 713 q 329 625 356 713 q 302 359 302 538 q 329 95 302 182 q 400 8 356 8 q 471 95 444 8 q 497 359 497 182 q 471 625 497 538 q 400 713 444 713 m 281 1108 q 354 1096 324 1108 q 422 1059 384 1083 q 479 1027 455 1038 q 533 1017 503 1017 q 640 1090 595 1017 l 659 1080 q 589 910 636 966 q 481 854 542 854 q 408 867 439 854 q 340 905 377 880 q 284 937 308 926 q 229 947 260 947 q 122 872 168 947 l 102 882 q 173 1053 125 997 q 281 1108 220 1108 z "},"œ":{"ha":1111,"x_min":43,"x_max":1075,"o":"m 903 132 q 1043 225 988 132 l 1067 216 q 1015 102 1049 155 q 928 14 981 48 q 804 -20 874 -20 q 601 72 672 -20 q 386 -20 530 -20 q 132 70 222 -20 q 43 359 43 159 q 132 651 43 561 q 386 741 222 741 q 604 644 532 741 q 695 716 642 692 q 812 741 749 741 q 1007 666 939 741 q 1075 429 1075 591 l 744 429 q 743 379 743 413 q 790 189 743 245 q 903 132 836 132 m 386 8 q 457 95 430 8 q 484 357 484 181 q 457 625 484 537 q 386 713 430 713 q 326 625 349 713 q 302 359 302 537 q 326 95 302 182 q 386 8 349 8 m 803 708 q 739 456 747 708 l 872 456 q 857 637 873 566 q 803 708 840 708 z "},"p":{"ha":850,"x_min":25,"x_max":806,"o":"m 564 741 q 689 702 634 741 q 774 585 743 663 q 806 392 806 507 q 716 76 806 172 q 482 -20 627 -20 q 353 7 400 -20 l 353 -109 q 382 -198 353 -173 q 472 -222 412 -222 l 472 -252 l 425 -250 q 216 -245 296 -245 q 59 -250 157 -245 q 25 -252 33 -252 l 25 -222 q 71 -214 54 -222 q 96 -183 88 -205 q 103 -122 103 -161 l 103 568 q 85 662 103 633 q 25 690 68 690 l 25 720 q 111 715 68 715 q 353 734 256 715 l 353 636 q 564 741 417 741 m 401 22 q 512 105 477 22 q 546 359 546 189 q 521 600 546 531 q 453 668 496 668 q 404 655 427 668 q 367 620 381 642 q 353 568 353 597 l 353 34 q 401 22 371 22 z "},"þ":{"ha":835,"x_min":9,"x_max":790,"o":"m 549 741 q 673 702 619 741 q 759 585 728 663 q 790 392 790 507 q 701 76 790 172 q 467 -20 612 -20 q 338 7 385 -20 l 338 -109 q 367 -198 338 -173 q 457 -222 397 -222 l 457 -252 l 408 -250 q 201 -245 280 -245 q 45 -250 143 -245 q 9 -252 18 -252 l 9 -222 q 56 -214 39 -222 q 80 -183 73 -205 q 87 -122 87 -161 l 87 920 q 70 1013 87 984 q 9 1042 52 1042 l 9 1071 q 96 1067 53 1067 q 338 1086 241 1067 l 338 636 q 549 741 401 741 m 386 22 q 496 105 462 22 q 530 359 530 188 q 506 600 530 531 q 437 668 481 668 q 389 655 412 668 q 352 620 366 642 q 338 568 338 597 l 338 34 q 386 22 356 22 z "},"q":{"ha":833,"x_min":43,"x_max":823,"o":"m 746 -122 q 753 -183 746 -161 q 778 -214 761 -205 q 823 -222 794 -222 l 823 -252 q 789 -250 815 -252 q 632 -245 691 -245 q 425 -250 553 -245 l 376 -252 l 376 -222 q 466 -198 437 -222 q 496 -109 496 -173 l 496 85 q 427 5 467 31 q 326 -20 387 -20 q 180 21 243 -20 q 79 148 116 62 q 43 366 43 234 q 81 572 43 488 q 188 699 119 656 q 351 741 257 741 q 439 736 402 741 q 508 718 475 732 q 600 703 552 703 q 680 714 643 703 q 736 743 717 725 l 755 729 q 746 653 746 700 l 746 -122 m 396 53 q 445 66 422 53 q 481 101 467 79 q 496 153 496 124 l 496 697 q 431 713 465 713 q 302 361 302 713 q 328 121 302 190 q 396 53 353 53 z "},"r":{"ha":668,"x_min":29,"x_max":664,"o":"m 536 741 q 634 699 604 741 q 664 600 664 657 q 629 501 664 538 q 536 464 594 464 q 444 491 476 464 q 412 564 412 517 q 484 693 412 646 q 439 684 458 693 q 380 634 404 669 q 357 559 357 600 l 357 143 q 369 74 357 99 q 407 39 381 50 q 476 29 433 29 l 476 0 l 447 1 q 252 5 333 5 q 58 1 173 5 l 29 0 l 29 29 q 75 38 58 29 q 100 68 92 47 q 107 129 107 90 l 107 570 q 90 663 107 634 q 29 692 72 692 l 29 721 q 115 717 73 717 q 357 736 260 717 l 357 636 q 536 741 411 741 z "},"ŕ":{"ha":668,"x_min":29,"x_max":664,"o":"m 29 0 m 536 741 q 634 699 604 741 q 664 600 664 657 q 629 501 664 538 q 536 464 594 464 q 444 491 476 464 q 412 564 412 517 q 484 693 412 646 q 439 684 458 693 q 380 634 404 669 q 357 559 357 600 l 357 143 q 369 74 357 99 q 407 39 381 50 q 476 29 433 29 l 476 0 l 447 1 q 252 5 333 5 q 58 1 173 5 l 29 0 l 29 29 q 75 38 58 29 q 100 68 92 47 q 107 129 107 90 l 107 570 q 90 663 107 634 q 29 692 72 692 l 29 721 q 115 717 73 717 q 357 736 260 717 l 357 636 q 536 741 411 741 m 486 1139 q 515 1076 515 1116 q 492 1013 515 1040 q 458 981 476 994 q 402 943 439 967 q 247 832 315 890 l 232 844 q 301 1023 273 924 q 323 1086 313 1064 q 350 1128 333 1109 q 383 1152 363 1143 q 425 1161 404 1161 q 486 1139 460 1161 z "},"ř":{"ha":668,"x_min":29,"x_max":664,"o":"m 29 0 m 536 741 q 634 699 604 741 q 664 600 664 657 q 629 501 664 538 q 536 464 594 464 q 444 491 476 464 q 412 564 412 517 q 484 693 412 646 q 439 684 458 693 q 380 634 404 669 q 357 559 357 600 l 357 143 q 369 74 357 99 q 407 39 381 50 q 476 29 433 29 l 476 0 l 447 1 q 252 5 333 5 q 58 1 173 5 l 29 0 l 29 29 q 75 38 58 29 q 100 68 92 47 q 107 129 107 90 l 107 570 q 90 663 107 634 q 29 692 72 692 l 29 721 q 115 717 73 717 q 357 736 260 717 l 357 636 q 536 741 411 741 m 590 1136 q 446 1007 514 1086 q 330 842 377 928 l 305 842 q 192 1006 261 926 q 45 1136 123 1085 l 57 1156 q 218 1118 139 1141 q 346 1072 297 1095 q 449 1118 385 1095 q 579 1156 513 1141 l 590 1136 z "},"ŗ":{"ha":668,"x_min":29,"x_max":664,"o":"m 29 0 m 536 741 q 634 699 604 741 q 664 600 664 657 q 629 501 664 538 q 536 464 594 464 q 444 491 476 464 q 412 564 412 517 q 484 693 412 646 q 439 684 458 693 q 380 634 404 669 q 357 559 357 600 l 357 143 q 369 74 357 99 q 407 39 381 50 q 476 29 433 29 l 476 0 l 447 1 q 252 5 333 5 q 58 1 173 5 l 29 0 l 29 29 q 75 38 58 29 q 100 68 92 47 q 107 129 107 90 l 107 570 q 90 663 107 634 q 29 692 72 692 l 29 721 q 115 717 73 717 q 357 736 260 717 l 357 636 q 536 741 411 741 m 239 -62 q 332 -92 296 -62 q 368 -176 368 -122 q 319 -293 368 -248 q 180 -339 271 -337 l 178 -309 q 268 -285 238 -301 q 305 -239 297 -269 q 232 -260 283 -260 q 145 -236 176 -260 q 115 -164 115 -212 q 147 -89 115 -115 q 239 -62 178 -62 z "},"s":{"ha":656,"x_min":54,"x_max":614,"o":"m 321 741 q 423 729 376 741 q 496 703 470 717 q 521 694 510 694 q 555 739 549 694 l 583 739 q 578 489 578 667 l 550 489 q 498 643 539 580 q 379 707 457 707 q 320 686 344 707 q 297 629 297 665 q 314 569 297 597 q 355 518 330 541 q 424 460 379 496 q 464 429 451 440 q 546 355 515 387 q 595 284 576 324 q 614 195 614 245 q 576 84 614 133 q 474 7 538 35 q 334 -20 410 -20 q 191 16 247 -20 q 121 39 146 39 q 82 -9 94 39 l 54 -9 q 60 268 60 70 l 87 268 q 120 136 96 193 q 183 47 144 79 q 271 16 221 16 q 329 35 306 16 q 351 92 351 54 q 337 158 351 128 q 299 213 322 188 q 233 277 277 237 l 222 286 q 212 296 216 293 q 130 376 159 344 q 80 450 100 409 q 60 541 60 491 q 96 646 60 600 q 191 716 132 691 q 321 741 251 741 z "},"ś":{"ha":656,"x_min":54,"x_max":614,"o":"m 54 0 m 321 741 q 423 729 376 741 q 496 703 470 717 q 521 694 510 694 q 555 739 549 694 l 583 739 q 578 489 578 667 l 550 489 q 498 643 539 580 q 379 707 457 707 q 320 686 344 707 q 297 629 297 665 q 314 569 297 597 q 355 518 330 541 q 424 460 379 496 q 464 429 451 440 q 546 355 515 387 q 595 284 576 324 q 614 195 614 245 q 576 84 614 133 q 474 7 538 35 q 334 -20 410 -20 q 191 16 247 -20 q 121 39 146 39 q 82 -9 94 39 l 54 -9 q 60 268 60 70 l 87 268 q 120 136 96 193 q 183 47 144 79 q 271 16 221 16 q 329 35 306 16 q 351 92 351 54 q 337 158 351 128 q 299 213 322 188 q 233 277 277 237 l 222 286 q 212 296 216 293 q 130 376 159 344 q 80 450 100 409 q 60 541 60 491 q 96 646 60 600 q 191 716 132 691 q 321 741 251 741 m 482 1139 q 511 1076 511 1116 q 488 1013 511 1040 q 454 981 472 994 q 398 943 435 967 q 243 832 311 890 l 228 844 q 297 1023 269 924 q 319 1086 309 1064 q 346 1128 329 1109 q 379 1152 359 1143 q 421 1161 399 1161 q 482 1139 456 1161 z "},"š":{"ha":656,"x_min":41,"x_max":614,"o":"m 41 0 m 321 741 q 423 729 376 741 q 496 703 470 717 q 521 694 510 694 q 555 739 549 694 l 583 739 q 578 489 578 667 l 550 489 q 498 643 539 580 q 379 707 457 707 q 320 686 344 707 q 297 629 297 665 q 314 569 297 597 q 355 518 330 541 q 424 460 379 496 q 464 429 451 440 q 546 355 515 387 q 595 284 576 324 q 614 195 614 245 q 576 84 614 133 q 474 7 538 35 q 334 -20 410 -20 q 191 16 247 -20 q 121 39 146 39 q 82 -9 94 39 l 54 -9 q 60 268 60 70 l 87 268 q 120 136 96 193 q 183 47 144 79 q 271 16 221 16 q 329 35 306 16 q 351 92 351 54 q 337 158 351 128 q 299 213 322 188 q 233 277 277 237 l 222 286 q 212 296 216 293 q 130 376 159 344 q 80 450 100 409 q 60 541 60 491 q 96 646 60 600 q 191 716 132 691 q 321 741 251 741 m 586 1136 q 441 1007 510 1086 q 326 842 373 928 l 301 842 q 188 1006 257 926 q 41 1136 119 1085 l 53 1156 q 214 1118 135 1141 q 342 1072 293 1095 q 445 1118 381 1095 q 575 1156 509 1141 l 586 1136 z "},"ş":{"ha":656,"x_min":54,"x_max":614,"o":"m 334 -20 q 301 -18 321 -20 l 283 -83 q 393 -62 332 -62 q 469 -85 443 -62 q 495 -143 495 -107 q 435 -231 495 -201 q 276 -261 375 -261 q 151 -243 199 -261 l 159 -218 q 226 -225 190 -225 q 286 -212 260 -225 q 312 -172 312 -198 q 273 -138 312 -138 q 227 -147 244 -138 l 266 -13 q 191 16 219 -3 q 121 39 146 39 q 82 -9 94 39 l 54 -9 q 60 268 60 70 l 87 268 q 120 136 96 193 q 183 47 144 79 q 271 16 221 16 q 329 35 306 16 q 351 92 351 54 q 337 158 351 128 q 299 213 322 188 q 233 277 277 237 l 222 286 q 212 296 216 293 q 130 376 159 344 q 80 450 100 409 q 60 541 60 491 q 96 646 60 600 q 191 716 132 691 q 321 741 251 741 q 423 729 376 741 q 496 703 470 717 q 521 694 510 694 q 555 739 549 694 l 583 739 q 578 489 578 667 l 550 489 q 498 643 539 580 q 379 707 457 707 q 320 686 344 707 q 297 629 297 665 q 314 569 297 597 q 355 518 330 541 q 424 460 379 496 q 464 429 451 440 q 546 355 515 387 q 595 284 576 324 q 614 195 614 245 q 576 84 614 133 q 474 7 538 35 q 334 -20 410 -20 z "},"ŝ":{"ha":656,"x_min":54,"x_max":614,"o":"m 54 0 m 321 741 q 423 729 376 741 q 496 703 470 717 q 521 694 510 694 q 555 739 549 694 l 583 739 q 578 489 578 667 l 550 489 q 498 643 539 580 q 379 707 457 707 q 320 686 344 707 q 297 629 297 665 q 314 569 297 597 q 355 518 330 541 q 424 460 379 496 q 464 429 451 440 q 546 355 515 387 q 595 284 576 324 q 614 195 614 245 q 576 84 614 133 q 474 7 538 35 q 334 -20 410 -20 q 191 16 247 -20 q 121 39 146 39 q 82 -9 94 39 l 54 -9 q 60 268 60 70 l 87 268 q 120 136 96 193 q 183 47 144 79 q 271 16 221 16 q 329 35 306 16 q 351 92 351 54 q 337 158 351 128 q 299 213 322 188 q 233 277 277 237 l 222 286 q 212 296 216 293 q 130 376 159 344 q 80 450 100 409 q 60 541 60 491 q 96 646 60 600 q 191 716 132 691 q 321 741 251 741 m 340 1156 q 453 991 384 1071 q 600 861 522 912 l 589 842 q 427 879 506 857 q 300 925 348 902 q 196 879 260 902 q 66 842 132 857 l 55 861 q 199 990 131 911 q 315 1156 268 1069 l 340 1156 z "},"ș":{"ha":656,"x_min":54,"x_max":614,"o":"m 54 0 m 321 741 q 423 729 376 741 q 496 703 470 717 q 521 694 510 694 q 555 739 549 694 l 583 739 q 578 489 578 667 l 550 489 q 498 643 539 580 q 379 707 457 707 q 320 686 344 707 q 297 629 297 665 q 314 569 297 597 q 355 518 330 541 q 424 460 379 496 q 464 429 451 440 q 546 355 515 387 q 595 284 576 324 q 614 195 614 245 q 576 84 614 133 q 474 7 538 35 q 334 -20 410 -20 q 191 16 247 -20 q 121 39 146 39 q 82 -9 94 39 l 54 -9 q 60 268 60 70 l 87 268 q 120 136 96 193 q 183 47 144 79 q 271 16 221 16 q 329 35 306 16 q 351 92 351 54 q 337 158 351 128 q 299 213 322 188 q 233 277 277 237 l 222 286 q 212 296 216 293 q 130 376 159 344 q 80 450 100 409 q 60 541 60 491 q 96 646 60 600 q 191 716 132 691 q 321 741 251 741 m 325 -62 q 418 -92 382 -62 q 454 -176 454 -122 q 405 -293 454 -248 q 267 -339 357 -337 l 264 -309 q 354 -285 324 -301 q 391 -239 383 -269 q 318 -260 369 -260 q 232 -236 262 -260 q 201 -164 201 -212 q 233 -89 201 -115 q 325 -62 264 -62 z "},"ß":{"ha":979,"x_min":25,"x_max":957,"o":"m 493 1086 q 668 1059 595 1086 q 779 983 741 1031 q 817 876 817 935 q 773 754 817 810 q 654 659 730 698 q 484 602 579 620 q 746 535 640 584 q 905 414 852 486 q 957 254 957 342 q 909 105 957 168 q 782 12 861 43 q 611 -20 703 -20 q 397 139 397 -20 q 429 236 397 199 q 514 273 460 273 q 595 242 564 273 q 625 160 625 210 q 594 71 625 109 q 521 14 564 33 q 561 5 537 5 q 662 70 630 5 q 694 237 694 134 q 657 426 694 355 q 571 528 619 497 q 460 583 524 559 q 412 568 429 568 q 393 574 401 568 q 385 590 385 580 q 393 608 385 602 q 415 615 401 615 q 460 606 437 615 q 533 671 507 636 q 570 750 559 706 q 581 856 581 794 q 465 1065 581 1065 q 389 1034 413 1065 q 359 939 366 1003 q 353 741 353 875 l 353 -16 q 160 4 265 2 q 130 5 149 5 q 25 0 96 5 l 25 29 q 71 38 54 29 q 96 68 88 47 q 103 129 103 90 l 103 711 q 202 991 103 895 q 493 1086 301 1086 z "},"t":{"ha":486,"x_min":-5,"x_max":488,"o":"m 486 720 l 486 692 l 350 692 l 350 117 q 359 78 350 90 q 392 66 369 66 q 429 76 409 66 q 467 107 450 86 l 488 90 q 290 -20 424 -20 q 147 28 195 -20 q 109 100 119 56 q 100 221 100 143 l 100 692 l -5 692 l -5 720 l 100 720 l 100 885 q 235 900 175 885 q 350 946 296 914 l 350 720 l 486 720 z "},"ŧ":{"ha":490,"x_min":-3,"x_max":490,"o":"m 490 90 q 293 -20 427 -20 q 150 28 197 -20 q 112 100 121 56 q 102 221 102 143 l 102 557 l -3 557 l -3 585 l 102 585 l 102 692 l -3 692 l -3 720 l 102 720 l 102 885 q 238 900 178 885 q 353 946 298 914 l 353 720 l 489 720 l 489 692 l 353 692 l 353 585 l 489 585 l 489 557 l 353 557 l 353 117 q 362 78 353 90 q 395 66 372 66 q 432 76 412 66 q 469 107 452 86 l 490 90 z "},"ť":{"ha":486,"x_min":-5,"x_max":599,"o":"m 0 0 m 486 720 l 486 692 l 350 692 l 350 117 q 359 78 350 90 q 392 66 369 66 q 429 76 409 66 q 467 107 450 86 l 488 90 q 290 -20 424 -20 q 147 28 195 -20 q 109 100 119 56 q 100 221 100 143 l 100 692 l -5 692 l -5 720 l 100 720 l 100 885 q 235 900 175 885 q 350 946 296 914 l 350 720 l 486 720 m 592 1088 q 597 1063 595 1081 q 599 1031 599 1044 q 580 971 599 1005 q 530 896 561 937 q 436 781 498 856 l 417 786 q 445 987 445 947 q 439 1030 445 1017 q 417 1043 433 1043 l 417 1072 q 455 1072 431 1072 q 526 1076 496 1072 q 592 1088 555 1080 z "},"ţ":{"ha":486,"x_min":-5,"x_max":488,"o":"m 365 -62 q 441 -85 415 -62 q 467 -143 467 -107 q 407 -231 467 -201 q 248 -261 347 -261 q 123 -243 171 -261 l 132 -218 q 198 -225 162 -225 q 258 -212 232 -225 q 284 -172 284 -198 q 245 -138 284 -138 q 199 -147 216 -138 l 237 -15 q 147 28 180 -5 q 109 100 119 56 q 100 221 100 143 l 100 692 l -5 692 l -5 720 l 100 720 l 100 885 q 235 900 175 885 q 350 946 296 914 l 350 720 l 486 720 l 486 692 l 350 692 l 350 117 q 359 78 350 90 q 392 66 369 66 q 429 76 408 66 q 467 107 450 86 l 488 90 q 290 -20 424 -20 l 273 -19 l 255 -83 q 365 -62 304 -62 z "},"ț":{"ha":486,"x_min":-5,"x_max":488,"o":"m 0 0 m 486 720 l 486 692 l 350 692 l 350 117 q 359 78 350 90 q 392 66 369 66 q 429 76 409 66 q 467 107 450 86 l 488 90 q 290 -20 424 -20 q 147 28 195 -20 q 109 100 119 56 q 100 221 100 143 l 100 692 l -5 692 l -5 720 l 100 720 l 100 885 q 235 900 175 885 q 350 946 296 914 l 350 720 l 486 720 m 297 -62 q 390 -92 355 -62 q 426 -176 426 -122 q 377 -293 426 -248 q 239 -339 329 -337 l 236 -309 q 326 -285 296 -301 q 363 -239 355 -269 q 290 -260 341 -260 q 204 -236 234 -260 q 174 -164 174 -212 q 205 -89 174 -115 q 297 -62 237 -62 z "},"u":{"ha":864,"x_min":16,"x_max":839,"o":"m 761 151 q 779 58 761 87 q 839 29 796 29 l 839 0 q 753 4 795 4 q 511 -16 607 4 l 511 85 q 290 -20 448 -20 q 134 36 180 -20 q 103 103 113 61 q 93 215 93 145 l 93 570 q 76 663 93 634 q 16 692 58 692 l 16 721 q 102 717 59 717 q 343 736 245 717 l 343 140 q 359 74 343 96 q 411 53 376 53 q 460 66 437 53 q 497 101 483 79 q 511 153 511 124 l 511 570 q 494 663 511 634 q 433 692 476 692 l 433 721 q 519 717 477 717 q 761 736 664 717 l 761 151 z "},"ú":{"ha":864,"x_min":16,"x_max":839,"o":"m 16 0 m 761 151 q 779 58 761 87 q 839 29 796 29 l 839 0 q 753 4 795 4 q 511 -16 607 4 l 511 85 q 290 -20 448 -20 q 134 36 180 -20 q 103 103 113 61 q 93 215 93 145 l 93 570 q 76 663 93 634 q 16 692 58 692 l 16 721 q 102 717 59 717 q 343 736 245 717 l 343 140 q 359 74 343 96 q 411 53 376 53 q 460 66 437 53 q 497 101 483 79 q 511 153 511 124 l 511 570 q 494 663 511 634 q 433 692 476 692 l 433 721 q 519 717 477 717 q 761 736 664 717 l 761 151 m 564 1139 q 593 1076 593 1116 q 570 1013 593 1040 q 536 981 554 994 q 480 943 517 967 q 325 832 393 890 l 310 844 q 379 1023 351 924 q 401 1086 391 1064 q 428 1128 411 1109 q 461 1152 441 1143 q 503 1161 481 1161 q 564 1139 538 1161 z "},"ŭ":{"ha":864,"x_min":16,"x_max":839,"o":"m 16 0 m 761 151 q 779 58 761 87 q 839 29 796 29 l 839 0 q 753 4 795 4 q 511 -16 607 4 l 511 85 q 290 -20 448 -20 q 134 36 180 -20 q 103 103 113 61 q 93 215 93 145 l 93 570 q 76 663 93 634 q 16 692 58 692 l 16 721 q 102 717 59 717 q 343 736 245 717 l 343 140 q 359 74 343 96 q 411 53 376 53 q 460 66 437 53 q 497 101 483 79 q 511 153 511 124 l 511 570 q 494 663 511 634 q 433 692 476 692 l 433 721 q 519 717 477 717 q 761 736 664 717 l 761 151 m 685 1082 q 590 918 657 985 q 408 851 524 851 q 227 918 293 851 q 132 1082 160 985 l 156 1095 q 408 1017 252 1017 q 661 1095 565 1017 l 685 1082 z "},"û":{"ha":864,"x_min":16,"x_max":839,"o":"m 16 0 m 761 151 q 779 58 761 87 q 839 29 796 29 l 839 0 q 753 4 795 4 q 511 -16 607 4 l 511 85 q 290 -20 448 -20 q 134 36 180 -20 q 103 103 113 61 q 93 215 93 145 l 93 570 q 76 663 93 634 q 16 692 58 692 l 16 721 q 102 717 59 717 q 343 736 245 717 l 343 140 q 359 74 343 96 q 411 53 376 53 q 460 66 437 53 q 497 101 483 79 q 511 153 511 124 l 511 570 q 494 663 511 634 q 433 692 476 692 l 433 721 q 519 717 477 717 q 761 736 664 717 l 761 151 m 422 1156 q 535 991 466 1071 q 682 861 604 912 l 671 842 q 509 879 588 857 q 382 925 430 902 q 278 879 342 902 q 149 842 214 857 l 137 861 q 281 990 213 911 q 397 1156 350 1069 l 422 1156 z "},"ü":{"ha":864,"x_min":16,"x_max":839,"o":"m 16 0 m 761 151 q 779 58 761 87 q 839 29 796 29 l 839 0 q 753 4 795 4 q 511 -16 607 4 l 511 85 q 290 -20 448 -20 q 134 36 180 -20 q 103 103 113 61 q 93 215 93 145 l 93 570 q 76 663 93 634 q 16 692 58 692 l 16 721 q 102 717 59 717 q 343 736 245 717 l 343 140 q 359 74 343 96 q 411 53 376 53 q 460 66 437 53 q 497 101 483 79 q 511 153 511 124 l 511 570 q 494 663 511 634 q 433 692 476 692 l 433 721 q 519 717 477 717 q 761 736 664 717 l 761 151 m 246 1072 q 305 1055 277 1072 q 350 1010 333 1038 q 367 951 367 983 q 350 891 367 919 q 306 847 334 863 q 246 831 277 831 q 185 847 213 831 q 141 891 157 863 q 125 951 125 919 q 141 1011 125 983 q 185 1056 157 1039 q 246 1072 214 1072 m 576 1072 q 635 1055 608 1072 q 680 1010 663 1038 q 697 951 697 983 q 681 891 697 919 q 636 847 664 863 q 576 831 608 831 q 516 847 544 831 q 472 891 488 863 q 456 951 456 919 q 472 1011 456 983 q 516 1056 488 1039 q 576 1072 544 1072 z "},"ù":{"ha":864,"x_min":16,"x_max":839,"o":"m 16 0 m 761 151 q 779 58 761 87 q 839 29 796 29 l 839 0 q 753 4 795 4 q 511 -16 607 4 l 511 85 q 290 -20 448 -20 q 134 36 180 -20 q 103 103 113 61 q 93 215 93 145 l 93 570 q 76 663 93 634 q 16 692 58 692 l 16 721 q 102 717 59 717 q 343 736 245 717 l 343 140 q 359 74 343 96 q 411 53 376 53 q 460 66 437 53 q 497 101 483 79 q 511 153 511 124 l 511 570 q 494 663 511 634 q 433 692 476 692 l 433 721 q 519 717 477 717 q 761 736 664 717 l 761 151 m 233 1139 q 293 1162 258 1162 q 336 1152 315 1162 q 370 1128 357 1143 q 396 1087 387 1109 q 418 1023 405 1065 q 448 935 433 974 q 488 844 462 895 l 472 832 q 317 943 406 888 q 260 981 277 968 q 228 1013 243 994 q 205 1076 205 1040 q 233 1139 205 1115 z "},"ű":{"ha":864,"x_min":16,"x_max":839,"o":"m 16 0 m 761 151 q 779 58 761 87 q 839 29 796 29 l 839 0 q 753 4 795 4 q 511 -16 607 4 l 511 85 q 290 -20 448 -20 q 134 36 180 -20 q 103 103 113 61 q 93 215 93 145 l 93 570 q 76 663 93 634 q 16 692 58 692 l 16 721 q 102 717 59 717 q 343 736 245 717 l 343 140 q 359 74 343 96 q 411 53 376 53 q 460 66 437 53 q 497 101 483 79 q 511 153 511 124 l 511 570 q 494 663 511 634 q 433 692 476 692 l 433 721 q 519 717 477 717 q 761 736 664 717 l 761 151 m 444 1135 q 482 1065 482 1108 q 465 1010 482 1037 q 436 976 453 992 q 385 933 418 960 q 267 831 310 873 l 248 839 q 281 999 268 909 q 294 1065 288 1042 q 311 1107 300 1088 q 345 1139 323 1128 q 391 1151 366 1151 q 444 1135 419 1151 m 690 1135 q 728 1065 728 1108 q 711 1010 728 1037 q 683 977 699 992 q 630 932 667 962 q 512 831 560 878 l 494 839 q 528 1000 513 908 q 540 1065 534 1042 q 557 1107 546 1088 q 591 1139 570 1127 q 636 1151 612 1151 q 690 1135 665 1151 z "},"ū":{"ha":864,"x_min":16,"x_max":839,"o":"m 16 0 m 761 151 q 779 58 761 87 q 839 29 796 29 l 839 0 q 753 4 795 4 q 511 -16 607 4 l 511 85 q 290 -20 448 -20 q 134 36 180 -20 q 103 103 113 61 q 93 215 93 145 l 93 570 q 76 663 93 634 q 16 692 58 692 l 16 721 q 102 717 59 717 q 343 736 245 717 l 343 140 q 359 74 343 96 q 411 53 376 53 q 460 66 437 53 q 497 101 483 79 q 511 153 511 124 l 511 570 q 494 663 511 634 q 433 692 476 692 l 433 721 q 519 717 477 717 q 761 736 664 717 l 761 151 m 161 954 l 161 989 l 650 989 l 650 954 l 161 954 z "},"ų":{"ha":864,"x_min":16,"x_max":856,"o":"m 856 -167 q 766 -239 816 -217 q 644 -261 716 -261 q 541 -236 576 -261 q 506 -163 506 -210 q 570 -61 506 -103 q 753 4 634 -18 q 511 -16 607 4 l 511 85 q 290 -20 448 -20 q 134 36 180 -20 q 103 103 113 61 q 93 215 93 145 l 93 570 q 76 663 93 634 q 16 692 58 692 l 16 721 q 102 717 59 717 q 343 736 245 717 l 343 140 q 359 74 343 96 q 411 53 376 53 q 460 66 437 53 q 497 101 483 79 q 511 153 511 124 l 511 570 q 494 663 511 634 q 433 692 476 692 l 433 721 q 519 717 477 717 q 761 736 664 717 l 761 151 q 779 58 761 87 q 839 29 796 29 l 839 0 q 801 3 825 1 q 785 -5 806 6 q 713 -62 735 -31 q 691 -125 691 -94 q 705 -165 691 -153 q 747 -178 719 -178 q 796 -169 770 -178 q 838 -146 823 -159 l 856 -167 z "},"ů":{"ha":864,"x_min":16,"x_max":839,"o":"m 16 0 m 761 151 q 779 58 761 87 q 839 29 796 29 l 839 0 q 753 4 795 4 q 511 -16 607 4 l 511 85 q 290 -20 448 -20 q 134 36 180 -20 q 103 103 113 61 q 93 215 93 145 l 93 570 q 76 663 93 634 q 16 692 58 692 l 16 721 q 102 717 59 717 q 343 736 245 717 l 343 140 q 359 74 343 96 q 411 53 376 53 q 460 66 437 53 q 497 101 483 79 q 511 153 511 124 l 511 570 q 494 663 511 634 q 433 692 476 692 l 433 721 q 519 717 477 717 q 761 736 664 717 l 761 151 m 410 1112 q 490 1095 453 1112 q 550 1046 528 1078 q 572 972 572 1014 q 550 898 572 930 q 490 848 528 865 q 410 831 453 831 q 330 848 367 831 q 271 898 293 865 q 249 972 249 930 q 271 1046 249 1014 q 330 1095 293 1078 q 410 1112 367 1112 m 410 1083 q 352 1070 380 1083 q 306 1031 323 1057 q 288 971 288 1006 q 305 910 288 935 q 351 872 323 885 q 410 860 379 860 q 469 872 441 860 q 516 910 498 885 q 534 971 534 935 q 516 1031 534 1006 q 469 1070 498 1057 q 410 1083 440 1083 z "},"ũ":{"ha":864,"x_min":16,"x_max":839,"o":"m 16 0 m 761 151 q 779 58 761 87 q 839 29 796 29 l 839 0 q 753 4 795 4 q 511 -16 607 4 l 511 85 q 290 -20 448 -20 q 134 36 180 -20 q 103 103 113 61 q 93 215 93 145 l 93 570 q 76 663 93 634 q 16 692 58 692 l 16 721 q 102 717 59 717 q 343 736 245 717 l 343 140 q 359 74 343 96 q 411 53 376 53 q 460 66 437 53 q 497 101 483 79 q 511 153 511 124 l 511 570 q 494 663 511 634 q 433 692 476 692 l 433 721 q 519 717 477 717 q 761 736 664 717 l 761 151 m 291 1108 q 363 1096 334 1108 q 432 1059 393 1083 q 488 1027 465 1038 q 543 1017 512 1017 q 650 1090 605 1017 l 669 1080 q 598 910 646 966 q 491 854 551 854 q 417 867 448 854 q 349 905 387 880 q 293 937 317 926 q 239 947 269 947 q 132 872 177 947 l 112 882 q 182 1053 135 997 q 291 1108 230 1108 z "},"v":{"ha":722,"x_min":-20,"x_max":724,"o":"m 616 715 q 724 721 696 715 l 724 692 q 671 650 695 681 q 625 557 647 620 l 437 0 q 370 3 401 3 q 302 0 340 3 l 61 614 q -20 692 31 692 l -20 721 q 228 713 92 713 q 408 721 297 713 l 408 692 q 363 690 378 692 q 338 681 349 689 q 328 656 328 673 q 330 639 328 649 l 481 218 l 546 410 q 572 552 572 488 q 544 653 572 617 q 471 692 516 688 l 471 721 q 616 715 523 715 z "},"w":{"ha":1108,"x_min":-16,"x_max":1112,"o":"m 1006 715 q 1112 721 1085 715 l 1112 692 q 1058 651 1082 681 q 1014 557 1034 621 l 840 0 q 773 3 804 3 q 705 0 743 3 l 540 480 l 414 0 q 347 3 378 3 q 279 0 317 3 l 65 614 q 27 677 47 663 q -16 692 6 692 l -16 721 q 232 713 96 713 q 412 721 301 713 l 412 692 q 351 685 370 692 q 332 658 332 679 q 335 639 332 649 l 450 254 l 570 720 l 571 720 q 637 717 600 717 q 718 720 665 717 l 876 212 l 936 410 q 958 543 958 484 q 927 650 958 613 q 846 692 897 687 l 846 721 q 1006 715 898 715 z "},"ẃ":{"ha":1108,"x_min":-16,"x_max":1112,"o":"m 0 0 m 1006 715 q 1112 721 1085 715 l 1112 692 q 1058 651 1082 681 q 1014 557 1034 621 l 840 0 q 773 3 804 3 q 705 0 743 3 l 540 480 l 414 0 q 347 3 378 3 q 279 0 317 3 l 65 614 q 27 677 47 663 q -16 692 6 692 l -16 721 q 232 713 96 713 q 412 721 301 713 l 412 692 q 351 685 370 692 q 332 658 332 679 q 335 639 332 649 l 450 254 l 570 720 l 571 720 q 637 717 600 717 q 718 720 665 717 l 876 212 l 936 410 q 958 543 958 484 q 927 650 958 613 q 846 692 897 687 l 846 721 q 1006 715 898 715 m 726 1139 q 754 1076 754 1116 q 731 1013 754 1040 q 697 981 715 994 q 642 943 679 967 q 486 832 555 890 l 471 844 q 541 1023 512 924 q 563 1086 553 1064 q 589 1128 572 1109 q 623 1152 602 1143 q 665 1161 643 1161 q 726 1139 699 1161 z "},"ŵ":{"ha":1108,"x_min":-16,"x_max":1112,"o":"m 0 0 m 1006 715 q 1112 721 1085 715 l 1112 692 q 1058 651 1082 681 q 1014 557 1034 621 l 840 0 q 773 3 804 3 q 705 0 743 3 l 540 480 l 414 0 q 347 3 378 3 q 279 0 317 3 l 65 614 q 27 677 47 663 q -16 692 6 692 l -16 721 q 232 713 96 713 q 412 721 301 713 l 412 692 q 351 685 370 692 q 332 658 332 679 q 335 639 332 649 l 450 254 l 570 720 l 571 720 q 637 717 600 717 q 718 720 665 717 l 876 212 l 936 410 q 958 543 958 484 q 927 650 958 613 q 846 692 897 687 l 846 721 q 1006 715 898 715 m 583 1156 q 696 991 627 1071 q 843 861 766 912 l 832 842 q 670 879 749 857 q 543 925 591 902 q 439 879 503 902 q 310 842 376 857 l 298 861 q 443 990 374 911 q 558 1156 511 1069 l 583 1156 z "},"ẅ":{"ha":1108,"x_min":-16,"x_max":1112,"o":"m 0 0 m 1006 715 q 1112 721 1085 715 l 1112 692 q 1058 651 1082 681 q 1014 557 1034 621 l 840 0 q 773 3 804 3 q 705 0 743 3 l 540 480 l 414 0 q 347 3 378 3 q 279 0 317 3 l 65 614 q 27 677 47 663 q -16 692 6 692 l -16 721 q 232 713 96 713 q 412 721 301 713 l 412 692 q 351 685 370 692 q 332 658 332 679 q 335 639 332 649 l 450 254 l 570 720 l 571 720 q 637 717 600 717 q 718 720 665 717 l 876 212 l 936 410 q 958 543 958 484 q 927 650 958 613 q 846 692 897 687 l 846 721 q 1006 715 898 715 m 408 1072 q 467 1055 439 1072 q 511 1010 494 1038 q 528 951 528 983 q 512 891 528 919 q 467 847 495 863 q 408 831 439 831 q 347 847 374 831 q 302 891 319 863 q 286 951 286 919 q 302 1011 286 983 q 347 1056 319 1039 q 408 1072 375 1072 m 738 1072 q 797 1055 769 1072 q 842 1010 825 1038 q 859 951 859 983 q 842 891 859 919 q 797 847 825 863 q 738 831 769 831 q 677 847 705 831 q 633 891 650 863 q 617 951 617 919 q 633 1011 617 983 q 677 1056 650 1039 q 738 1072 705 1072 z "},"ẁ":{"ha":1108,"x_min":-16,"x_max":1112,"o":"m 0 0 m 1006 715 q 1112 721 1085 715 l 1112 692 q 1058 651 1082 681 q 1014 557 1034 621 l 840 0 q 773 3 804 3 q 705 0 743 3 l 540 480 l 414 0 q 347 3 378 3 q 279 0 317 3 l 65 614 q 27 677 47 663 q -16 692 6 692 l -16 721 q 232 713 96 713 q 412 721 301 713 l 412 692 q 351 685 370 692 q 332 658 332 679 q 335 639 332 649 l 450 254 l 570 720 l 571 720 q 637 717 600 717 q 718 720 665 717 l 876 212 l 936 410 q 958 543 958 484 q 927 650 958 613 q 846 692 897 687 l 846 721 q 1006 715 898 715 m 395 1139 q 454 1162 420 1162 q 497 1152 476 1162 q 531 1128 518 1143 q 557 1087 548 1109 q 579 1023 566 1065 q 609 935 595 974 q 649 844 623 895 l 633 832 q 478 943 568 888 q 421 981 439 968 q 389 1013 404 994 q 366 1076 366 1040 q 395 1139 366 1115 z "},"x":{"ha":760,"x_min":-1,"x_max":772,"o":"m 700 98 q 716 75 703 94 q 744 44 730 57 q 772 29 759 32 l 772 0 q 748 1 767 0 q 590 5 628 5 q 426 1 550 5 q 399 0 404 0 l 399 29 q 430 36 418 29 q 441 54 441 43 q 433 77 441 66 l 297 282 l 285 267 q 233 137 233 199 q 260 61 233 92 q 332 28 287 31 l 332 0 q 106 4 248 4 q 12 0 50 4 l 12 28 q 77 72 47 45 q 143 142 107 98 l 283 303 l 71 623 q 34 672 49 656 q -1 692 18 688 l -1 721 l 26 720 q 208 715 132 715 q 349 720 241 715 q 372 721 367 721 l 372 692 q 341 685 353 692 q 330 667 330 678 q 338 644 330 656 l 458 462 l 482 490 q 534 608 534 553 q 511 667 534 644 q 446 693 488 690 l 446 721 q 631 717 531 717 q 724 721 686 717 l 724 693 q 593 579 666 667 l 473 440 l 700 98 z "},"y":{"ha":734,"x_min":-28,"x_max":729,"o":"m 623 715 q 729 721 701 715 l 729 692 q 676 650 701 681 q 631 557 652 620 l 457 40 l 399 -127 q 338 -228 373 -200 q 208 -261 295 -261 q 122 -248 165 -261 q 49 -205 79 -235 q 20 -131 20 -176 q 57 -53 20 -82 q 155 -24 94 -24 q 248 -50 214 -24 q 281 -126 281 -76 q 258 -189 281 -159 q 191 -233 235 -219 q 237 -236 204 -236 q 370 -125 333 -236 l 377 -102 l 53 614 q 12 676 32 661 q -28 692 -8 692 l -28 721 q 199 713 83 713 q 400 721 289 713 l 400 692 q 338 686 359 692 q 317 661 317 681 q 322 639 317 650 l 494 232 l 551 410 q 578 552 578 488 q 550 653 578 617 q 476 692 522 688 l 476 721 q 623 715 528 715 z "},"ý":{"ha":734,"x_min":-28,"x_max":729,"o":"m 0 0 m 623 715 q 729 721 701 715 l 729 692 q 676 650 701 681 q 631 557 652 620 l 457 40 l 399 -127 q 338 -228 373 -200 q 208 -261 295 -261 q 122 -248 165 -261 q 49 -205 79 -235 q 20 -131 20 -176 q 57 -53 20 -82 q 155 -24 94 -24 q 248 -50 214 -24 q 281 -126 281 -76 q 258 -189 281 -159 q 191 -233 235 -219 q 237 -236 204 -236 q 370 -125 333 -236 l 377 -102 l 53 614 q 12 676 32 661 q -28 692 -8 692 l -28 721 q 199 713 83 713 q 400 721 289 713 l 400 692 q 338 686 359 692 q 317 661 317 681 q 322 639 317 650 l 494 232 l 551 410 q 578 552 578 488 q 550 653 578 617 q 476 692 522 688 l 476 721 q 623 715 528 715 m 515 1139 q 544 1076 544 1116 q 521 1013 544 1040 q 487 981 505 994 q 431 943 469 967 q 276 832 345 890 l 261 844 q 330 1023 302 924 q 352 1086 342 1064 q 379 1128 362 1109 q 412 1152 392 1143 q 454 1161 433 1161 q 515 1139 489 1161 z "},"ŷ":{"ha":734,"x_min":-28,"x_max":729,"o":"m 0 0 m 623 715 q 729 721 701 715 l 729 692 q 676 650 701 681 q 631 557 652 620 l 457 40 l 399 -127 q 338 -228 373 -200 q 208 -261 295 -261 q 122 -248 165 -261 q 49 -205 79 -235 q 20 -131 20 -176 q 57 -53 20 -82 q 155 -24 94 -24 q 248 -50 214 -24 q 281 -126 281 -76 q 258 -189 281 -159 q 191 -233 235 -219 q 237 -236 204 -236 q 370 -125 333 -236 l 377 -102 l 53 614 q 12 676 32 661 q -28 692 -8 692 l -28 721 q 199 713 83 713 q 400 721 289 713 l 400 692 q 338 686 359 692 q 317 661 317 681 q 322 639 317 650 l 494 232 l 551 410 q 578 552 578 488 q 550 653 578 617 q 476 692 522 688 l 476 721 q 623 715 528 715 m 373 1156 q 486 991 417 1071 q 633 861 555 912 l 622 842 q 460 879 539 857 q 333 925 381 902 q 229 879 293 902 q 100 842 165 857 l 88 861 q 233 990 164 911 q 348 1156 301 1069 l 373 1156 z "},"ÿ":{"ha":734,"x_min":-28,"x_max":729,"o":"m 0 0 m 623 715 q 729 721 701 715 l 729 692 q 676 650 701 681 q 631 557 652 620 l 457 40 l 399 -127 q 338 -228 373 -200 q 208 -261 295 -261 q 122 -248 165 -261 q 49 -205 79 -235 q 20 -131 20 -176 q 57 -53 20 -82 q 155 -24 94 -24 q 248 -50 214 -24 q 281 -126 281 -76 q 258 -189 281 -159 q 191 -233 235 -219 q 237 -236 204 -236 q 370 -125 333 -236 l 377 -102 l 53 614 q 12 676 32 661 q -28 692 -8 692 l -28 721 q 199 713 83 713 q 400 721 289 713 l 400 692 q 338 686 359 692 q 317 661 317 681 q 322 639 317 650 l 494 232 l 551 410 q 578 552 578 488 q 550 653 578 617 q 476 692 522 688 l 476 721 q 623 715 528 715 m 197 1072 q 256 1055 229 1072 q 301 1010 284 1038 q 318 951 318 983 q 301 891 318 919 q 257 847 285 863 q 197 831 229 831 q 136 847 164 831 q 92 891 109 863 q 76 951 76 919 q 92 1011 76 983 q 137 1056 109 1039 q 197 1072 165 1072 m 528 1072 q 587 1055 559 1072 q 631 1010 614 1038 q 648 951 648 983 q 632 891 648 919 q 587 847 615 863 q 528 831 559 831 q 467 847 495 831 q 423 891 439 863 q 407 951 407 919 q 423 1011 407 983 q 467 1056 439 1039 q 528 1072 495 1072 z "},"ỳ":{"ha":734,"x_min":-28,"x_max":729,"o":"m 0 0 m 623 715 q 729 721 701 715 l 729 692 q 676 650 701 681 q 631 557 652 620 l 457 40 l 399 -127 q 338 -228 373 -200 q 208 -261 295 -261 q 122 -248 165 -261 q 49 -205 79 -235 q 20 -131 20 -176 q 57 -53 20 -82 q 155 -24 94 -24 q 248 -50 214 -24 q 281 -126 281 -76 q 258 -189 281 -159 q 191 -233 235 -219 q 237 -236 204 -236 q 370 -125 333 -236 l 377 -102 l 53 614 q 12 676 32 661 q -28 692 -8 692 l -28 721 q 199 713 83 713 q 400 721 289 713 l 400 692 q 338 686 359 692 q 317 661 317 681 q 322 639 317 650 l 494 232 l 551 410 q 578 552 578 488 q 550 653 578 617 q 476 692 522 688 l 476 721 q 623 715 528 715 m 184 1139 q 244 1162 210 1162 q 287 1152 266 1162 q 321 1128 308 1143 q 347 1087 338 1109 q 369 1023 356 1065 q 399 935 385 974 q 439 844 413 895 l 423 832 q 268 943 357 888 q 211 981 229 968 q 179 1013 194 994 q 156 1076 156 1040 q 184 1139 156 1115 z "},"z":{"ha":656,"x_min":36,"x_max":621,"o":"m 329 21 q 438 46 387 21 q 526 130 490 71 q 570 286 562 189 l 597 286 q 603 -5 597 78 q 330 0 488 0 q 36 -7 191 0 l 347 699 l 319 699 q 164 637 229 699 q 87 433 98 575 l 60 433 q 54 725 60 642 q 326 720 169 720 q 621 726 466 720 l 310 21 l 329 21 z "},"ź":{"ha":656,"x_min":36,"x_max":621,"o":"m 36 0 m 329 21 q 438 46 387 21 q 526 130 490 71 q 570 286 562 189 l 597 286 q 603 -5 597 78 q 330 0 488 0 q 36 -7 191 0 l 347 699 l 319 699 q 164 637 229 699 q 87 433 98 575 l 60 433 q 54 725 60 642 q 326 720 169 720 q 621 726 466 720 l 310 21 l 329 21 m 505 1139 q 533 1076 533 1116 q 510 1013 533 1040 q 476 981 494 994 q 420 943 458 967 q 265 832 334 890 l 250 844 q 319 1023 291 924 q 341 1086 332 1064 q 368 1128 351 1109 q 401 1152 381 1143 q 444 1161 422 1161 q 505 1139 478 1161 z "},"ž":{"ha":656,"x_min":36,"x_max":621,"o":"m 36 0 m 329 21 q 438 46 387 21 q 526 130 490 71 q 570 286 562 189 l 597 286 q 603 -5 597 78 q 330 0 488 0 q 36 -7 191 0 l 347 699 l 319 699 q 164 637 229 699 q 87 433 98 575 l 60 433 q 54 725 60 642 q 326 720 169 720 q 621 726 466 720 l 310 21 l 329 21 m 608 1136 q 464 1007 532 1086 q 349 842 395 928 l 323 842 q 210 1006 279 926 q 64 1136 141 1085 l 75 1156 q 236 1118 157 1141 q 364 1072 315 1095 q 467 1118 404 1095 q 597 1156 531 1141 l 608 1136 z "}}}
